<svg id="icone__domaine" data-name="icone _domaine" xmlns="http://www.w3.org/2000/svg" xmlns:xlink="http://www.w3.org/1999/xlink" width="122" height="122" viewBox="0 0 122 122">
  <defs>
    <clipPath id="clip-path">
      <rect id="Rectangle_156" data-name="Rectangle 156" width="122" height="122" fill="none"/>
    </clipPath>
  </defs>
  <g id="Groupe_72" data-name="Groupe 72" clip-path="url(#clip-path)">
    <path id="Tracé_420" data-name="Tracé 420" d="M122,61A61,61,0,1,1,61,0a61,61,0,0,1,61,61" fill="#1e2d70"/>
    <path id="Tracé_421" data-name="Tracé 421" d="M159.218,106.444A52.774,52.774,0,1,1,106.443,53.67a52.774,52.774,0,0,1,52.774,52.774" transform="translate(-45.443 -45.444)" fill="#0a2449"/>
    <path id="Tracé_422" data-name="Tracé 422" d="M259.636,189.881H240l-3.5-6.3a4.185,4.185,0,0,0-3.658-2.153H208.185A4.185,4.185,0,0,0,204,185.615v7.868h.008c0,.076-.008.153-.008.23V247.05a3.832,3.832,0,0,0,3.832,3.832h51.8a3.832,3.832,0,0,0,3.832-3.832V193.713a3.832,3.832,0,0,0-3.832-3.832" transform="translate(-172.734 -153.623)" fill="#1e2d70"/>
    <path id="Tracé_423" data-name="Tracé 423" d="M232.842,161.429H208.185A4.185,4.185,0,0,0,204,165.614v7.868h38l-5.5-9.9a4.185,4.185,0,0,0-3.658-2.153" transform="translate(-172.734 -136.687)" fill="#751f81"/>
    <path id="Tracé_424" data-name="Tracé 424" d="M259.636,286.038h-51.8A3.832,3.832,0,0,1,204,282.207V230.4a3.832,3.832,0,0,1,3.832-3.832h51.8a3.832,3.832,0,0,1,3.832,3.832v51.8a3.832,3.832,0,0,1-3.832,3.832" transform="translate(-172.734 -191.845)" fill="#751f81"/>
    <path id="Tracé_425" data-name="Tracé 425" d="M259.636,276.038h-51.8A3.832,3.832,0,0,1,204,272.207V220.4a3.832,3.832,0,0,1,3.832-3.832h51.8a3.832,3.832,0,0,1,3.832,3.832v51.8a3.832,3.832,0,0,1-3.832,3.832" transform="translate(-172.734 -183.378)" fill="#833d8f"/>
    <path id="Tracé_426" data-name="Tracé 426" d="M284.823,311.571H238.539a1.533,1.533,0,0,0-1.533,1.533v36.375a1.533,1.533,0,0,0,1.533,1.533h46.285a1.533,1.533,0,0,0,1.533-1.533V313.1a1.533,1.533,0,0,0-1.533-1.533" transform="translate(-200.681 -263.818)" fill="#fff"/>
    <path id="Tracé_427" data-name="Tracé 427" d="M284.823,550.437H238.539a1.533,1.533,0,0,1-1.533-1.533v1.533a1.533,1.533,0,0,0,1.533,1.533h46.285a1.533,1.533,0,0,0,1.533-1.533V548.9a1.533,1.533,0,0,1-1.533,1.533" transform="translate(-200.681 -464.775)" fill="#c7c9cb"/>
    <path id="Tracé_428" data-name="Tracé 428" d="M271.643,247.7H240.071a3.065,3.065,0,0,0-3.065,3.065v.766a3.065,3.065,0,0,0,3.065,3.065h31.572a3.065,3.065,0,0,0,3.065-3.065v-.766a3.065,3.065,0,0,0-3.065-3.065" transform="translate(-200.681 -209.732)" fill="#fff"/>
    <path id="Tracé_429" data-name="Tracé 429" d="M271.643,267.877H240.071a3.064,3.064,0,0,1-3.039-2.682,3.069,3.069,0,0,0-.027.383v.766a3.065,3.065,0,0,0,3.065,3.065h31.572a3.065,3.065,0,0,0,3.065-3.065v-.766a3.064,3.064,0,0,0-.027-.383,3.064,3.064,0,0,1-3.039,2.682" transform="translate(-200.681 -224.55)" fill="#c7c9cb"/>
    <path id="Tracé_430" data-name="Tracé 430" d="M509.645,247.7H507.4a3.065,3.065,0,0,0-3.065,3.065v.766a3.065,3.065,0,0,0,3.065,3.065h2.247a3.065,3.065,0,0,0,3.065-3.065v-.766a3.065,3.065,0,0,0-3.065-3.065" transform="translate(-427.036 -209.732)" fill="#009cdc"/>
    <path id="Tracé_431" data-name="Tracé 431" d="M509.645,267.877H507.4a3.064,3.064,0,0,1-3.039-2.682,3.069,3.069,0,0,0-.027.383v.766a3.065,3.065,0,0,0,3.065,3.065h2.247a3.065,3.065,0,0,0,3.065-3.065v-.766a3.075,3.075,0,0,0-.026-.383,3.064,3.064,0,0,1-3.039,2.682" transform="translate(-427.036 -224.55)" fill="#0083b9"/>
    <path id="Tracé_432" data-name="Tracé 432" d="M328.885,357.714a15.276,15.276,0,1,0-30.551,0c0,.151,0,.3.007.451s-.007.3-.007.451a15.276,15.276,0,0,0,30.551,0c0-.151,0-.3-.007-.451s.007-.3.007-.451" transform="translate(-252.609 -289.954)" fill="#c7c9cb"/>
    <path id="Tracé_433" data-name="Tracé 433" d="M328.885,353.6a15.276,15.276,0,1,1-15.276-15.276A15.276,15.276,0,0,1,328.885,353.6" transform="translate(-252.609 -286.467)" fill="#0083b9"/>
    <path id="Tracé_434" data-name="Tracé 434" d="M328.885,347.714a15.276,15.276,0,1,1-15.276-15.276,15.276,15.276,0,0,1,15.276,15.276" transform="translate(-252.609 -281.486)" fill="#009cdc"/>
    <path id="Tracé_435" data-name="Tracé 435" d="M342.171,363.937A12.339,12.339,0,1,1,329.832,351.6a12.339,12.339,0,0,1,12.339,12.339" transform="translate(-268.832 -297.71)" fill="#1b3a8f"/>
    <path id="Tracé_436" data-name="Tracé 436" d="M329.832,432.561a12.341,12.341,0,0,1-12.239-10.76,12.339,12.339,0,1,0,24.478,0,12.341,12.341,0,0,1-12.239,10.76" transform="translate(-268.832 -357.153)" fill="#002d85"/>
    <path id="Tracé_437" data-name="Tracé 437" d="M344.287,468.152a21.613,21.613,0,0,0-9.723,2.073,12.421,12.421,0,0,0,1.479,1.583,22.335,22.335,0,0,1,16.487,0,12.408,12.408,0,0,0,1.479-1.583,21.613,21.613,0,0,0-9.723-2.073" transform="translate(-283.287 -396.4)" fill="#009cdc"/>
    <path id="Tracé_438" data-name="Tracé 438" d="M339.169,477.51q.37.4.774.758a22.336,22.336,0,0,1,16.487,0q.4-.362.774-.758a24.386,24.386,0,0,0-18.034,0" transform="translate(-287.186 -402.861)" fill="#0083b9"/>
    <path id="Tracé_439" data-name="Tracé 439" d="M344.287,375.86a21.613,21.613,0,0,0,9.723-2.073,12.41,12.41,0,0,0-1.479-1.583,22.335,22.335,0,0,1-16.487,0,12.411,12.411,0,0,0-1.479,1.583,21.613,21.613,0,0,0,9.723,2.073" transform="translate(-283.287 -315.158)" fill="#009cdc"/>
    <path id="Tracé_440" data-name="Tracé 440" d="M344.287,379.515a22.408,22.408,0,0,1-9.1-1.767q-.325.354-.622.733a23.835,23.835,0,0,0,19.445,0q-.3-.379-.622-.733a22.408,22.408,0,0,1-9.1,1.767" transform="translate(-283.287 -319.852)" fill="#0083b9"/>
    <path id="Tracé_441" data-name="Tracé 441" d="M391.217,351.642v24.59c.343.029.689.044,1.039.044h0c.35,0,.7-.015,1.039-.044v-24.59c-.343-.029-.689-.044-1.039-.044h0c-.35,0-.7.015-1.039.044" transform="translate(-331.257 -297.71)" fill="#009cdc"/>
    <path id="Tracé_442" data-name="Tracé 442" d="M317.537,425.322c-.029.343-.044.689-.044,1.039h0c0,.35.015.7.044,1.039h24.59c.029-.343.044-.689.044-1.039h0c0-.35-.015-.7-.044-1.039Z" transform="translate(-268.832 -360.134)" fill="#009cdc"/>
    <path id="Tracé_443" data-name="Tracé 443" d="M342.127,429.234h-24.59q-.021-.258-.033-.52-.011.258-.011.519h0c0,.35.015.7.044,1.039h24.59c.029-.343.044-.689.044-1.039h0q0-.261-.011-.519-.011.261-.033.52" transform="translate(-268.832 -363.007)" fill="#0083b9"/>
    <path id="Tracé_444" data-name="Tracé 444" d="M350.117,375.331a26.334,26.334,0,0,1,0-19.766,10.118,10.118,0,0,1,1.357-2.183,12.256,12.256,0,0,0-3.168,1.151c-.023.047-.046.094-.069.142a28.37,28.37,0,0,0,0,21.545c.023.048.046.095.069.142a12.251,12.251,0,0,0,3.168,1.151,10.114,10.114,0,0,1-1.357-2.182" transform="translate(-293.065 -299.22)" fill="#009cdc"/>
    <path id="Tracé_445" data-name="Tracé 445" d="M353.935,365.448a23.735,23.735,0,0,1,1.925-9.883,10.122,10.122,0,0,1,1.357-2.183,12.273,12.273,0,0,0-1.326.363,10.825,10.825,0,0,0-1.071,1.82,26.333,26.333,0,0,0,0,19.766,10.818,10.818,0,0,0,1.071,1.82,12.238,12.238,0,0,0,1.326.363,10.121,10.121,0,0,1-1.357-2.183,23.736,23.736,0,0,1-1.925-9.883" transform="translate(-298.808 -299.22)" fill="#0083b9"/>
    <path id="Tracé_446" data-name="Tracé 446" d="M416.264,355.565a26.334,26.334,0,0,1,0,19.766,10.118,10.118,0,0,1-1.357,2.182,12.257,12.257,0,0,0,3.168-1.151c.023-.047.046-.094.069-.142a28.37,28.37,0,0,0,0-21.545c-.023-.048-.046-.095-.069-.142a12.252,12.252,0,0,0-3.168-1.151,10.115,10.115,0,0,1,1.357,2.182" transform="translate(-351.316 -299.221)" fill="#009cdc"/>
    <path id="Tracé_447" data-name="Tracé 447" d="M414.907,377.514a12.263,12.263,0,0,0,1.326-.363,10.816,10.816,0,0,0,1.071-1.82,26.334,26.334,0,0,0,0-19.766,10.809,10.809,0,0,0-1.071-1.82,12.228,12.228,0,0,0-1.326-.363,10.115,10.115,0,0,1,1.357,2.182,26.336,26.336,0,0,1,0,19.766,10.118,10.118,0,0,1-1.357,2.182" transform="translate(-351.316 -299.221)" fill="#0083b9"/>
  </g>
</svg>
