<svg id="icone_voice_IP" data-name="icone voice IP" xmlns="http://www.w3.org/2000/svg" xmlns:xlink="http://www.w3.org/1999/xlink" width="122" height="122" viewBox="0 0 122 122">
  <defs>
    <clipPath id="clip-path">
      <rect id="Rectangle_136" data-name="Rectangle 136" width="122" height="122" fill="none"/>
    </clipPath>
  </defs>
  <g id="Groupe_22" data-name="Groupe 22" clip-path="url(#clip-path)">
    <path id="Tracé_328" data-name="Tracé 328" d="M122,61A61,61,0,1,1,61,0a61,61,0,0,1,61,61" fill="#1e2d70"/>
    <path id="Tracé_329" data-name="Tracé 329" d="M159.218,106.444A52.774,52.774,0,1,1,106.443,53.67a52.774,52.774,0,0,1,52.774,52.774" transform="translate(-45.443 -45.444)" fill="#0a2449"/>
    <path id="Tracé_330" data-name="Tracé 330" d="M236.751,130.283H218.265l.5-2.675a1.916,1.916,0,0,0-1.1-2.1c-.4-6.7-5.563-12-11.876-12-6.36,0-11.554,5.381-11.886,12.154a1.916,1.916,0,0,0-1.092,2.1l.477,2.53H174.832A3.832,3.832,0,0,0,171,134.114v39.849a3.832,3.832,0,0,0,3.832,3.832h1.686v.358a.766.766,0,0,0,.766.766h4.956a.766.766,0,0,0,.766-.766V177.8h1.673v.358a.766.766,0,0,0,.766.766h1.712a.766.766,0,0,0,.766-.766V177.8h11.048l-2.989,11.188H190.72a1.946,1.946,0,0,0-1.84,1.325h0a1.909,1.909,0,0,0-.052.185l0,.015c-.013.057-.022.116-.029.175,0,.01,0,.021,0,.031a1.994,1.994,0,0,0-.011.209,1.941,1.941,0,0,0,1.941,1.941h30.142a1.941,1.941,0,0,0,1.941-1.941,1.994,1.994,0,0,0-.012-.209c0-.01,0-.021,0-.031-.007-.059-.017-.118-.029-.175l0-.015a1.909,1.909,0,0,0-.052-.185h0a1.941,1.941,0,0,0-1.84-1.325H215.6L212.611,177.8h24.14a3.832,3.832,0,0,0,3.832-3.832V134.114a3.832,3.832,0,0,0-3.832-3.832" transform="translate(-144.791 -96.104)" fill="#1e2d70"/>
    <path id="Tracé_331" data-name="Tracé 331" d="M236.751,250.513h-61.92A3.832,3.832,0,0,1,171,246.681V206.832A3.832,3.832,0,0,1,174.832,203h61.92a3.832,3.832,0,0,1,3.832,3.832v39.849a3.832,3.832,0,0,1-3.832,3.832" transform="translate(-144.791 -171.887)" fill="#009cdc"/>
    <path id="Tracé_332" data-name="Tracé 332" d="M353.618,524.188H334L336.989,513h13.64Z" transform="translate(-282.809 -434.374)" fill="#1b3a8f"/>
    <path id="Tracé_333" data-name="Tracé 333" d="M319.084,589.883H288.941a1.941,1.941,0,0,1,0-3.883h30.142a1.941,1.941,0,1,1,0,3.883" transform="translate(-243.013 -496.186)" fill="#009cdc"/>
    <path id="Tracé_334" data-name="Tracé 334" d="M319.084,594.553H288.941a1.94,1.94,0,0,1-1.765-1.137,1.939,1.939,0,0,0,1.765,2.746h30.142a1.938,1.938,0,0,0,1.765-2.746,1.94,1.94,0,0,1-1.765,1.137" transform="translate(-243.013 -502.465)" fill="#0083b9"/>
    <path id="Tracé_335" data-name="Tracé 335" d="M240.583,241.47V206.832A3.832,3.832,0,0,0,236.751,203h-61.92A3.832,3.832,0,0,0,171,206.832V241.47Z" transform="translate(-144.791 -171.887)" fill="#833d8f"/>
    <path id="Tracé_336" data-name="Tracé 336" d="M212.722,514.124h-4.956a.766.766,0,0,1-.766-.766V513h6.488v.358a.766.766,0,0,1-.766.766" transform="translate(-175.274 -434.374)" fill="#833d8f"/>
    <path id="Tracé_337" data-name="Tracé 337" d="M262.728,514.124h-1.712a.766.766,0,0,1-.766-.766V513h3.244v.358a.766.766,0,0,1-.766.766" transform="translate(-220.362 -434.374)" fill="#833d8f"/>
    <path id="Tracé_338" data-name="Tracé 338" d="M371.947,203h-2.81l-38.47,38.47h45.111V206.832A3.832,3.832,0,0,0,371.947,203" transform="translate(-279.987 -171.887)" fill="#751f81"/>
    <path id="Tracé_339" data-name="Tracé 339" d="M362.6,516.755l-1-3.755H347.96l-1,3.755Z" transform="translate(-293.78 -434.374)" fill="#002d85"/>
    <path id="Tracé_340" data-name="Tracé 340" d="M217.984,468.083H207.421a.422.422,0,0,0-.421.421v.421a.422.422,0,0,0,.421.422h10.563a.421.421,0,0,0,.421-.422V468.5a.421.421,0,0,0-.421-.421" transform="translate(-175.274 -396.342)" fill="#002d85"/>
    <path id="Tracé_341" data-name="Tracé 341" d="M218.125,470.461H207.281c-.1,0-.193-.128-.242-.316a1.266,1.266,0,0,0-.039.316c0,.349.126.632.281.632h10.844c.155,0,.281-.283.281-.632a1.266,1.266,0,0,0-.039-.316c-.049.188-.138.316-.242.316" transform="translate(-175.274 -398.088)" fill="#0083b9"/>
    <path id="Tracé_342" data-name="Tracé 342" d="M217.984,486.333H207.421a.422.422,0,0,0-.421.421v.421a.422.422,0,0,0,.421.421h10.563a.421.421,0,0,0,.421-.421v-.421a.421.421,0,0,0-.421-.421" transform="translate(-175.274 -411.795)" fill="#002d85"/>
    <path id="Tracé_343" data-name="Tracé 343" d="M218.125,488.711H207.281c-.1,0-.193-.128-.242-.316a1.267,1.267,0,0,0-.039.316c0,.349.126.632.281.632h10.844c.155,0,.281-.283.281-.632a1.267,1.267,0,0,0-.039-.316c-.049.188-.138.316-.242.316" transform="translate(-175.274 -413.54)" fill="#0083b9"/>
    <path id="Tracé_344" data-name="Tracé 344" d="M414,463.043h28.508a3.832,3.832,0,0,0,3.832-3.832V454h-23.3Z" transform="translate(-350.548 -384.417)" fill="#0083b9"/>
    <path id="Tracé_345" data-name="Tracé 345" d="M559.441,472.261a2.776,2.776,0,1,1-2.776-2.776,2.776,2.776,0,0,1,2.776,2.776" transform="translate(-468.997 -397.529)" fill="#1b3a8f"/>
    <path id="Tracé_346" data-name="Tracé 346" d="M559.441,467.261a2.776,2.776,0,1,1-2.776-2.776,2.776,2.776,0,0,1,2.776,2.776" transform="translate(-468.997 -393.295)" fill="#833d8f"/>
    <path id="Tracé_347" data-name="Tracé 347" d="M560.614,473.271a2.061,2.061,0,1,1,2.061-2.061,2.063,2.063,0,0,1-2.061,2.061m0-3.356a1.295,1.295,0,1,0,1.295,1.295,1.3,1.3,0,0,0-1.295-1.295" transform="translate(-472.946 -397.244)" fill="#751f81"/>
    <path id="Tracé_348" data-name="Tracé 348" d="M569.883,471.593a.383.383,0,0,1-.383-.383v-1.678a.383.383,0,1,1,.766,0v1.678a.383.383,0,0,1-.383.383" transform="translate(-482.215 -397.244)" fill="#751f81"/>
    <path id="Tracé_349" data-name="Tracé 349" d="M265.625,309.946a2.252,2.252,0,0,0,.235.142,1.97,1.97,0,0,0,.917.229h36.072a1.971,1.971,0,0,0,.917-.229,2.251,2.251,0,0,0,.235-.142,2.5,2.5,0,0,0,.324-.268,3.532,3.532,0,0,0,.975-2.439q0-.087,0-.175c0-.117-.01-.236-.023-.355l-.038-.355-1.308-12.179a3,3,0,0,0-1.836-2.641l-7.671-2.472c-.512-.165-1.031.224-1.178.879a30.638,30.638,0,0,1-5.3,11.74l-.4-2.017-1.1-5.5.049-.067,1.38-1.881h0a1.409,1.409,0,0,0,.117-.165l.017-.027a1.59,1.59,0,0,0,.09-.176l.013-.032a1.75,1.75,0,0,0,.068-.194l0-.013a1.88,1.88,0,0,0,.045-.214.044.044,0,0,1,0-.005,1.942,1.942,0,0,0,.019-.222c0-.006,0-.011,0-.017a1.952,1.952,0,0,0-.007-.225v0a1.852,1.852,0,0,0-.1-.452A1.648,1.648,0,0,0,288,290.2l-1.263-1.775a1.1,1.1,0,0,0-.931-.6h-1.995a1.1,1.1,0,0,0-.931.6l-1.263,1.775a1.658,1.658,0,0,0-.129.279,1.854,1.854,0,0,0-.1.452s0,0,0,0a1.963,1.963,0,0,0-.007.225c0,.006,0,.011,0,.017a1.982,1.982,0,0,0,.019.222v.005a1.88,1.88,0,0,0,.045.214l0,.013a1.737,1.737,0,0,0,.068.194l.013.032a1.6,1.6,0,0,0,.09.176l.017.027a1.463,1.463,0,0,0,.117.165h0l.753,1.026.676.921-1.506,7.512a30.637,30.637,0,0,1-5.3-11.74c-.147-.655-.667-1.043-1.178-.879l-7.671,2.472a3,3,0,0,0-1.836,2.641l-1.346,12.534a3.644,3.644,0,0,0,.952,2.969,2.489,2.489,0,0,0,.324.268" transform="translate(-223.813 -243.71)" fill="#751f81"/>
    <path id="Tracé_350" data-name="Tracé 350" d="M316.582,208.433l.6-.113a1.915,1.915,0,0,0,1.4-1.118,15.659,15.659,0,0,0,1.036,2.036q.216.356.449.695.311.452.65.869.254.312.524.6t.552.553q.094.088.19.173.287.254.588.48t.612.42q.208.13.421.244a6.16,6.16,0,0,0,2.936.779q.237,0,.471-.02t.465-.059q.231-.038.458-.1t.451-.131a6.66,6.66,0,0,0,.661-.26q.217-.1.43-.214c.115-.062.229-.128.342-.2.1-.058.191-.118.285-.18q.206-.137.406-.287.3-.226.588-.48.1-.085.19-.173.283-.263.552-.553.09-.1.178-.2.176-.2.346-.406.339-.416.65-.869.155-.226.3-.459a15.594,15.594,0,0,0,1.215-2.351,1.912,1.912,0,0,0,1.369,1.051l.6.113a1.917,1.917,0,0,0,2.239-1.529l.708-3.758H313.607l.736,3.9a1.917,1.917,0,0,0,2.239,1.529" transform="translate(-265.542 -171.888)" fill="#751f81"/>
    <path id="Tracé_351" data-name="Tracé 351" d="M382.109,277.222l-2.26,3.08a.984.984,0,0,1-1.586,0l-2.26-3.08a1.845,1.845,0,0,1-.139-2.024l1.263-1.775a1.1,1.1,0,0,1,.931-.6h1.994a1.1,1.1,0,0,1,.931.6l1.263,1.775a1.845,1.845,0,0,1-.139,2.024" transform="translate(-318.056 -231.01)" fill="#fff"/>
    <path id="Tracé_352" data-name="Tracé 352" d="M382.113,290.609l-2.26,3.08a.984.984,0,0,1-1.586,0l-2.26-3.08a1.555,1.555,0,0,1-.267-.476,1.84,1.84,0,0,0,.267,1.744l2.26,3.08a.984.984,0,0,0,1.586,0l2.26-3.08a1.84,1.84,0,0,0,.267-1.744,1.553,1.553,0,0,1-.267.476" transform="translate(-318.06 -245.665)" fill="#c7c9cb"/>
    <path id="Tracé_353" data-name="Tracé 353" d="M329.794,179.872c.308,1.492-.23,2.94-1.2,3.235s-2.011-.676-2.319-2.168.23-2.94,1.2-3.235,2.011.676,2.319,2.168" transform="translate(-276.192 -150.424)" fill="#fff"/>
    <path id="Tracé_354" data-name="Tracé 354" d="M328.593,192.951c-.972.295-2.011-.676-2.319-2.168-.024-.116-.042-.232-.056-.348a4.072,4.072,0,0,0,.056,1.329c.308,1.492,1.346,2.462,2.319,2.167.9-.272,1.423-1.524,1.259-2.887a2.145,2.145,0,0,1-1.259,1.906" transform="translate(-276.194 -161.249)" fill="#c7c9cb"/>
    <path id="Tracé_355" data-name="Tracé 355" d="M445.793,179.872c-.308,1.492.23,2.94,1.2,3.235s2.011-.676,2.319-2.168-.23-2.94-1.2-3.235-2.011.676-2.319,2.168" transform="translate(-377.395 -150.424)" fill="#fff"/>
    <path id="Tracé_356" data-name="Tracé 356" d="M449.317,190.784c-.308,1.492-1.346,2.462-2.319,2.168a2.146,2.146,0,0,1-1.259-1.907c-.165,1.363.362,2.615,1.259,2.887.972.295,2.011-.676,2.319-2.168a4.072,4.072,0,0,0,.056-1.328c-.014.115-.032.231-.056.348" transform="translate(-377.397 -161.249)" fill="#c7c9cb"/>
    <path id="Tracé_357" data-name="Tracé 357" d="M340.673,102.109H339.14c0-6.659-5-12.077-11.138-12.077s-11.137,5.418-11.137,12.077h-1.533c0-7.5,5.684-13.609,12.67-13.609s12.67,6.105,12.67,13.609" transform="translate(-267.003 -74.936)" fill="#fff"/>
    <path id="Tracé_358" data-name="Tracé 358" d="M356.585,123.074c0,5.591-4.1,12.43-9.153,12.43s-9.153-6.839-9.153-12.43,4.1-10.123,9.153-10.123,9.153,4.532,9.153,10.123" transform="translate(-286.432 -95.639)" fill="#fff"/>
    <path id="Tracé_359" data-name="Tracé 359" d="M347.432,184.116c-4.76,0-8.67-6.062-9.111-11.438q-.041.478-.042.969c0,5.591,4.1,12.43,9.153,12.43s9.153-6.839,9.153-12.43c0-.327-.015-.65-.042-.969-.441,5.375-4.352,11.438-9.111,11.438" transform="translate(-286.432 -146.212)" fill="#c7c9cb"/>
    <path id="Tracé_360" data-name="Tracé 360" d="M378.478,314.867h-8.629L373,299.124h2.319Z" transform="translate(-313.163 -253.278)" fill="#fff"/>
    <path id="Tracé_361" data-name="Tracé 361" d="M378.478,358.009l-1.59-7.934q-.336.421-.686.826l-1.387,1.595a.823.823,0,0,1-1.3,0l-1.387-1.595q-.351-.4-.686-.825l-1.59,7.934Z" transform="translate(-313.164 -296.421)" fill="#c7c9cb"/>
    <path id="Tracé_362" data-name="Tracé 362" d="M344.911,117.156a8.8,8.8,0,0,0,4.94,3.6,30.375,30.375,0,0,0,6.74,1.036c.054-5.64-4.064-10.132-9.152-10.132-5.054,0-9.152,4.532-9.152,10.122a11.214,11.214,0,0,0,3.834-1.5,9.067,9.067,0,0,0,2.79-3.13" transform="translate(-286.439 -94.55)" fill="#833d8f"/>
    <rect id="Rectangle_135" data-name="Rectangle 135" width="3.247" height="1.138" transform="translate(59.376 47.022)" fill="#c7c9cb"/>
    <path id="Tracé_363" data-name="Tracé 363" d="M303.932,285.808a3,3,0,0,0-1.836-2.641l-7.671-2.472c-.512-.165-1.031.224-1.178.879a29.971,29.971,0,0,1-6.395,13.086l-1.387,1.595a.823.823,0,0,1-1.3,0l-1.387-1.595a29.973,29.973,0,0,1-6.395-13.086c-.147-.655-.667-1.043-1.178-.879l-7.671,2.472a3,3,0,0,0-1.836,2.641l-1.346,12.534c-.2,1.906.94,3.607,2.428,3.607h36.072c1.488,0,2.633-1.7,2.428-3.607Z" transform="translate(-223.814 -237.642)" fill="#009cdc"/>
    <path id="Tracé_364" data-name="Tracé 364" d="M305.164,389.157a2.591,2.591,0,0,1-2.315,2.126H266.777a2.591,2.591,0,0,1-2.315-2.126l-.113,1.056c-.2,1.906.94,3.607,2.428,3.607h36.072c1.488,0,2.633-1.7,2.428-3.607Z" transform="translate(-223.813 -329.512)" fill="#0083b9"/>
    <path id="Tracé_365" data-name="Tracé 365" d="M398.375,204.374c-1.075,1.586-3.94,2.793-7.307,2.966a1.481,1.481,0,1,0,.189,1.116,13.306,13.306,0,0,0,6.239-1.775,16.082,16.082,0,0,0,.879-2.308" transform="translate(-328.815 -173.05)" fill="#c7c9cb"/>
    <path id="Tracé_366" data-name="Tracé 366" d="M391.3,215.674a1.482,1.482,0,1,1-1.482-1.482,1.482,1.482,0,0,1,1.482,1.482" transform="translate(-328.815 -181.364)" fill="#009cdc"/>
    <path id="Tracé_367" data-name="Tracé 367" d="M397.621,192.815a.562.562,0,1,1,0-1.123c4.66,0,8.6-2,8.6-4.358a.562.562,0,0,1,1.123,0c0,3.074-4.27,5.482-9.721,5.482" transform="translate(-336.203 -158.146)" fill="#009cdc"/>
    <path id="Tracé_368" data-name="Tracé 368" d="M451.036,178.029l-.6-.113a1.917,1.917,0,0,1-1.529-2.239l.779-4.134a1.917,1.917,0,0,1,2.239-1.529l.6.113a1.917,1.917,0,0,1,1.529,2.239l-.779,4.134a1.917,1.917,0,0,1-2.239,1.529" transform="translate(-380.076 -143.929)" fill="#009cdc"/>
    <path id="Tracé_369" data-name="Tracé 369" d="M316.156,178.976l.6-.113a1.917,1.917,0,0,0,1.529-2.239l-.779-4.134a1.917,1.917,0,0,0-2.239-1.529l-.6.113a1.917,1.917,0,0,0-1.529,2.239l.779,4.134a1.917,1.917,0,0,0,2.239,1.529" transform="translate(-265.116 -144.731)" fill="#009cdc"/>
  </g>
</svg>
