<svg xmlns="http://www.w3.org/2000/svg" xmlns:xlink="http://www.w3.org/1999/xlink" width="122" height="122" viewBox="0 0 122 122">
  <defs>
    <clipPath id="clip-path">
      <rect id="Rectangle_8" data-name="Rectangle 8" width="122" height="122" transform="translate(0.222 -0.092)" fill="none"/>
    </clipPath>
  </defs>
  <g id="icone_infogérence_" data-name="icone infogérence " transform="translate(-0.222 0.092)">
    <g id="Groupe_6" data-name="Groupe 6" clip-path="url(#clip-path)">
      <path id="Tracé_123" data-name="Tracé 123" d="M122,61A61,61,0,1,1,61,0a61,61,0,0,1,61,61" fill="#1e2d70"/>
      <path id="Tracé_124" data-name="Tracé 124" d="M159.219,106.445A52.775,52.775,0,1,1,106.444,53.67a52.775,52.775,0,0,1,52.775,52.775" transform="translate(-45.443 -45.444)" fill="#0a2449"/>
      <path id="Tracé_125" data-name="Tracé 125" d="M245.25,165.352l1.056,5.6a2.6,2.6,0,0,0,3.035,2.072l.814-.153a2.6,2.6,0,0,0,1.9-1.515q.044.1.089.208.159.366.33.726.333.7.712,1.361.079.137.159.273.313.53.655,1.033.166.245.339.484.274.378.564.737.371.46.767.885a10.009,10.009,0,0,0,7.171,3.578c4.653,0,8.707-4.275,10.831-9.392a2.592,2.592,0,0,0,1.856,1.425l.814.153a2.6,2.6,0,0,0,3.035-2.072l1.056-5.6a2.589,2.589,0,0,0-.421-1.964c-.125-10.057-7.779-18.2-17.171-18.2-9.455,0-17.148,8.249-17.174,18.4a2.59,2.59,0,0,0-.418,1.961m17.592-18.281c7.886,0,14.378,6.591,15.04,14.959l-.334-.063a2.6,2.6,0,0,0-2.317.715c-.334-7.238-5.752-12.877-12.388-12.877-6.654,0-12.085,5.795-12.391,13.07a2.594,2.594,0,0,0-2.314-.713l-.35.066c.574-8.463,7.107-15.159,15.055-15.159" transform="translate(-207.623 -122.77)" fill="#1e2d70"/>
      <path id="Tracé_126" data-name="Tracé 126" d="M253.205,404.245a16.366,16.366,0,0,0-27.7-11.808l-5.622-1.812c-.694-.223-1.4.3-1.6,1.191a41.53,41.53,0,0,1-7.19,15.914L210.55,405l-1.493-7.449,1.938-2.64c.035-.042.068-.086.1-.13.01-.015.02-.03.03-.045.02-.031.04-.062.059-.094s.021-.038.032-.057.031-.059.046-.089l.03-.065q.019-.043.037-.088c.009-.023.019-.046.027-.07s.02-.058.029-.087.016-.05.024-.075.014-.054.02-.082q.023-.1.04-.193c0-.015.006-.029.008-.043.006-.038.01-.077.014-.115,0-.017,0-.034.005-.051,0-.039.005-.079.007-.118,0-.016,0-.031,0-.047,0-.041,0-.082,0-.124,0-.012,0-.025,0-.037,0-.044,0-.089-.008-.133l0-.015a2.406,2.406,0,0,0-.308-.985l-1.712-2.406a1.5,1.5,0,0,0-1.263-.811h-2.7a1.5,1.5,0,0,0-1.262.811l-1.712,2.406a2.242,2.242,0,0,0-.174.379h0a2.518,2.518,0,0,0-.134.606l0,.015c0,.044-.007.089-.008.133q0,.019,0,.038c0,.041,0,.082,0,.124,0,.016,0,.031,0,.047,0,.04,0,.079.007.118,0,.017,0,.034.005.051,0,.038.008.077.013.115,0,.015.006.03.008.045q.016.1.039.191c.007.027.013.055.02.082s.016.05.024.075.019.059.029.087.018.047.027.07.024.059.037.088l.03.065c.015.03.03.06.046.089s.021.039.032.057.039.063.059.094c.01.015.019.031.03.045.031.045.064.089.1.13l1.532,2.087.406.553-2.041,10.183a41.531,41.531,0,0,1-7.19-15.914c-.2-.888-.9-1.414-1.6-1.191l-10.4,3.351a4.073,4.073,0,0,0-2.488,3.579l-1.671,15.56-.154,1.431a5.621,5.621,0,0,0-.031.718A4.492,4.492,0,0,0,181,419.035q.08.048.162.091a2.815,2.815,0,0,0,.336.148,2.633,2.633,0,0,0,.906.161h45.559a16.368,16.368,0,0,0,25.238-13.755c0-.241-.006-.48-.017-.718.01-.238.017-.477.017-.718" transform="translate(-151.637 -328.429)" fill="#1e2d70"/>
      <path id="Tracé_127" data-name="Tracé 127" d="M338.74,380.805l-3.064,4.174a1.334,1.334,0,0,1-2.149,0l-3.064-4.174a2.5,2.5,0,0,1-.188-2.743l1.712-2.406a1.5,1.5,0,0,1,1.262-.811h2.7a1.5,1.5,0,0,1,1.262.811l1.712,2.406a2.5,2.5,0,0,1-.188,2.743" transform="translate(-279.382 -317.393)" fill="#009cdc"/>
      <path id="Tracé_128" data-name="Tracé 128" d="M338.745,398.951l-3.064,4.174a1.334,1.334,0,0,1-2.149,0l-3.064-4.174a2.107,2.107,0,0,1-.362-.645,2.494,2.494,0,0,0,.362,2.365l3.064,4.174a1.334,1.334,0,0,0,2.149,0l3.064-4.174a2.494,2.494,0,0,0,.362-2.365,2.108,2.108,0,0,1-.362.645" transform="translate(-279.387 -337.258)" fill="#0083b9"/>
      <path id="Tracé_129" data-name="Tracé 129" d="M267.827,248.849c.418,2.022-.312,3.985-1.63,4.385s-2.725-.916-3.143-2.938.312-3.986,1.63-4.385,2.725.916,3.143,2.938" transform="translate(-222.636 -208.16)" fill="#fff"/>
      <path id="Tracé_130" data-name="Tracé 130" d="M266.2,266.577c-1.318.4-2.725-.916-3.143-2.938-.032-.158-.057-.315-.076-.471a5.524,5.524,0,0,0,.076,1.8c.418,2.022,1.825,3.338,3.143,2.938,1.215-.368,1.93-2.066,1.706-3.914a2.907,2.907,0,0,1-1.706,2.584" transform="translate(-222.638 -222.832)" fill="#c7c9cb"/>
      <path id="Tracé_131" data-name="Tracé 131" d="M425.062,248.849c-.418,2.022.312,3.985,1.63,4.385s2.725-.916,3.143-2.938-.312-3.986-1.63-4.385-2.725.916-3.143,2.938" transform="translate(-359.814 -208.16)" fill="#fff"/>
      <path id="Tracé_132" data-name="Tracé 132" d="M429.84,263.638c-.418,2.022-1.825,3.338-3.143,2.938a2.908,2.908,0,0,1-1.706-2.584c-.223,1.848.491,3.545,1.706,3.914,1.318.4,2.725-.916,3.143-2.938a5.523,5.523,0,0,0,.076-1.8c-.019.156-.044.314-.076.471" transform="translate(-359.818 -222.832)" fill="#c7c9cb"/>
      <path id="Tracé_133" data-name="Tracé 133" d="M282.575,143.442H280.5c0-9.027-6.773-16.37-15.1-16.37s-15.1,7.344-15.1,16.37h-2.077c0-10.172,7.7-18.448,17.174-18.448s17.174,8.276,17.174,18.448" transform="translate(-210.181 -105.836)" fill="#fff"/>
      <path id="Tracé_134" data-name="Tracé 134" d="M304.144,171.859c0,7.579-5.555,16.849-12.407,16.849s-12.407-9.27-12.407-16.849,5.555-13.722,12.407-13.722,12.407,6.144,12.407,13.722" transform="translate(-236.517 -133.9)" fill="#fff"/>
      <path id="Tracé_135" data-name="Tracé 135" d="M291.736,254.6c-6.452,0-11.752-8.218-12.35-15.5-.037.433-.057.871-.057,1.314,0,7.579,5.555,16.849,12.407,16.849s12.407-9.27,12.407-16.849c0-.443-.02-.881-.057-1.314-.6,7.286-5.9,15.5-12.35,15.5" transform="translate(-236.517 -202.449)" fill="#c7c9cb"/>
      <path id="Tracé_136" data-name="Tracé 136" d="M333.818,431.833h-11.7l4.277-21.339h3.144Z" transform="translate(-272.749 -347.578)" fill="#009cdc"/>
      <path id="Tracé_137" data-name="Tracé 137" d="M333.817,490.312l-2.155-10.754q-.455.571-.93,1.119l-1.88,2.162a1.115,1.115,0,0,1-1.766,0l-1.88-2.162q-.476-.547-.93-1.119l-2.155,10.754Z" transform="translate(-272.749 -406.057)" fill="#0083b9"/>
      <path id="Tracé_138" data-name="Tracé 138" d="M288.317,163.837s1.733,3.23,6.7,4.884a41.15,41.15,0,0,0,9.136,1.4c.073-7.645-5.509-13.734-12.405-13.734-6.851,0-12.406,6.143-12.406,13.72a15.2,15.2,0,0,0,5.2-2.033,12.291,12.291,0,0,0,3.781-4.243" transform="translate(-236.524 -132.422)" fill="#009cdc"/>
      <rect id="Rectangle_4" data-name="Rectangle 4" width="4.401" height="1.542" transform="translate(53.019 64.51)" fill="#0083b9"/>
      <path id="Tracé_139" data-name="Tracé 139" d="M232.771,392.444a4.073,4.073,0,0,0-2.488-3.579l-10.4-3.351c-.694-.223-1.4.3-1.6,1.191a40.626,40.626,0,0,1-8.668,17.738l-1.88,2.162a1.115,1.115,0,0,1-1.766,0l-1.88-2.162a40.626,40.626,0,0,1-8.668-17.738c-.2-.888-.9-1.414-1.6-1.191l-10.4,3.351a4.073,4.073,0,0,0-2.488,3.579l-1.825,16.99c-.277,2.584,1.274,4.89,3.292,4.89h48.9c2.017,0,3.569-2.305,3.292-4.89Z" transform="translate(-151.636 -326.383)" fill="#833d8f"/>
      <path id="Tracé_140" data-name="Tracé 140" d="M234.441,532.533a3.512,3.512,0,0,1-3.138,2.882h-48.9a3.512,3.512,0,0,1-3.138-2.882l-.154,1.431c-.277,2.584,1.274,4.89,3.292,4.89h48.9c2.017,0,3.569-2.305,3.291-4.89Z" transform="translate(-151.636 -450.912)" fill="#751f81"/>
      <path id="Tracé_141" data-name="Tracé 141" d="M360.789,282.06c-1.457,2.149-5.341,3.786-9.9,4.021a2.007,2.007,0,1,0,.257,1.513,18.035,18.035,0,0,0,8.457-2.406,21.811,21.811,0,0,0,1.191-3.128" transform="translate(-293.965 -238.829)" fill="#c7c9cb"/>
      <path id="Tracé_142" data-name="Tracé 142" d="M351.194,297.376a2.008,2.008,0,1,1-2.008-2.008,2.008,2.008,0,0,1,2.008,2.008" transform="translate(-293.966 -250.097)" fill="#002d85"/>
      <path id="Tracé_143" data-name="Tracé 143" d="M359.765,266.391a.761.761,0,0,1,0-1.523c6.317,0,11.654-2.705,11.654-5.908a.761.761,0,1,1,1.523,0c0,4.166-5.788,7.43-13.177,7.43" transform="translate(-303.98 -218.625)" fill="#002d85"/>
      <path id="Tracé_144" data-name="Tracé 144" d="M432.17,246.35l-.814-.153a2.6,2.6,0,0,1-2.072-3.035l1.056-5.6a2.6,2.6,0,0,1,3.035-2.072l.814.153a2.6,2.6,0,0,1,2.072,3.035l-1.056,5.6a2.6,2.6,0,0,1-3.035,2.072" transform="translate(-363.45 -199.355)" fill="#1b3a8f"/>
      <path id="Tracé_145" data-name="Tracé 145" d="M249.341,247.633l.814-.153a2.6,2.6,0,0,0,2.072-3.035l-1.056-5.6a2.6,2.6,0,0,0-3.035-2.072l-.814.153a2.6,2.6,0,0,0-2.072,3.035l1.056,5.6a2.6,2.6,0,0,0,3.035,2.072" transform="translate(-207.622 -200.441)" fill="#1b3a8f"/>
      <path id="Tracé_146" data-name="Tracé 146" d="M449.118,413.259c0,.241.006.48.017.718-.01.238-.017.477-.017.718a16.325,16.325,0,0,0,5.483,12.222h5.349c2.017,0,3.569-2.305,3.291-4.89l-1.824-16.99a4.073,4.073,0,0,0-2.488-3.579l-3.485-1.123a16.338,16.338,0,0,0-6.326,12.925" transform="translate(-380.282 -338.975)" fill="#751f81"/>
      <path id="Tracé_147" data-name="Tracé 147" d="M481.851,393.612a16.366,16.366,0,1,1-16.366-16.366,16.366,16.366,0,0,1,16.366,16.366" transform="translate(-380.282 -319.426)" fill="#c7c9cb"/>
      <path id="Tracé_148" data-name="Tracé 148" d="M481.851,384.245a16.366,16.366,0,1,1-16.366-16.366,16.366,16.366,0,0,1,16.366,16.366" transform="translate(-380.282 -311.495)" fill="#fff"/>
      <path id="Tracé_149" data-name="Tracé 149" d="M492.881,397.713a13.928,13.928,0,1,1-13.928-13.928,13.928,13.928,0,0,1,13.928,13.928" transform="translate(-393.75 -324.963)" fill="#c7c9cb"/>
      <path id="Tracé_150" data-name="Tracé 150" d="M498.307,404.337a12.729,12.729,0,1,1-12.729-12.729,12.729,12.729,0,0,1,12.729,12.729" transform="translate(-400.375 -331.587)" fill="#009cdc"/>
      <path id="Tracé_151" data-name="Tracé 151" d="M485.576,393.044a12.73,12.73,0,0,1,12.709,12.012c.013-.238.021-.477.021-.718a12.729,12.729,0,1,0-25.459,0c0,.241.007.48.021.718a12.73,12.73,0,0,1,12.709-12.012" transform="translate(-400.374 -331.587)" fill="#0083b9"/>
      <path id="Tracé_152" data-name="Tracé 152" d="M515.448,432.28l1.5,1.5a.52.52,0,0,0,.736,0l2.692-2.692a.52.52,0,0,0,0-.736l-.689-.689-.812-.812a.52.52,0,0,0-.736,0l-.3.3-2.38-2.38a2.963,2.963,0,0,0-3.681-.407l-.01.006c-.058.037-.115.076-.17.117l-.005,0c-.049.037-.1.075-.144.116l-.035.03c-.049.043-.1.087-.144.134L513.5,429l-3.075,3.075-2.052-2.052.1-.425a3.493,3.493,0,0,0-3.636-4.257l-.085.006-.084.009c-.063.007-.127.015-.191.027l-.278.278,1.2,1.891a1.038,1.038,0,0,1,.054.1l.013.028c.012.025.022.051.032.077l.01.027a1.063,1.063,0,0,1,.049.215s0,.01,0,.015c0,.034.006.068.006.1,0,0,0,.007,0,.01a1.061,1.061,0,0,1-.025.226l0,.007c-.008.034-.017.067-.028.1a1.061,1.061,0,0,1-.2.362c-.017.019-.033.038-.052.056s-.039.037-.06.055l0,0a1.063,1.063,0,0,1-1.26.088l-1.891-1.2-.278.278a3.281,3.281,0,0,0,4.2,4.05l.442-.15,2.052,2.052-.492.492-1.431,1.431-.171-.171a.528.528,0,0,0-.746,0l-3.882,3.882a.528.528,0,0,0,0,.746l1.148,1.148.661.661a.528.528,0,0,0,.746,0l3.882-3.882a.528.528,0,0,0,0-.746l-.171-.171,1.923-1.923,2.372,2.372h0l-.15.442a3.281,3.281,0,0,0,4.05,4.2l.278-.278-1.2-1.891a1.064,1.064,0,0,1,.146-1.323c.025-.025.05-.047.077-.069s.049-.038.074-.056l0,0c.024-.017.049-.032.075-.047l0,0c.025-.014.051-.027.077-.039l0,0q.04-.018.08-.032h0l.023-.007c.03-.01.061-.018.092-.026l.027-.006c.027-.006.054-.01.082-.013l.027,0a1.043,1.043,0,0,1,.1-.005h.01c.034,0,.068,0,.1.006l.015,0a1.061,1.061,0,0,1,.215.049l.027.01c.026.009.052.02.077.032l.028.013a1.037,1.037,0,0,1,.1.054l1.891,1.2.278-.278c.011-.064.019-.128.026-.191,0-.028.006-.056.009-.084s0-.057.006-.085a3.493,3.493,0,0,0-4.258-3.636l-.426.1-2.372-2.372,3.075-3.075.783.783-.3.3a.52.52,0,0,0,0,.736" transform="translate(-424.698 -360.138)" fill="#0083b9"/>
      <path id="Tracé_164" data-name="Tracé 164" d="M0,0H11.312V2.074H0Z" transform="translate(81.189 75.483) rotate(-45)" fill="#1b3a8f"/>
      <path id="Tracé_165" data-name="Tracé 165" d="M0,0H11.312V.888H0Z" transform="translate(82.028 76.322) rotate(-45)" fill="#002d85"/>
      <path id="Tracé_153" data-name="Tracé 153" d="M501.728,490.221l3.882-3.882a.528.528,0,0,1,.746,0l1.809,1.809a.528.528,0,0,1,0,.746l-3.882,3.882a.528.528,0,0,1-.746,0l-1.809-1.809a.527.527,0,0,1,0-.746" transform="translate(-424.698 -411.667)" fill="#1b3a8f"/>
      <path id="Tracé_154" data-name="Tracé 154" d="M515.364,495.346l-.661-.661a.528.528,0,0,1,0,.746l-3.882,3.882a.528.528,0,0,1-.746,0l.661.661a.528.528,0,0,0,.746,0l3.882-3.882a.528.528,0,0,0,0-.746" transform="translate(-431.896 -418.865)" fill="#002d85"/>
      <path id="Tracé_155" data-name="Tracé 155" d="M569.327,428l-4.475-4.475h0a2.962,2.962,0,0,1,4.189,0l2.38,2.38Z" transform="translate(-478.278 -357.879)" fill="#1b3a8f"/>
      <path id="Tracé_156" data-name="Tracé 156" d="M564.852,425.5l4.475,4.475.6-.6-4.388-4.388a2.961,2.961,0,0,0-.683.51" transform="translate(-478.278 -359.856)" fill="#002d85"/>
      <path id="Tracé_157" data-name="Tracé 157" d="M592.76,445.99l-1.5-1.5a.52.52,0,0,1,0-.736l2.692-2.692a.52.52,0,0,1,.736,0l1.5,1.5a.52.52,0,0,1,0,.736L593.5,445.99a.52.52,0,0,1-.736,0" transform="translate(-500.508 -373.331)" fill="#1b3a8f"/>
      <path id="Tracé_158" data-name="Tracé 158" d="M597.03,447.891l-.689-.689a.521.521,0,0,1,0,.736l-2.692,2.692a.52.52,0,0,1-.736,0l-.812-.812,1.5,1.5a.52.52,0,0,0,.736,0l2.692-2.692a.52.52,0,0,0,0-.736" transform="translate(-501.35 -378.66)" fill="#002d85"/>
      <path id="Tracé_166" data-name="Tracé 166" d="M0,0H2.789V2.074H0Z" transform="translate(83.26 73.412) rotate(-45)" fill="#002d85"/>
      <path id="Tracé_159" data-name="Tracé 159" d="M514.909,429.377l-.425.1-5.89-5.89.1-.425a3.493,3.493,0,0,0-4-4.216l-.278.278,1.2,1.891a1.064,1.064,0,0,1-1.468,1.468l-1.891-1.2-.278.278a3.281,3.281,0,0,0,4.2,4.05l.442-.15,5.89,5.89-.15.442a3.281,3.281,0,0,0,4.05,4.2l.278-.278-1.2-1.891a1.064,1.064,0,0,1,1.468-1.468l1.891,1.2.278-.278a3.493,3.493,0,0,0-4.216-4" transform="translate(-424.921 -354.687)" fill="#833d8f"/>
      <path id="Tracé_160" data-name="Tracé 160" d="M525.149,442.372l0,0,0,0Z" transform="translate(-444.66 -374.568)" fill="#0083b9"/>
      <path id="Tracé_161" data-name="Tracé 161" d="M520.422,421.735a1.061,1.061,0,0,0,.109-1.279l-.988-1.555a3.561,3.561,0,0,0-.6.05l-.278.278,1.2,1.891a1.056,1.056,0,0,1,.162.624,1.074,1.074,0,0,1-.013.12c0,.015,0,.03-.007.045a1.06,1.06,0,0,1-.236.478l.585-.583.028-.025c.006-.006.01-.013.016-.019l.024-.024Z" transform="translate(-439.17 -354.697)" fill="#751f81"/>
      <path id="Tracé_162" data-name="Tracé 162" d="M513.026,444.963l.15-.442-5.89-5.89-.442.15a3.282,3.282,0,0,1-4.316-3.492l-.27-.172-.278.278a3.281,3.281,0,0,0,4.2,4.05l.442-.15,5.89,5.89-.15.442a3.281,3.281,0,0,0,4.05,4.2l.278-.278-.171-.27a3.282,3.282,0,0,1-3.492-4.316" transform="translate(-424.921 -368.428)" fill="#751f81"/>
      <path id="Tracé_163" data-name="Tracé 163" d="M594.26,502.106a1.063,1.063,0,0,0-1.308.133v0l-.011.011,0,0h0l0,.006-.583.59h0a1.055,1.055,0,0,1,.476-.221l.039-.006a1.047,1.047,0,0,1,.731.151l1.891,1.2.278-.278a3.567,3.567,0,0,0,.05-.6Z" transform="translate(-501.56 -425.009)" fill="#751f81"/>
    </g>
  </g>
</svg>
