<svg id="icone_VPS_haute_capacité" data-name="icone VPS haute capacité" xmlns="http://www.w3.org/2000/svg" xmlns:xlink="http://www.w3.org/1999/xlink" width="122" height="122" viewBox="0 0 122 122">
  <defs>
    <clipPath id="clip-path">
      <rect id="Rectangle_126" data-name="Rectangle 126" width="122" height="122" fill="none"/>
    </clipPath>
  </defs>
  <g id="Groupe_10" data-name="Groupe 10" clip-path="url(#clip-path)">
    <path id="Tracé_208" data-name="Tracé 208" d="M122,61A61,61,0,1,1,61,0a61,61,0,0,1,61,61" fill="#1e2d70"/>
    <path id="Tracé_209" data-name="Tracé 209" d="M159.218,106.444A52.774,52.774,0,1,1,106.443,53.67a52.774,52.774,0,0,1,52.774,52.774" transform="translate(-45.443 -45.444)" fill="#0a2449"/>
    <path id="Tracé_210" data-name="Tracé 210" d="M196.524,320.934l-3.657-30.026c0-.113-.006-.224-.013-.335,0-.024,0-.048-.006-.072-.009-.108-.022-.215-.038-.321,0-.016-.006-.031-.008-.047q-.025-.146-.059-.288l-.012-.055q-.039-.155-.088-.306l-.019-.057c-.033-.1-.069-.2-.109-.292l0-.013c-.042-.1-.088-.2-.137-.294l-.025-.049c-.05-.1-.1-.192-.16-.284h0c-.058-.094-.119-.185-.183-.275l-.02-.028q-.1-.134-.2-.261l-.012-.014a4.65,4.65,0,0,0-.478-.485l-.014-.012a4.636,4.636,0,0,0-.552-.412l-.006,0a4.6,4.6,0,0,0-2.468-.715h-24.13a4.6,4.6,0,0,0-2.468.715l-.006,0a4.639,4.639,0,0,0-.552.412l-.014.012a4.649,4.649,0,0,0-.478.485l-.013.014q-.107.127-.2.261l-.019.028c-.064.09-.126.181-.184.275h0c-.057.093-.11.188-.16.285l-.025.048c-.049.1-.1.194-.137.295l0,.012c-.04.1-.076.193-.109.292l-.019.056q-.049.151-.088.306c0,.018-.008.036-.012.054q-.034.143-.059.289c0,.016-.006.031-.008.047-.017.106-.029.213-.039.321,0,.024,0,.048-.006.072-.008.111-.013.223-.013.336l-.552,4.53H145.373l-.552-4.53c0-.113-.005-.225-.013-.336,0-.024,0-.048-.006-.072-.009-.108-.022-.215-.039-.321,0-.016-.006-.031-.008-.047q-.025-.146-.059-.289c0-.018-.008-.036-.012-.054q-.039-.155-.088-.306l-.019-.056c-.033-.1-.069-.2-.109-.292l0-.013c-.042-.1-.088-.2-.137-.294l-.025-.048c-.05-.1-.1-.192-.16-.285h0c-.058-.094-.12-.186-.184-.275l-.02-.028q-.1-.134-.2-.261l-.013-.014a4.663,4.663,0,0,0-.478-.485l-.014-.012a4.625,4.625,0,0,0-.552-.412l-.006,0a4.6,4.6,0,0,0-2.468-.715h-24.13A4.6,4.6,0,0,0,113.6,287l-.006,0a4.625,4.625,0,0,0-.552.412l-.014.012a4.655,4.655,0,0,0-.478.485l-.012.014q-.107.127-.2.261l-.02.028c-.064.09-.126.181-.184.275h0q-.085.139-.16.285l-.025.048c-.049.1-.095.194-.137.295l0,.012c-.04.1-.076.193-.109.292-.006.019-.013.037-.019.056q-.049.151-.088.306l-.012.054q-.034.143-.058.289c0,.016-.006.031-.008.047-.017.106-.029.213-.039.321,0,.024,0,.048-.005.072-.008.111-.013.223-.013.336L107.8,320.934a4.62,4.62,0,0,0,4.484,5.729h31.714a4.62,4.62,0,0,0,4.484-5.729l-1.838-15.09-.373-3.065h11.787l-.137,1.123-2.074,17.032a4.62,4.62,0,0,0,4.484,5.729h31.714a4.62,4.62,0,0,0,4.484-5.729" transform="translate(-91.16 -242.411)" fill="#1e2d70"/>
    <path id="Tracé_211" data-name="Tracé 211" d="M161.15,275.528H137.02a4.619,4.619,0,1,1,0-9.238h24.13a4.619,4.619,0,1,1,0,9.238" transform="translate(-112.108 -225.477)" fill="#009cdc"/>
    <path id="Tracé_212" data-name="Tracé 212" d="M144.82,296.427l3.792,31.136H107.66l3.792-31.136Z" transform="translate(-91.159 -250.994)" fill="#009cdc"/>
    <path id="Tracé_213" data-name="Tracé 213" d="M114.542,268.5h0c0-.186.006-.37.017-.552a4.62,4.62,0,0,0-3.106,4.364l-3.792,31.136h4.188Z" transform="translate(-91.159 -226.884)" fill="#0083b9"/>
    <path id="Tracé_214" data-name="Tracé 214" d="M329.864,268.5h0l2.694,34.948h4.188l-3.792-31.136a4.62,4.62,0,0,0-3.106-4.364c.011.182.017.366.017.552" transform="translate(-279.293 -226.884)" fill="#0083b9"/>
    <path id="Tracé_215" data-name="Tracé 215" d="M143.993,478.675H112.279a4.619,4.619,0,1,1,0-9.238h31.714a4.619,4.619,0,1,1,0,9.238" transform="translate(-91.159 -397.488)" fill="#002d85"/>
    <path id="Tracé_216" data-name="Tracé 216" d="M154.57,486.385h-31.2a2.915,2.915,0,0,1,0-5.83h31.2a2.915,2.915,0,0,1,0,5.83" transform="translate(-101.993 -406.902)" fill="#1b3a8f"/>
    <path id="Tracé_217" data-name="Tracé 217" d="M154.57,498.2h-31.2a2.915,2.915,0,0,1-2.859-2.345,2.915,2.915,0,0,0,2.859,3.485h31.2a2.915,2.915,0,0,0,2.859-3.485,2.915,2.915,0,0,1-2.859,2.345" transform="translate(-101.993 -419.855)" fill="#0083b9"/>
    <path id="Tracé_218" data-name="Tracé 218" d="M299.415,434.5a1.959,1.959,0,1,1,2.319-1.926,2.153,2.153,0,0,1-2.319,1.926" transform="translate(-251.561 -364.646)" fill="#fff"/>
    <path id="Tracé_219" data-name="Tracé 219" d="M305.755,439.81a.99.99,0,1,1,1.172-.973,1.087,1.087,0,0,1-1.172.973" transform="translate(-257.901 -370.754)" fill="#009cdc"/>
    <path id="Tracé_220" data-name="Tracé 220" d="M299.415,431.22a2.228,2.228,0,0,1,2.291,1.641,1.6,1.6,0,0,0,.028-.285,2.359,2.359,0,0,0-4.638,0,1.611,1.611,0,0,0,.028.285,2.228,2.228,0,0,1,2.291-1.641" transform="translate(-251.561 -364.646)" fill="#c7c9cb"/>
    <path id="Tracé_221" data-name="Tracé 221" d="M474.634,275.528H450.5a4.619,4.619,0,0,1,0-9.238h24.13a4.619,4.619,0,1,1,0,9.238" transform="translate(-377.546 -225.477)" fill="#833d8f"/>
    <path id="Tracé_222" data-name="Tracé 222" d="M458.3,296.427l3.792,31.136H421.144l3.792-31.136Z" transform="translate(-356.597 -250.994)" fill="#833d8f"/>
    <path id="Tracé_223" data-name="Tracé 223" d="M428.027,268.5h0c0-.186.006-.37.017-.552a4.62,4.62,0,0,0-3.106,4.364l-3.792,31.136h4.188Z" transform="translate(-356.598 -226.884)" fill="#751f81"/>
    <path id="Tracé_224" data-name="Tracé 224" d="M643.349,268.5h0l2.693,34.948h4.188l-3.792-31.136a4.62,4.62,0,0,0-3.106-4.364c.011.182.017.366.017.552" transform="translate(-544.731 -226.884)" fill="#751f81"/>
    <path id="Tracé_225" data-name="Tracé 225" d="M457.477,478.675H425.763a4.619,4.619,0,1,1,0-9.238h31.714a4.619,4.619,0,1,1,0,9.238" transform="translate(-356.597 -397.488)" fill="#751f81"/>
    <path id="Tracé_226" data-name="Tracé 226" d="M468.054,486.385h-31.2a2.915,2.915,0,1,1,0-5.83h31.2a2.915,2.915,0,0,1,0,5.83" transform="translate(-367.431 -406.902)" fill="#0083b9"/>
    <path id="Tracé_227" data-name="Tracé 227" d="M468.054,498.2h-31.2A2.915,2.915,0,0,1,434,495.853a2.915,2.915,0,0,0,2.859,3.485h31.2a2.915,2.915,0,0,0,2.859-3.485,2.915,2.915,0,0,1-2.859,2.345" transform="translate(-367.431 -419.855)" fill="#833d8f"/>
    <path id="Tracé_228" data-name="Tracé 228" d="M612.9,434.5a1.959,1.959,0,1,1,2.319-1.926A2.153,2.153,0,0,1,612.9,434.5" transform="translate(-516.999 -364.646)" fill="#fff"/>
    <path id="Tracé_229" data-name="Tracé 229" d="M619.239,439.81a.99.99,0,1,1,1.172-.973,1.087,1.087,0,0,1-1.172.973" transform="translate(-523.338 -370.754)" fill="#1b3a8f"/>
    <path id="Tracé_230" data-name="Tracé 230" d="M612.9,431.22a2.228,2.228,0,0,1,2.291,1.641,1.6,1.6,0,0,0,.028-.285,2.359,2.359,0,0,0-4.638,0,1.611,1.611,0,0,0,.028.285,2.228,2.228,0,0,1,2.291-1.641" transform="translate(-516.999 -364.646)" fill="#c7c9cb"/>
    <path id="Tracé_231" data-name="Tracé 231" d="M251.278,316.007h-7.094v-5.425l-11.888,8.232v1.728l11.888,8.232v-5.425h7.988Z" transform="translate(-196.692 -262.98)" fill="#0083b9"/>
    <path id="Tracé_232" data-name="Tracé 232" d="M442,328.773l11.888-8.232v-1.728L442,310.582v5.425h-7.094l-.894,7.341H442v5.425Z" transform="translate(-367.496 -262.98)" fill="#751f81"/>
    <rect id="Rectangle_124" data-name="Rectangle 124" width="29.104" height="5.613" transform="translate(46.448 51.69)" fill="#c7c9cb"/>
    <rect id="Rectangle_125" data-name="Rectangle 125" width="29.104" height="5.613" transform="translate(46.448 49.962)" fill="#fff"/>
    <path id="Tracé_233" data-name="Tracé 233" d="M486.138,318.321V301.857l11.888,6.5v1.728Z" transform="translate(-411.629 -255.593)" fill="#c7c9cb"/>
    <path id="Tracé_234" data-name="Tracé 234" d="M244.184,301.857v16.464L232.3,310.089v-1.728Z" transform="translate(-196.692 -255.592)" fill="#c7c9cb"/>
    <path id="Tracé_235" data-name="Tracé 235" d="M486.138,307.046V290.582l11.888,8.232Z" transform="translate(-411.629 -246.046)" fill="#fff"/>
    <path id="Tracé_236" data-name="Tracé 236" d="M244.184,290.582v16.464L232.3,298.814Z" transform="translate(-196.692 -246.045)" fill="#fff"/>
  </g>
</svg>
