<svg id="icone_maintenance" data-name="icone maintenance" xmlns="http://www.w3.org/2000/svg" xmlns:xlink="http://www.w3.org/1999/xlink" width="122" height="122" viewBox="0 0 122 122">
  <defs>
    <clipPath id="clip-path">
      <rect id="Rectangle_130" data-name="Rectangle 130" width="122" height="122" fill="none"/>
    </clipPath>
  </defs>
  <g id="Groupe_12" data-name="Groupe 12" clip-path="url(#clip-path)">
    <path id="Tracé_237" data-name="Tracé 237" d="M122,61A61,61,0,1,1,61,0a61,61,0,0,1,61,61" fill="#1e2d70"/>
    <path id="Tracé_238" data-name="Tracé 238" d="M159.218,106.444A52.774,52.774,0,1,1,106.443,53.67a52.774,52.774,0,0,1,52.774,52.774" transform="translate(-45.443 -45.444)" fill="#0a2449"/>
    <path id="Tracé_239" data-name="Tracé 239" d="M276.381,297.418a22.224,22.224,0,1,1,21.038-21.038,22.226,22.226,0,0,1-21.038,21.038" transform="translate(-214.224 -214.224)" fill="#0a2449"/>
    <path id="Tracé_240" data-name="Tracé 240" d="M225.214,206.257a1.706,1.706,0,0,0-.32-.9c-.028-.038-.057-.076-.089-.112s-.064-.072-.1-.106l-2.6-2.552-5.155-5.056a1.7,1.7,0,0,1-.509-1.215,30.127,30.127,0,0,0,0-11.32,1.7,1.7,0,0,1,.509-1.215l7.757-7.608a1.707,1.707,0,0,0,.283-2.072l-2.155-3.732-2.488-4.309a1.707,1.707,0,0,0-1.936-.791l-10.471,2.915a1.658,1.658,0,0,1-.641.052,1.677,1.677,0,0,1-.664-.218,29.909,29.909,0,0,0-9.814-5.67,1.625,1.625,0,0,1-.634-.656,1.713,1.713,0,0,1-.151-.386l-.9-3.507-1.807-7.014a1.707,1.707,0,0,0-1.653-1.281h-9.285q-.073,0-.145.006a1.713,1.713,0,0,0-1.508,1.275l-2.71,10.521a1.72,1.72,0,0,1-.192.453,1.681,1.681,0,0,1-.593.589,29.911,29.911,0,0,0-9.814,5.67h0a1.721,1.721,0,0,1-.69.221,1.716,1.716,0,0,1-.615-.056l-10.471-2.915a1.707,1.707,0,0,0-1.677.45l0,.006a1.7,1.7,0,0,0-.254.336l-.622,1.077-4.021,6.964a1.707,1.707,0,0,0,.283,2.072l7.757,7.608a1.7,1.7,0,0,1,.509,1.215,30.12,30.12,0,0,0,0,11.32,1.7,1.7,0,0,1-.509,1.215l-.075.074-7.682,7.534a1.707,1.707,0,0,0-.283,2.072l4.643,8.041a1.706,1.706,0,0,0,1.936.791l10.471-2.915a1.7,1.7,0,0,1,1.305.165,29.911,29.911,0,0,0,9.814,5.67,1.7,1.7,0,0,1,.785,1.042l1.11,4.31,1.6,6.211a1.717,1.717,0,0,0,.963,1.136,1.7,1.7,0,0,0,.545.139q.072.006.145.006h9.285a1.7,1.7,0,0,0,.751-.175q.057-.028.111-.06a1.72,1.72,0,0,0,.151-.1l.049-.037a1.726,1.726,0,0,0,.138-.124,1.685,1.685,0,0,0,.127-.139l.035-.046a1.7,1.7,0,0,0,.29-.6l2.71-10.521a1.712,1.712,0,0,1,.531-.863,1.684,1.684,0,0,1,.254-.178,29.912,29.912,0,0,0,9.814-5.67,1.7,1.7,0,0,1,1.305-.165l10.471,2.915a1.706,1.706,0,0,0,1.936-.791l4.643-8.041a1.7,1.7,0,0,0,.226-.945s0-.009,0-.014m-18.112-15.6a20.071,20.071,0,1,1-20.071-20.071A20.071,20.071,0,0,1,207.1,190.661" transform="translate(-126.031 -126.596)" fill="#1e2d70"/>
    <path id="Tracé_241" data-name="Tracé 241" d="M334.808,330.461l-2.095,2.095,1.63-1.63-3.7-3.7a4.611,4.611,0,0,0-5.729-.633l-.015.009q-.135.086-.265.182l-.008.006c-.076.057-.151.118-.225.18l-.054.046c-.076.067-.152.136-.224.208l3.463,3.463-4.785,4.785-3.193-3.193.15-.662a5.436,5.436,0,0,0-5.659-6.626l-.133.01-.13.013c-.1.011-.2.024-.3.041l-.433.433,1.871,2.944a1.694,1.694,0,0,1,.084.151l.021.044c.018.039.035.079.05.12.005.014.011.028.015.042a1.641,1.641,0,0,1,.076.335c0,.008,0,.015,0,.023.005.053.009.105.009.158,0,.005,0,.011,0,.016a1.658,1.658,0,0,1-.038.352l0,.011c-.012.053-.027.1-.044.156a1.65,1.65,0,0,1-.319.563c-.026.03-.052.059-.08.087s-.061.058-.093.085l0,0a1.655,1.655,0,0,1-1.961.137l-2.944-1.871-.433.433a5.107,5.107,0,0,0,6.537,6.3l.687-.234,3.193,3.193-.766.766-2.227,2.227-.267-.267a.822.822,0,0,0-1.162,0l-6.042,6.042a.821.821,0,0,0,0,1.161l1.787,1.787,1.028,1.028a.819.819,0,0,0,.272.18.824.824,0,0,0,.466.045.817.817,0,0,0,.424-.225l6.042-6.042a.821.821,0,0,0,0-1.161l-.267-.267,2.993-2.993,3.692,3.692-.234.687a5.106,5.106,0,0,0,6.3,6.537l.433-.433-1.871-2.944a1.655,1.655,0,0,1,.227-2.059c.038-.038.078-.074.119-.108s.076-.06.115-.087l0,0c.038-.026.077-.05.116-.073l.007,0q.059-.033.12-.061l.006,0c.041-.018.083-.035.125-.05h0l.034-.011c.047-.015.095-.029.143-.04l.042-.009c.042-.009.085-.015.128-.021l.043-.006c.054-.006.108-.009.163-.009h.016c.053,0,.105,0,.158.009l.023,0a1.627,1.627,0,0,1,.335.076l.042.015q.06.022.12.05l.044.021a1.641,1.641,0,0,1,.151.084l2.944,1.871.433-.433c.017-.1.03-.2.041-.3.005-.044.009-.087.013-.13s.007-.088.01-.132a5.436,5.436,0,0,0-6.626-5.659l-.662.15-3.692-3.692,4.785-4.785,1.219,1.219-.465.465a.81.81,0,0,0,0,1.145l2.337,2.337a.81.81,0,0,0,1.145,0l4.189-4.189a.815.815,0,0,0,.1-.127.8.8,0,0,0,.119-.291.814.814,0,0,0,0-.309.807.807,0,0,0-.222-.418l-1.073-1.073-1.264-1.264a.81.81,0,0,0-1.145,0" transform="translate(-261.661 -275.166)" fill="#1e2d70"/>
    <path id="Tracé_242" data-name="Tracé 242" d="M216.948,170.661a29.99,29.99,0,0,0-.484-5.367,1.692,1.692,0,0,1,.486-1.508l7.757-7.608a1.707,1.707,0,0,0,.283-2.072l-4.643-8.041a1.707,1.707,0,0,0-1.936-.791l-10.471,2.915a1.692,1.692,0,0,1-1.55-.334,29.883,29.883,0,0,0-9.293-5.368,1.691,1.691,0,0,1-1.062-1.174l-2.71-10.521a1.707,1.707,0,0,0-1.653-1.281h-9.285a1.707,1.707,0,0,0-1.653,1.281l-2.71,10.521a1.691,1.691,0,0,1-1.062,1.174,29.879,29.879,0,0,0-9.293,5.368,1.692,1.692,0,0,1-1.549.334l-10.471-2.915a1.707,1.707,0,0,0-1.936.791l-4.643,8.041a1.707,1.707,0,0,0,.283,2.072l7.757,7.608a1.692,1.692,0,0,1,.486,1.508,29.982,29.982,0,0,0,0,10.734,1.692,1.692,0,0,1-.486,1.508l-7.757,7.608a1.707,1.707,0,0,0-.283,2.072l4.643,8.041a1.707,1.707,0,0,0,1.936.791l10.471-2.915a1.692,1.692,0,0,1,1.549.334,29.879,29.879,0,0,0,9.293,5.368,1.691,1.691,0,0,1,1.062,1.174l2.71,10.521a1.707,1.707,0,0,0,1.653,1.281h9.285a1.707,1.707,0,0,0,1.653-1.281l2.71-10.521a1.691,1.691,0,0,1,1.062-1.174,29.876,29.876,0,0,0,9.293-5.368,1.692,1.692,0,0,1,1.55-.334l10.471,2.915a1.707,1.707,0,0,0,1.936-.791l4.643-8.041a1.707,1.707,0,0,0-.283-2.072l-7.757-7.608a1.692,1.692,0,0,1-.486-1.508,29.99,29.99,0,0,0,.484-5.367m-28.818,21.1a21.124,21.124,0,1,1,20-20,21.125,21.125,0,0,1-20,20" transform="translate(-126.031 -109.661)" fill="#009cdc"/>
    <path id="Tracé_243" data-name="Tracé 243" d="M224.707,185.144l-7.757-7.608a1.692,1.692,0,0,1-.486-1.508,29.982,29.982,0,0,0,0-10.734,1.692,1.692,0,0,1,.486-1.508l7.757-7.608a1.707,1.707,0,0,0,.283-2.072l-4.643-8.041a1.707,1.707,0,0,0-1.936-.791l-10.471,2.915a1.691,1.691,0,0,1-1.549-.334,29.879,29.879,0,0,0-9.293-5.368,1.691,1.691,0,0,1-1.062-1.174l-2.71-10.521a1.707,1.707,0,0,0-1.653-1.281h-9.285a1.707,1.707,0,0,0-1.653,1.281l-2.71,10.521a1.691,1.691,0,0,1-1.062,1.174,29.883,29.883,0,0,0-9.293,5.368,1.692,1.692,0,0,1-1.55.334l-10.471-2.915a1.706,1.706,0,0,0-1.936.791l-4.643,8.041a1.707,1.707,0,0,0,.283,2.072l7.757,7.608a1.692,1.692,0,0,1,.486,1.508,29.982,29.982,0,0,0,0,10.734,1.692,1.692,0,0,1-.486,1.508l-7.757,7.608a1.707,1.707,0,0,0-.283,2.072l4.643,8.041a1.706,1.706,0,0,0,1.936.791l10.471-2.915a1.692,1.692,0,0,1,1.55.334,29.88,29.88,0,0,0,9.293,5.368,1.691,1.691,0,0,1,1.062,1.174l2.71,10.521a1.707,1.707,0,0,0,1.653,1.281h9.285a1.707,1.707,0,0,0,1.653-1.281l2.71-10.521a1.691,1.691,0,0,1,1.062-1.174,29.883,29.883,0,0,0,9.293-5.368,1.692,1.692,0,0,1,1.549-.334l10.471,2.915a1.707,1.707,0,0,0,1.936-.791l4.643-8.041a1.707,1.707,0,0,0-.283-2.072m-6.328,8.06-9.706-2.7a4.415,4.415,0,0,0-4.05.883,27.053,27.053,0,0,1-8.443,4.878,4.415,4.415,0,0,0-2.788,3.065l-2.512,9.753h-7.7l-2.512-9.752a4.415,4.415,0,0,0-2.788-3.065,27.056,27.056,0,0,1-8.443-4.878,4.416,4.416,0,0,0-4.05-.884l-9.706,2.7-3.849-6.666,7.191-7.052a4.417,4.417,0,0,0,1.26-3.945,27.24,27.24,0,0,1,0-9.758,4.417,4.417,0,0,0-1.261-3.946l-7.19-7.052,3.849-6.666,9.706,2.7a4.417,4.417,0,0,0,4.05-.884,27.054,27.054,0,0,1,8.443-4.878,4.415,4.415,0,0,0,2.788-3.065l2.512-9.752h7.7l2.512,9.752a4.414,4.414,0,0,0,2.788,3.065,27.05,27.05,0,0,1,8.443,4.878,4.417,4.417,0,0,0,4.05.884l9.706-2.7,3.849,6.666-7.191,7.052a4.418,4.418,0,0,0-1.26,3.946,27.249,27.249,0,0,1,0,9.758,4.417,4.417,0,0,0,1.26,3.945l7.191,7.052Z" transform="translate(-126.031 -109.661)" fill="#0083b9"/>
    <path id="Tracé_244" data-name="Tracé 244" d="M232.562,202.616a29.946,29.946,0,1,0,29.946,29.946,29.946,29.946,0,0,0-29.946-29.946m0,55.541a25.6,25.6,0,1,1,25.6-25.6,25.6,25.6,0,0,1-25.6,25.6" transform="translate(-171.562 -171.562)" fill="#0083b9"/>
    <path id="Tracé_245" data-name="Tracé 245" d="M275.224,253a22.224,22.224,0,1,0,22.224,22.224A22.224,22.224,0,0,0,275.224,253m0,42.295a20.071,20.071,0,1,1,20.071-20.071,20.071,20.071,0,0,1-20.071,20.071" transform="translate(-214.224 -214.224)" fill="#0083b9"/>
    <path id="Tracé_259" data-name="Tracé 259" d="M25.731,31.818H43.337v3.228H25.731Z" transform="translate(13.384 59.992) rotate(-45)" fill="#fff"/>
    <path id="Tracé_260" data-name="Tracé 260" d="M22.79,29.659H40.4v1.382H22.79Z" transform="translate(18.295 60.745) rotate(-45)" fill="#c7c9cb"/>
    <path id="Tracé_246" data-name="Tracé 246" d="M309.264,415.976l6.042-6.042a.821.821,0,0,1,1.161,0l2.816,2.816a.821.821,0,0,1,0,1.162l-6.042,6.042a.821.821,0,0,1-1.161,0l-2.816-2.816a.821.821,0,0,1,0-1.161" transform="translate(-261.66 -346.901)" fill="#fff"/>
    <path id="Tracé_247" data-name="Tracé 247" d="M330.486,423.951l-1.029-1.028a.821.821,0,0,1,0,1.162l-6.042,6.042a.821.821,0,0,1-1.162,0l1.029,1.028a.821.821,0,0,0,1.161,0l6.042-6.042a.821.821,0,0,0,0-1.161" transform="translate(-272.863 -358.103)" fill="#c7c9cb"/>
    <path id="Tracé_248" data-name="Tracé 248" d="M414.476,319.139l-6.965-6.965a4.611,4.611,0,0,1,6.52,0l3.7,3.7Z" transform="translate(-345.053 -263.185)" fill="#fff"/>
    <path id="Tracé_249" data-name="Tracé 249" d="M407.511,315.25l6.965,6.965.928-.929-6.83-6.83a4.61,4.61,0,0,0-1.064.793" transform="translate(-345.053 -266.261)" fill="#c7c9cb"/>
    <path id="Tracé_250" data-name="Tracé 250" d="M450.948,347.135l-2.337-2.337a.81.81,0,0,1,0-1.145l4.189-4.189a.81.81,0,0,1,1.145,0l2.337,2.337a.81.81,0,0,1,0,1.145l-4.189,4.189a.81.81,0,0,1-1.145,0" transform="translate(-379.653 -287.234)" fill="#fff"/>
    <path id="Tracé_251" data-name="Tracé 251" d="M457.593,350.095l-1.073-1.073a.81.81,0,0,1,0,1.145l-4.189,4.189a.81.81,0,0,1-1.145,0l-1.264-1.264h0l2.337,2.337a.81.81,0,0,0,1.145,0l4.189-4.189a.81.81,0,0,0,0-1.145" transform="translate(-380.963 -295.529)" fill="#c7c9cb"/>
    <path id="Tracé_261" data-name="Tracé 261" d="M10.218,10.688h4.34v3.228h-4.34Z" transform="matrix(0.707, -0.707, 0.707, 0.707, 42.517, 60.74)" fill="#c7c9cb"/>
    <path id="Tracé_252" data-name="Tracé 252" d="M329.78,321.278l-.662.15-9.167-9.168.15-.662a5.436,5.436,0,0,0-6.22-6.561l-.433.433,1.871,2.944a1.655,1.655,0,0,1-2.285,2.285l-2.944-1.871-.433.433a5.106,5.106,0,0,0,6.537,6.3l.687-.234,9.168,9.168-.234.687a5.106,5.106,0,0,0,6.3,6.536l.433-.433-1.871-2.944a1.655,1.655,0,0,1,2.285-2.285l2.944,1.871.433-.433a5.437,5.437,0,0,0-6.562-6.22" transform="translate(-262.008 -258.217)" fill="#fff"/>
    <path id="Tracé_253" data-name="Tracé 253" d="M337.665,309.848a1.653,1.653,0,0,0,.865-2.454l-1.538-2.42a5.536,5.536,0,0,0-.934.078l-.433.433,1.871,2.944a1.654,1.654,0,0,1,.169,1.42" transform="translate(-284.185 -258.231)" fill="#c7c9cb"/>
    <path id="Tracé_254" data-name="Tracé 254" d="M345.715,341.5l0,0,0,0Z" transform="translate(-292.728 -289.16)" fill="#0083b9"/>
    <path id="Tracé_255" data-name="Tracé 255" d="M346.876,334.6l1.017-1.014-.613-.032a1.652,1.652,0,0,1-.4,1.045" transform="translate(-293.712 -282.429)" fill="#0083b9"/>
    <path id="Tracé_256" data-name="Tracé 256" d="M450.308,438.186h0a1.654,1.654,0,0,1,1.046-.376l-.11-.572Z" transform="translate(-381.291 -370.224)" fill="#0083b9"/>
    <path id="Tracé_257" data-name="Tracé 257" d="M326.847,345.538l.234-.687-9.167-9.167-.687.234a5.108,5.108,0,0,1-6.718-5.435l-.42-.267-.433.433a5.107,5.107,0,0,0,6.537,6.3l.687-.234,9.167,9.168-.234.687a5.106,5.106,0,0,0,6.3,6.536h0l.433-.433-.267-.42a5.108,5.108,0,0,1-5.435-6.718" transform="translate(-262.007 -279.604)" fill="#c7c9cb"/>
    <path id="Tracé_258" data-name="Tracé 258" d="M456.152,434.471a1.653,1.653,0,0,0-2.454.865,1.654,1.654,0,0,1,1.42.169l2.944,1.871.433-.433a5.534,5.534,0,0,0,.078-.934Z" transform="translate(-384.161 -367.662)" fill="#c7c9cb"/>
  </g>
</svg>
