<svg id="icone_hebergement_mutialisé" data-name="icone hebergement mutialisé" xmlns="http://www.w3.org/2000/svg" xmlns:xlink="http://www.w3.org/1999/xlink" width="122" height="122" viewBox="0 0 122 122">
  <defs>
    <clipPath id="clip-path">
      <rect id="Rectangle_123" data-name="Rectangle 123" width="122" height="122" fill="none"/>
    </clipPath>
  </defs>
  <g id="Groupe_8" data-name="Groupe 8" clip-path="url(#clip-path)">
    <path id="Tracé_167" data-name="Tracé 167" d="M122,61A61,61,0,1,1,61,0a61,61,0,0,1,61,61" fill="#1e2d70"/>
    <path id="Tracé_168" data-name="Tracé 168" d="M159.218,106.444A52.774,52.774,0,1,1,106.443,53.67a52.774,52.774,0,0,1,52.774,52.774" transform="translate(-45.443 -45.444)" fill="#0a2449"/>
    <path id="Tracé_169" data-name="Tracé 169" d="M207.394,195.66a1.693,1.693,0,0,0,1.688-1.688v-1.125h0v-3.721a1.688,1.688,0,0,0-1.688-1.688h-7.321A31.228,31.228,0,0,0,181.1,161.522v-.432a1.688,1.688,0,0,0-1.688-1.688h-1.076v-1.125h1.076a1.693,1.693,0,0,0,1.688-1.688v-1.125h0v-3.721a1.688,1.688,0,0,0-1.688-1.688H158.987a1.688,1.688,0,0,0-1.688,1.688v3.721h0v1.125a1.69,1.69,0,0,0,1.688,1.688h1.076V159.4h-1.076a1.688,1.688,0,0,0-1.688,1.688v.3a31.228,31.228,0,0,0-19.282,26.042h-8.544a1.688,1.688,0,0,0-1.688,1.688v3.721h0v1.125a1.69,1.69,0,0,0,1.688,1.688h1.076v1.125h-1.076a1.688,1.688,0,0,0-1.688,1.688v3.721h0v1.125a1.678,1.678,0,0,0,.313.977,1.679,1.679,0,0,0,1.375.711h1.076v1.125h-1.076a1.688,1.688,0,0,0-1.688,1.688v3.721h0v1.125a1.688,1.688,0,0,0,1.688,1.688h19.854a31.093,31.093,0,0,0,39.436,0h18.631a1.7,1.7,0,0,0,.34-.034q.083-.017.162-.042a1.676,1.676,0,0,0,.3-.128c.048-.026.094-.054.139-.085a1.687,1.687,0,0,0,.744-1.4v-1.125h0v-3.721a1.688,1.688,0,0,0-1.688-1.688h-1.076v-1.125h1.076a1.692,1.692,0,0,0,.34-.034q.083-.017.162-.042a1.687,1.687,0,0,0,.3-.128q.072-.039.139-.085a1.687,1.687,0,0,0,.744-1.4v-1.125h0v-3.721a1.688,1.688,0,0,0-1.688-1.688h-1.076V195.66Zm-55.808,14.192v-2.031a1.688,1.688,0,0,0-1.688-1.688h-1.076v-1.125H149.9a1.694,1.694,0,0,0,.34-.034q.082-.017.162-.042a1.682,1.682,0,0,0,.3-.128q.072-.039.139-.085a1.686,1.686,0,0,0,.744-1.4v-1.125h0v-3.721a1.688,1.688,0,0,0-1.688-1.688h-1.076V195.66H149.9a1.693,1.693,0,0,0,1.688-1.688v-1.125h0v-3.721a1.688,1.688,0,0,0-1.688-1.688h-6.965a26.321,26.321,0,0,1,14.54-20.758,1.675,1.675,0,0,0,.139.234,1.678,1.678,0,0,0,1.375.712h1.076v1.125h-1.076a1.688,1.688,0,0,0-1.688,1.688v3.721h0v1.125a1.686,1.686,0,0,0,1.688,1.688h20.425a1.691,1.691,0,0,0,.34-.034,1.665,1.665,0,0,0,.162-.042,1.7,1.7,0,0,0,1.186-1.612v-1.125h0v-3.721a1.688,1.688,0,0,0-1.688-1.688h-1.076v-1.125h1.076a1.691,1.691,0,0,0,.34-.034,1.683,1.683,0,0,0,.465-.17c.048-.026.094-.054.139-.084a1.7,1.7,0,0,0,.5-.536,26.319,26.319,0,0,1,14.3,20.637h-8.188a1.688,1.688,0,0,0-1.688,1.688v3.721h0v1.125a1.69,1.69,0,0,0,1.688,1.688h1.076v1.125h-1.076a1.688,1.688,0,0,0-1.688,1.688v3.721h0v1.125a1.678,1.678,0,0,0,.313.977,1.679,1.679,0,0,0,1.375.711h1.076v1.125h-1.076a1.688,1.688,0,0,0-1.688,1.688v3.059a26.21,26.21,0,0,1-33.7-1.028" transform="translate(-108.2 -127.057)" fill="#1e2d70"/>
    <path id="Tracé_170" data-name="Tracé 170" d="M224.867,251.348a31.156,31.156,0,1,1,31.156-31.156,31.191,31.191,0,0,1-31.156,31.156m0-57.419a26.263,26.263,0,1,0,26.263,26.263,26.293,26.293,0,0,0-26.263-26.263" transform="translate(-164.022 -160.063)" fill="#fff"/>
    <path id="Tracé_171" data-name="Tracé 171" d="M238.383,205a28.709,28.709,0,1,0,28.709,28.709A28.709,28.709,0,0,0,238.383,205m0,54.972a26.263,26.263,0,1,1,26.263-26.263,26.293,26.293,0,0,1-26.263,26.263" transform="translate(-177.538 -173.58)" fill="#c7c9cb"/>
    <rect id="Rectangle_9" data-name="Rectangle 9" width="18.273" height="1.125" transform="translate(22.349 65.538)" fill="#1b3a8f"/>
    <rect id="Rectangle_10" data-name="Rectangle 10" width="18.273" height="1.125" transform="translate(22.349 74.885)" fill="#1b3a8f"/>
    <path id="Tracé_172" data-name="Tracé 172" d="M129.473,382.182H149.9a1.688,1.688,0,0,0,1.688-1.688v-4.846a1.688,1.688,0,0,0-1.688-1.688H129.473a1.688,1.688,0,0,0-1.688,1.688v4.846a1.688,1.688,0,0,0,1.688,1.688" transform="translate(-108.2 -316.644)" fill="#009cdc"/>
    <path id="Tracé_173" data-name="Tracé 173" d="M129.473,410.938H149.9a1.688,1.688,0,0,0,1.688-1.688v1.125a1.688,1.688,0,0,1-1.688,1.688H129.473a1.688,1.688,0,0,1-1.688-1.688V409.25a1.688,1.688,0,0,0,1.688,1.688" transform="translate(-108.2 -346.526)" fill="#0083b9"/>
    <path id="Tracé_174" data-name="Tracé 174" d="M146.493,392.335a1,1,0,1,0,1-1,1,1,0,0,0-1,1" transform="translate(-124.041 -331.359)" fill="#fff"/>
    <path id="Tracé_175" data-name="Tracé 175" d="M147.491,396.854a1,1,0,0,0,.961-.733,1,1,0,1,1-1.922,0,1,1,0,0,0,.961.733" transform="translate(-124.041 -335.409)" fill="#c7c9cb"/>
    <rect id="Rectangle_11" data-name="Rectangle 11" width="1.714" height="1.714" transform="translate(39.354 58.775)" fill="#833d8f"/>
    <rect id="Rectangle_12" data-name="Rectangle 12" width="1.714" height="1.714" transform="translate(36.133 58.775)" fill="#833d8f"/>
    <rect id="Rectangle_13" data-name="Rectangle 13" width="1.714" height="1.714" transform="translate(32.913 58.775)" fill="#833d8f"/>
    <rect id="Rectangle_14" data-name="Rectangle 14" width="1.714" height="0.656" transform="translate(39.354 58.775)" fill="#751f81"/>
    <rect id="Rectangle_15" data-name="Rectangle 15" width="1.714" height="0.656" transform="translate(36.133 58.775)" fill="#751f81"/>
    <rect id="Rectangle_16" data-name="Rectangle 16" width="1.714" height="0.656" transform="translate(32.913 58.775)" fill="#751f81"/>
    <rect id="Rectangle_17" data-name="Rectangle 17" width="1.714" height="1.714" transform="translate(39.354 61.424)" fill="#833d8f"/>
    <rect id="Rectangle_18" data-name="Rectangle 18" width="1.714" height="1.714" transform="translate(36.133 61.424)" fill="#833d8f"/>
    <rect id="Rectangle_19" data-name="Rectangle 19" width="1.714" height="1.714" transform="translate(32.913 61.424)" fill="#833d8f"/>
    <rect id="Rectangle_20" data-name="Rectangle 20" width="1.714" height="0.656" transform="translate(39.354 61.427)" fill="#751f81"/>
    <rect id="Rectangle_21" data-name="Rectangle 21" width="1.714" height="0.656" transform="translate(36.133 61.427)" fill="#751f81"/>
    <rect id="Rectangle_22" data-name="Rectangle 22" width="1.714" height="0.656" transform="translate(32.913 61.427)" fill="#751f81"/>
    <path id="Tracé_176" data-name="Tracé 176" d="M129.473,443.172H149.9a1.688,1.688,0,0,0,1.688-1.688v-4.846a1.688,1.688,0,0,0-1.688-1.688H129.473a1.688,1.688,0,0,0-1.688,1.688v4.846a1.688,1.688,0,0,0,1.688,1.688" transform="translate(-108.2 -368.287)" fill="#009cdc"/>
    <path id="Tracé_177" data-name="Tracé 177" d="M129.473,471.928H149.9a1.688,1.688,0,0,0,1.688-1.688v1.125a1.688,1.688,0,0,1-1.688,1.688H129.473a1.688,1.688,0,0,1-1.688-1.688V470.24a1.688,1.688,0,0,0,1.688,1.688" transform="translate(-108.2 -398.168)" fill="#0083b9"/>
    <path id="Tracé_178" data-name="Tracé 178" d="M146.493,453.325a1,1,0,1,0,1-1,1,1,0,0,0-1,1" transform="translate(-124.041 -383)" fill="#fff"/>
    <path id="Tracé_179" data-name="Tracé 179" d="M147.491,457.843a1,1,0,0,0,.961-.733,1,1,0,1,1-1.922,0,1,1,0,0,0,.961.733" transform="translate(-124.041 -387.05)" fill="#c7c9cb"/>
    <rect id="Rectangle_23" data-name="Rectangle 23" width="1.714" height="1.714" transform="translate(39.354 68.122)" fill="#833d8f"/>
    <rect id="Rectangle_24" data-name="Rectangle 24" width="1.714" height="1.714" transform="translate(36.133 68.122)" fill="#833d8f"/>
    <rect id="Rectangle_25" data-name="Rectangle 25" width="1.714" height="1.714" transform="translate(32.913 68.122)" fill="#833d8f"/>
    <rect id="Rectangle_26" data-name="Rectangle 26" width="1.714" height="0.656" transform="translate(39.354 68.122)" fill="#751f81"/>
    <rect id="Rectangle_27" data-name="Rectangle 27" width="1.714" height="0.656" transform="translate(36.133 68.122)" fill="#751f81"/>
    <rect id="Rectangle_28" data-name="Rectangle 28" width="1.714" height="0.656" transform="translate(32.913 68.122)" fill="#751f81"/>
    <rect id="Rectangle_29" data-name="Rectangle 29" width="1.714" height="1.714" transform="translate(39.354 70.772)" fill="#833d8f"/>
    <rect id="Rectangle_30" data-name="Rectangle 30" width="1.714" height="1.714" transform="translate(36.133 70.772)" fill="#833d8f"/>
    <rect id="Rectangle_31" data-name="Rectangle 31" width="1.714" height="1.714" transform="translate(32.913 70.772)" fill="#833d8f"/>
    <rect id="Rectangle_32" data-name="Rectangle 32" width="1.714" height="0.656" transform="translate(39.354 70.774)" fill="#751f81"/>
    <rect id="Rectangle_33" data-name="Rectangle 33" width="1.714" height="0.656" transform="translate(36.133 70.774)" fill="#751f81"/>
    <rect id="Rectangle_34" data-name="Rectangle 34" width="1.714" height="0.656" transform="translate(32.913 70.774)" fill="#751f81"/>
    <path id="Tracé_180" data-name="Tracé 180" d="M129.473,504.161H149.9a1.688,1.688,0,0,0,1.688-1.688v-4.846a1.688,1.688,0,0,0-1.688-1.688H129.473a1.688,1.688,0,0,0-1.688,1.688v4.846a1.688,1.688,0,0,0,1.688,1.688" transform="translate(-108.2 -419.928)" fill="#009cdc"/>
    <path id="Tracé_181" data-name="Tracé 181" d="M129.473,532.917H149.9a1.688,1.688,0,0,0,1.688-1.688v1.125a1.688,1.688,0,0,1-1.688,1.688H129.473a1.688,1.688,0,0,1-1.688-1.688v-1.125a1.688,1.688,0,0,0,1.688,1.688" transform="translate(-108.2 -449.809)" fill="#0083b9"/>
    <path id="Tracé_182" data-name="Tracé 182" d="M146.493,514.315a1,1,0,1,0,1-1,1,1,0,0,0-1,1" transform="translate(-124.041 -434.643)" fill="#fff"/>
    <path id="Tracé_183" data-name="Tracé 183" d="M147.491,518.833a1,1,0,0,0,.961-.733,1,1,0,1,1-1.922,0,1,1,0,0,0,.961.733" transform="translate(-124.041 -438.693)" fill="#c7c9cb"/>
    <rect id="Rectangle_35" data-name="Rectangle 35" width="1.714" height="1.714" transform="translate(39.354 77.47)" fill="#833d8f"/>
    <rect id="Rectangle_36" data-name="Rectangle 36" width="1.714" height="1.714" transform="translate(36.133 77.47)" fill="#833d8f"/>
    <rect id="Rectangle_37" data-name="Rectangle 37" width="1.714" height="1.714" transform="translate(32.913 77.47)" fill="#833d8f"/>
    <rect id="Rectangle_38" data-name="Rectangle 38" width="1.714" height="0.656" transform="translate(39.354 77.47)" fill="#751f81"/>
    <rect id="Rectangle_39" data-name="Rectangle 39" width="1.714" height="0.656" transform="translate(36.133 77.47)" fill="#751f81"/>
    <rect id="Rectangle_40" data-name="Rectangle 40" width="1.714" height="0.656" transform="translate(32.913 77.47)" fill="#751f81"/>
    <rect id="Rectangle_41" data-name="Rectangle 41" width="1.714" height="1.714" transform="translate(39.354 80.12)" fill="#833d8f"/>
    <rect id="Rectangle_42" data-name="Rectangle 42" width="1.714" height="1.714" transform="translate(36.133 80.12)" fill="#833d8f"/>
    <rect id="Rectangle_43" data-name="Rectangle 43" width="1.714" height="1.714" transform="translate(32.913 80.12)" fill="#833d8f"/>
    <rect id="Rectangle_44" data-name="Rectangle 44" width="1.714" height="0.656" transform="translate(39.354 80.122)" fill="#751f81"/>
    <rect id="Rectangle_45" data-name="Rectangle 45" width="1.714" height="0.656" transform="translate(36.133 80.122)" fill="#751f81"/>
    <rect id="Rectangle_46" data-name="Rectangle 46" width="1.714" height="0.656" transform="translate(32.913 80.122)" fill="#751f81"/>
    <rect id="Rectangle_47" data-name="Rectangle 47" width="18.273" height="1.125" transform="translate(79.845 65.538)" fill="#1b3a8f"/>
    <rect id="Rectangle_48" data-name="Rectangle 48" width="18.273" height="1.125" transform="translate(79.845 74.885)" fill="#1b3a8f"/>
    <path id="Tracé_184" data-name="Tracé 184" d="M504.611,382.182h20.425a1.688,1.688,0,0,0,1.688-1.688v-4.846a1.688,1.688,0,0,0-1.688-1.688H504.611a1.688,1.688,0,0,0-1.688,1.688v4.846a1.688,1.688,0,0,0,1.688,1.688" transform="translate(-425.842 -316.644)" fill="#009cdc"/>
    <path id="Tracé_185" data-name="Tracé 185" d="M504.611,410.938h20.425a1.688,1.688,0,0,0,1.688-1.688v1.125a1.688,1.688,0,0,1-1.688,1.688H504.611a1.688,1.688,0,0,1-1.688-1.688V409.25a1.688,1.688,0,0,0,1.688,1.688" transform="translate(-425.842 -346.526)" fill="#0083b9"/>
    <path id="Tracé_186" data-name="Tracé 186" d="M521.63,392.335a1,1,0,1,0,1-1,1,1,0,0,0-1,1" transform="translate(-441.682 -331.359)" fill="#fff"/>
    <path id="Tracé_187" data-name="Tracé 187" d="M522.629,396.854a1,1,0,0,0,.961-.733,1,1,0,1,1-1.922,0,1,1,0,0,0,.961.733" transform="translate(-441.683 -335.409)" fill="#c7c9cb"/>
    <rect id="Rectangle_49" data-name="Rectangle 49" width="1.714" height="1.714" transform="translate(96.85 58.775)" fill="#833d8f"/>
    <rect id="Rectangle_50" data-name="Rectangle 50" width="1.714" height="1.714" transform="translate(93.629 58.775)" fill="#833d8f"/>
    <rect id="Rectangle_51" data-name="Rectangle 51" width="1.714" height="1.714" transform="translate(90.409 58.775)" fill="#833d8f"/>
    <rect id="Rectangle_52" data-name="Rectangle 52" width="1.714" height="0.656" transform="translate(96.85 58.775)" fill="#751f81"/>
    <rect id="Rectangle_53" data-name="Rectangle 53" width="1.714" height="0.656" transform="translate(93.629 58.775)" fill="#751f81"/>
    <rect id="Rectangle_54" data-name="Rectangle 54" width="1.714" height="0.656" transform="translate(90.409 58.775)" fill="#751f81"/>
    <rect id="Rectangle_55" data-name="Rectangle 55" width="1.714" height="1.714" transform="translate(96.85 61.424)" fill="#833d8f"/>
    <rect id="Rectangle_56" data-name="Rectangle 56" width="1.714" height="1.714" transform="translate(93.629 61.424)" fill="#833d8f"/>
    <rect id="Rectangle_57" data-name="Rectangle 57" width="1.714" height="1.714" transform="translate(90.409 61.424)" fill="#833d8f"/>
    <rect id="Rectangle_58" data-name="Rectangle 58" width="1.714" height="0.656" transform="translate(96.85 61.427)" fill="#751f81"/>
    <rect id="Rectangle_59" data-name="Rectangle 59" width="1.714" height="0.656" transform="translate(93.629 61.427)" fill="#751f81"/>
    <rect id="Rectangle_60" data-name="Rectangle 60" width="1.714" height="0.656" transform="translate(90.409 61.427)" fill="#751f81"/>
    <path id="Tracé_188" data-name="Tracé 188" d="M504.611,443.172h20.425a1.688,1.688,0,0,0,1.688-1.688v-4.846a1.688,1.688,0,0,0-1.688-1.688H504.611a1.688,1.688,0,0,0-1.688,1.688v4.846a1.688,1.688,0,0,0,1.688,1.688" transform="translate(-425.842 -368.287)" fill="#009cdc"/>
    <path id="Tracé_189" data-name="Tracé 189" d="M504.611,471.928h20.425a1.688,1.688,0,0,0,1.688-1.688v1.125a1.688,1.688,0,0,1-1.688,1.688H504.611a1.688,1.688,0,0,1-1.688-1.688V470.24a1.688,1.688,0,0,0,1.688,1.688" transform="translate(-425.842 -398.168)" fill="#0083b9"/>
    <path id="Tracé_190" data-name="Tracé 190" d="M521.63,453.325a1,1,0,1,0,1-1,1,1,0,0,0-1,1" transform="translate(-441.682 -383)" fill="#fff"/>
    <path id="Tracé_191" data-name="Tracé 191" d="M522.629,457.843a1,1,0,0,0,.961-.733,1,1,0,1,1-1.922,0,1,1,0,0,0,.961.733" transform="translate(-441.683 -387.05)" fill="#c7c9cb"/>
    <rect id="Rectangle_61" data-name="Rectangle 61" width="1.714" height="1.714" transform="translate(96.85 68.122)" fill="#833d8f"/>
    <rect id="Rectangle_62" data-name="Rectangle 62" width="1.714" height="1.714" transform="translate(93.629 68.122)" fill="#833d8f"/>
    <rect id="Rectangle_63" data-name="Rectangle 63" width="1.714" height="1.714" transform="translate(90.409 68.122)" fill="#833d8f"/>
    <rect id="Rectangle_64" data-name="Rectangle 64" width="1.714" height="0.656" transform="translate(96.85 68.122)" fill="#751f81"/>
    <rect id="Rectangle_65" data-name="Rectangle 65" width="1.714" height="0.656" transform="translate(93.629 68.122)" fill="#751f81"/>
    <rect id="Rectangle_66" data-name="Rectangle 66" width="1.714" height="0.656" transform="translate(90.409 68.122)" fill="#751f81"/>
    <rect id="Rectangle_67" data-name="Rectangle 67" width="1.714" height="1.714" transform="translate(96.85 70.772)" fill="#833d8f"/>
    <rect id="Rectangle_68" data-name="Rectangle 68" width="1.714" height="1.714" transform="translate(93.629 70.772)" fill="#833d8f"/>
    <rect id="Rectangle_69" data-name="Rectangle 69" width="1.714" height="1.714" transform="translate(90.409 70.772)" fill="#833d8f"/>
    <rect id="Rectangle_70" data-name="Rectangle 70" width="1.714" height="0.656" transform="translate(96.85 70.774)" fill="#751f81"/>
    <rect id="Rectangle_71" data-name="Rectangle 71" width="1.714" height="0.656" transform="translate(93.629 70.774)" fill="#751f81"/>
    <rect id="Rectangle_72" data-name="Rectangle 72" width="1.714" height="0.656" transform="translate(90.409 70.774)" fill="#751f81"/>
    <path id="Tracé_192" data-name="Tracé 192" d="M504.611,504.161h20.425a1.688,1.688,0,0,0,1.688-1.688v-4.846a1.688,1.688,0,0,0-1.688-1.688H504.611a1.688,1.688,0,0,0-1.688,1.688v4.846a1.688,1.688,0,0,0,1.688,1.688" transform="translate(-425.842 -419.928)" fill="#009cdc"/>
    <path id="Tracé_193" data-name="Tracé 193" d="M504.611,532.917h20.425a1.688,1.688,0,0,0,1.688-1.688v1.125a1.688,1.688,0,0,1-1.688,1.688H504.611a1.688,1.688,0,0,1-1.688-1.688v-1.125a1.688,1.688,0,0,0,1.688,1.688" transform="translate(-425.842 -449.809)" fill="#0083b9"/>
    <path id="Tracé_194" data-name="Tracé 194" d="M521.63,514.315a1,1,0,1,0,1-1,1,1,0,0,0-1,1" transform="translate(-441.682 -434.643)" fill="#fff"/>
    <path id="Tracé_195" data-name="Tracé 195" d="M522.629,518.833a1,1,0,0,0,.961-.733,1,1,0,1,1-1.922,0,1,1,0,0,0,.961.733" transform="translate(-441.683 -438.693)" fill="#c7c9cb"/>
    <rect id="Rectangle_73" data-name="Rectangle 73" width="1.714" height="1.714" transform="translate(96.85 77.47)" fill="#833d8f"/>
    <rect id="Rectangle_74" data-name="Rectangle 74" width="1.714" height="1.714" transform="translate(93.629 77.47)" fill="#833d8f"/>
    <rect id="Rectangle_75" data-name="Rectangle 75" width="1.714" height="1.714" transform="translate(90.409 77.47)" fill="#833d8f"/>
    <rect id="Rectangle_76" data-name="Rectangle 76" width="1.714" height="0.656" transform="translate(96.85 77.47)" fill="#751f81"/>
    <rect id="Rectangle_77" data-name="Rectangle 77" width="1.714" height="0.656" transform="translate(93.629 77.47)" fill="#751f81"/>
    <rect id="Rectangle_78" data-name="Rectangle 78" width="1.714" height="0.656" transform="translate(90.409 77.47)" fill="#751f81"/>
    <rect id="Rectangle_79" data-name="Rectangle 79" width="1.714" height="1.714" transform="translate(96.85 80.12)" fill="#833d8f"/>
    <rect id="Rectangle_80" data-name="Rectangle 80" width="1.714" height="1.714" transform="translate(93.629 80.12)" fill="#833d8f"/>
    <rect id="Rectangle_81" data-name="Rectangle 81" width="1.714" height="1.714" transform="translate(90.409 80.12)" fill="#833d8f"/>
    <rect id="Rectangle_82" data-name="Rectangle 82" width="1.714" height="0.656" transform="translate(96.85 80.122)" fill="#751f81"/>
    <rect id="Rectangle_83" data-name="Rectangle 83" width="1.714" height="0.656" transform="translate(93.629 80.122)" fill="#751f81"/>
    <rect id="Rectangle_84" data-name="Rectangle 84" width="1.714" height="0.656" transform="translate(90.409 80.122)" fill="#751f81"/>
    <rect id="Rectangle_85" data-name="Rectangle 85" width="18.273" height="1.125" transform="translate(51.864 28.155)" fill="#1b3a8f"/>
    <rect id="Rectangle_86" data-name="Rectangle 86" width="18.273" height="1.125" transform="translate(51.864 37.503)" fill="#1b3a8f"/>
    <path id="Tracé_196" data-name="Tracé 196" d="M322.042,138.277h20.425a1.688,1.688,0,0,0,1.688-1.688v-4.846a1.688,1.688,0,0,0-1.688-1.688H322.042a1.688,1.688,0,0,0-1.688,1.688v4.846a1.688,1.688,0,0,0,1.688,1.688" transform="translate(-271.255 -110.122)" fill="#009cdc"/>
    <path id="Tracé_197" data-name="Tracé 197" d="M322.042,167.033h20.425a1.688,1.688,0,0,0,1.688-1.688v1.125a1.688,1.688,0,0,1-1.688,1.688H322.042a1.688,1.688,0,0,1-1.688-1.688v-1.125a1.688,1.688,0,0,0,1.688,1.688" transform="translate(-271.255 -140.003)" fill="#0083b9"/>
    <path id="Tracé_198" data-name="Tracé 198" d="M339.061,148.43a1,1,0,1,0,1-1,1,1,0,0,0-1,1" transform="translate(-287.094 -124.836)" fill="#fff"/>
    <path id="Tracé_199" data-name="Tracé 199" d="M340.06,152.949a1,1,0,0,0,.961-.733,1,1,0,1,1-1.922,0,1,1,0,0,0,.961.733" transform="translate(-287.095 -128.886)" fill="#c7c9cb"/>
    <rect id="Rectangle_87" data-name="Rectangle 87" width="1.714" height="1.714" transform="translate(68.868 21.392)" fill="#833d8f"/>
    <rect id="Rectangle_88" data-name="Rectangle 88" width="1.714" height="1.714" transform="translate(65.648 21.392)" fill="#833d8f"/>
    <rect id="Rectangle_89" data-name="Rectangle 89" width="1.714" height="1.714" transform="translate(62.427 21.392)" fill="#833d8f"/>
    <rect id="Rectangle_90" data-name="Rectangle 90" width="1.714" height="0.656" transform="translate(68.868 21.392)" fill="#751f81"/>
    <rect id="Rectangle_91" data-name="Rectangle 91" width="1.714" height="0.656" transform="translate(65.648 21.392)" fill="#751f81"/>
    <rect id="Rectangle_92" data-name="Rectangle 92" width="1.714" height="0.656" transform="translate(62.427 21.392)" fill="#751f81"/>
    <rect id="Rectangle_93" data-name="Rectangle 93" width="1.714" height="1.714" transform="translate(68.868 24.042)" fill="#833d8f"/>
    <rect id="Rectangle_94" data-name="Rectangle 94" width="1.714" height="1.714" transform="translate(65.648 24.042)" fill="#833d8f"/>
    <rect id="Rectangle_95" data-name="Rectangle 95" width="1.714" height="1.714" transform="translate(62.427 24.042)" fill="#833d8f"/>
    <rect id="Rectangle_96" data-name="Rectangle 96" width="1.714" height="0.656" transform="translate(68.868 24.044)" fill="#751f81"/>
    <rect id="Rectangle_97" data-name="Rectangle 97" width="1.714" height="0.656" transform="translate(65.648 24.044)" fill="#751f81"/>
    <rect id="Rectangle_98" data-name="Rectangle 98" width="1.714" height="0.656" transform="translate(62.427 24.044)" fill="#751f81"/>
    <path id="Tracé_200" data-name="Tracé 200" d="M322.042,199.266h20.425a1.688,1.688,0,0,0,1.688-1.688v-4.846a1.688,1.688,0,0,0-1.688-1.688H322.042a1.688,1.688,0,0,0-1.688,1.688v4.846a1.688,1.688,0,0,0,1.688,1.688" transform="translate(-271.255 -161.763)" fill="#009cdc"/>
    <path id="Tracé_201" data-name="Tracé 201" d="M322.042,228.023h20.425a1.688,1.688,0,0,0,1.688-1.688v1.125a1.688,1.688,0,0,1-1.688,1.688H322.042a1.688,1.688,0,0,1-1.688-1.688v-1.125a1.688,1.688,0,0,0,1.688,1.688" transform="translate(-271.255 -191.645)" fill="#0083b9"/>
    <path id="Tracé_202" data-name="Tracé 202" d="M339.061,209.42a1,1,0,1,0,1-1,1,1,0,0,0-1,1" transform="translate(-287.094 -176.478)" fill="#fff"/>
    <path id="Tracé_203" data-name="Tracé 203" d="M340.06,213.938a1,1,0,0,0,.961-.733,1,1,0,1,1-1.922,0,1,1,0,0,0,.961.733" transform="translate(-287.095 -180.528)" fill="#c7c9cb"/>
    <rect id="Rectangle_99" data-name="Rectangle 99" width="1.714" height="1.714" transform="translate(68.868 30.74)" fill="#833d8f"/>
    <rect id="Rectangle_100" data-name="Rectangle 100" width="1.714" height="1.714" transform="translate(65.648 30.74)" fill="#833d8f"/>
    <rect id="Rectangle_101" data-name="Rectangle 101" width="1.714" height="1.714" transform="translate(62.427 30.74)" fill="#833d8f"/>
    <rect id="Rectangle_102" data-name="Rectangle 102" width="1.714" height="0.656" transform="translate(68.868 30.74)" fill="#751f81"/>
    <rect id="Rectangle_103" data-name="Rectangle 103" width="1.714" height="0.656" transform="translate(65.648 30.74)" fill="#751f81"/>
    <rect id="Rectangle_104" data-name="Rectangle 104" width="1.714" height="0.656" transform="translate(62.427 30.74)" fill="#751f81"/>
    <rect id="Rectangle_105" data-name="Rectangle 105" width="1.714" height="1.714" transform="translate(68.868 33.39)" fill="#833d8f"/>
    <rect id="Rectangle_106" data-name="Rectangle 106" width="1.714" height="1.714" transform="translate(65.648 33.39)" fill="#833d8f"/>
    <rect id="Rectangle_107" data-name="Rectangle 107" width="1.714" height="1.714" transform="translate(62.427 33.39)" fill="#833d8f"/>
    <rect id="Rectangle_108" data-name="Rectangle 108" width="1.714" height="0.656" transform="translate(68.868 33.392)" fill="#751f81"/>
    <rect id="Rectangle_109" data-name="Rectangle 109" width="1.714" height="0.656" transform="translate(65.648 33.392)" fill="#751f81"/>
    <rect id="Rectangle_110" data-name="Rectangle 110" width="1.714" height="0.656" transform="translate(62.427 33.392)" fill="#751f81"/>
    <path id="Tracé_204" data-name="Tracé 204" d="M322.042,260.256h20.425a1.688,1.688,0,0,0,1.688-1.688v-4.846a1.688,1.688,0,0,0-1.688-1.688H322.042a1.688,1.688,0,0,0-1.688,1.688v4.846a1.688,1.688,0,0,0,1.688,1.688" transform="translate(-271.255 -213.406)" fill="#009cdc"/>
    <path id="Tracé_205" data-name="Tracé 205" d="M322.042,289.012h20.425a1.688,1.688,0,0,0,1.688-1.688v1.125a1.688,1.688,0,0,1-1.688,1.688H322.042a1.688,1.688,0,0,1-1.688-1.688v-1.125a1.688,1.688,0,0,0,1.688,1.688" transform="translate(-271.255 -243.287)" fill="#0083b9"/>
    <path id="Tracé_206" data-name="Tracé 206" d="M339.061,270.409a1,1,0,1,0,1-1,1,1,0,0,0-1,1" transform="translate(-287.094 -228.119)" fill="#fff"/>
    <path id="Tracé_207" data-name="Tracé 207" d="M340.06,274.928a1,1,0,0,0,.961-.733,1,1,0,1,1-1.922,0,1,1,0,0,0,.961.733" transform="translate(-287.095 -232.17)" fill="#c7c9cb"/>
    <rect id="Rectangle_111" data-name="Rectangle 111" width="1.714" height="1.714" transform="translate(68.868 40.088)" fill="#833d8f"/>
    <rect id="Rectangle_112" data-name="Rectangle 112" width="1.714" height="1.714" transform="translate(65.648 40.088)" fill="#833d8f"/>
    <rect id="Rectangle_113" data-name="Rectangle 113" width="1.714" height="1.714" transform="translate(62.427 40.088)" fill="#833d8f"/>
    <rect id="Rectangle_114" data-name="Rectangle 114" width="1.714" height="0.656" transform="translate(68.868 40.087)" fill="#751f81"/>
    <rect id="Rectangle_115" data-name="Rectangle 115" width="1.714" height="0.656" transform="translate(65.648 40.087)" fill="#751f81"/>
    <rect id="Rectangle_116" data-name="Rectangle 116" width="1.714" height="0.656" transform="translate(62.427 40.087)" fill="#751f81"/>
    <rect id="Rectangle_117" data-name="Rectangle 117" width="1.714" height="1.714" transform="translate(68.868 42.737)" fill="#833d8f"/>
    <rect id="Rectangle_118" data-name="Rectangle 118" width="1.714" height="1.714" transform="translate(65.648 42.737)" fill="#833d8f"/>
    <rect id="Rectangle_119" data-name="Rectangle 119" width="1.714" height="1.714" transform="translate(62.427 42.737)" fill="#833d8f"/>
    <rect id="Rectangle_120" data-name="Rectangle 120" width="1.714" height="0.656" transform="translate(68.868 42.739)" fill="#751f81"/>
    <rect id="Rectangle_121" data-name="Rectangle 121" width="1.714" height="0.656" transform="translate(65.648 42.739)" fill="#751f81"/>
    <rect id="Rectangle_122" data-name="Rectangle 122" width="1.714" height="0.656" transform="translate(62.427 42.739)" fill="#751f81"/>
  </g>
</svg>
