<svg xmlns="http://www.w3.org/2000/svg" width="38.25" height="34" viewBox="0 0 38.25 34">
  <path id="icone_panier" d="M33.516,21.25H14.05l.435,2.125H32.309a1.594,1.594,0,0,1,1.554,1.947L33.5,26.934a3.72,3.72,0,1,1-4.223.691H15.352a3.719,3.719,0,1,1-4.452-.569L6.234,4.25H1.594A1.594,1.594,0,0,1,0,2.656V1.594A1.594,1.594,0,0,1,1.594,0H8.4A1.594,1.594,0,0,1,9.964,1.274l.609,2.976H36.656A1.594,1.594,0,0,1,38.21,6.2L35.07,20.009A1.594,1.594,0,0,1,33.516,21.25Zm-6.753-8.5H23.906V8.766a.8.8,0,0,0-.8-.8H21.516a.8.8,0,0,0-.8.8V12.75H17.861a.8.8,0,0,0-.563,1.36l4.451,4.451a.8.8,0,0,0,1.127,0l4.451-4.451A.8.8,0,0,0,26.764,12.75Z" fill="#009cdc"/>
</svg>
