<svg xmlns="http://www.w3.org/2000/svg" width="122" height="122" viewBox="0 0 122 122">
  <g id="icone_bpi" data-name="icone bpi" transform="translate(-135 -263)">
    <g id="Groupe_107" data-name="Groupe 107" transform="translate(135 263)">
      <path id="Tracé_505" data-name="Tracé 505" d="M122,61A61,61,0,1,1,61,0a61,61,0,0,1,61,61" fill="#1e2d70"/>
      <path id="Tracé_506" data-name="Tracé 506" d="M159.218,106.444A52.774,52.774,0,1,1,106.443,53.67a52.774,52.774,0,0,1,52.774,52.774" transform="translate(-45.443 -45.444)" fill="#0a2449"/>
    </g>
    <rect id="Rectangle_170" data-name="Rectangle 170" width="29" height="26" transform="translate(183 308)" fill="#833d8f"/>
    <path id="Icon_awesome-cart-arrow-down" data-name="Icon awesome-cart-arrow-down" d="M55.415,35.134H23.229l.719,3.513H53.419a2.635,2.635,0,0,1,2.57,3.219l-.606,2.665A6.151,6.151,0,1,1,48.4,45.674H25.382a6.148,6.148,0,1,1-7.361-.94L10.308,7.027H2.635A2.635,2.635,0,0,1,0,4.392V2.635A2.635,2.635,0,0,1,2.635,0H13.892a2.635,2.635,0,0,1,2.582,2.107l1.006,4.92H60.606a2.635,2.635,0,0,1,2.57,3.219l-5.19,22.837A2.635,2.635,0,0,1,55.415,35.134ZM44.25,21.081H39.526V14.493a1.318,1.318,0,0,0-1.318-1.318H35.573a1.318,1.318,0,0,0-1.318,1.318v6.588H29.532A1.317,1.317,0,0,0,28.6,23.33l7.359,7.359a1.318,1.318,0,0,0,1.863,0l7.359-7.359A1.318,1.318,0,0,0,44.25,21.081Z" transform="translate(160.379 299.393)" fill="#009cdc"/>
  </g>
</svg>
