<svg id="image_astuce" data-name="image astuce" xmlns="http://www.w3.org/2000/svg" xmlns:xlink="http://www.w3.org/1999/xlink" width="122" height="122" viewBox="0 0 122 122">
  <defs>
    <clipPath id="clip-path">
      <rect id="Rectangle_161" data-name="Rectangle 161" width="122" height="122" fill="none"/>
    </clipPath>
  </defs>
  <g id="Groupe_74" data-name="Groupe 74" clip-path="url(#clip-path)">
    <path id="Tracé_448" data-name="Tracé 448" d="M122,61A61,61,0,1,1,61,0a61,61,0,0,1,61,61" fill="#1e2d70"/>
    <path id="Tracé_449" data-name="Tracé 449" d="M159.218,106.444A52.774,52.774,0,1,1,106.443,53.67a52.774,52.774,0,0,1,52.774,52.774" transform="translate(-45.443 -45.444)" fill="#0a2449"/>
    <path id="Tracé_450" data-name="Tracé 450" d="M298.512,240.939A21.988,21.988,0,0,0,276.8,218.952h-.06c-.071,0-.142,0-.214,0A21.987,21.987,0,0,0,259.89,255.32a23.685,23.685,0,0,1,5.69,15.354h0v11.506a9.082,9.082,0,0,0,7.215,8.887,3.627,3.627,0,0,0,3.438,2.473h.591a3.627,3.627,0,0,0,3.438-2.473,9.082,9.082,0,0,0,7.215-8.887V270.673h-.005a23.887,23.887,0,0,1,5.8-15.477,21.9,21.9,0,0,0,5.248-14.258" transform="translate(-215.524 -185.394)" fill="#1e2d70"/>
    <path id="Tracé_451" data-name="Tracé 451" d="M385.3,123.044a2.3,2.3,0,0,0,2.3-2.3V112.7a2.3,2.3,0,1,0-4.6,0v8.048a2.3,2.3,0,0,0,2.3,2.3" transform="translate(-324.299 -93.478)" fill="#1e2d70"/>
    <path id="Tracé_452" data-name="Tracé 452" d="M583.593,352.957c0-.019,0-.039-.006-.058q-.01-.087-.026-.171c0-.025-.011-.05-.016-.075-.01-.042-.02-.084-.032-.125s-.019-.063-.029-.095-.017-.048-.026-.072q-.037-.1-.083-.194l-.016-.034c-.02-.041-.042-.08-.064-.12a2.3,2.3,0,0,0-1.989-1.15h-8.048a2.3,2.3,0,0,0-1.989,1.15c-.023.039-.044.079-.064.12l-.016.034q-.046.095-.083.194c-.009.024-.018.048-.026.072s-.02.063-.029.095-.022.083-.032.125c-.006.025-.012.05-.016.075-.011.056-.019.113-.026.171,0,.019,0,.039-.006.058-.006.068-.01.137-.01.206a2.3,2.3,0,0,0,2.3,2.3H581.3a2.3,2.3,0,0,0,2.3-2.3c0-.07,0-.138-.01-.206" transform="translate(-483.449 -297.088)" fill="#1e2d70"/>
    <path id="Tracé_453" data-name="Tracé 453" d="M155.181,353.163c0-.07,0-.138-.01-.206,0-.019,0-.039-.006-.058q-.01-.086-.026-.171c0-.025-.011-.05-.016-.075-.01-.042-.02-.084-.032-.125s-.019-.063-.029-.095-.017-.048-.026-.072q-.037-.1-.083-.194l-.016-.034c-.02-.041-.042-.08-.064-.12a2.3,2.3,0,0,0-1.989-1.15h-8.048a2.3,2.3,0,0,0-1.989,1.15c-.023.039-.044.079-.064.12l-.016.034q-.046.095-.083.194c-.009.024-.018.048-.026.072s-.02.063-.029.095-.022.083-.032.125c-.006.025-.012.05-.016.075-.011.056-.019.114-.026.171,0,.019,0,.039-.006.058-.006.068-.01.137-.01.206a2.3,2.3,0,0,0,2.3,2.3h8.048a2.3,2.3,0,0,0,2.3-2.3" transform="translate(-120.689 -297.088)" fill="#1e2d70"/>
    <path id="Tracé_454" data-name="Tracé 454" d="M515.993,188.239l0,.012c-.016.065-.03.13-.041.2,0,.007,0,.014,0,.021-.01.063-.017.125-.022.188,0,.011,0,.022,0,.033,0,.059-.005.118,0,.178,0,.015,0,.03,0,.046,0,.055.005.111.012.166,0,.02.006.04.009.059.007.051.014.1.025.151,0,.024.012.048.017.072.011.046.022.091.036.136.009.028.019.055.029.083s.028.081.044.121.029.062.044.094.032.07.05.1.04.069.061.1.034.059.053.088.057.078.086.117c.017.022.031.044.049.066.048.059.1.117.155.172a2.3,2.3,0,0,0,3.251,0l5.69-5.69c.055-.055.107-.113.155-.172.017-.021.032-.044.049-.066.029-.038.059-.077.086-.116s.035-.059.053-.088.042-.068.061-.1.034-.07.05-.1.031-.062.044-.094.03-.08.044-.121.02-.055.029-.083c.014-.045.025-.091.036-.136.006-.024.013-.048.017-.072.01-.05.018-.1.025-.151,0-.02.006-.039.008-.059.006-.055.009-.11.012-.165,0-.015,0-.031,0-.046,0-.059,0-.118,0-.178,0-.011,0-.022,0-.033,0-.063-.012-.126-.022-.188,0-.007,0-.014,0-.021q-.016-.1-.041-.2l0-.012c-.017-.067-.038-.133-.061-.2l0,0a2.3,2.3,0,0,0-3.785-.844l-5.69,5.69a2.285,2.285,0,0,0-.534.844v0q-.035.1-.062.2" transform="translate(-436.846 -153.114)" fill="#1e2d70"/>
    <path id="Tracé_455" data-name="Tracé 455" d="M223.258,485.939c0-.011,0-.022,0-.033,0-.063-.012-.126-.022-.188l0-.021c-.011-.066-.025-.131-.041-.2l0-.012q-.026-.1-.062-.2v0a2.3,2.3,0,0,0-3.785-.844l-5.69,5.69a2.286,2.286,0,0,0-.534.844v0c-.024.066-.044.132-.062.2l0,.012c-.016.065-.03.13-.041.2,0,.007,0,.014,0,.021-.01.063-.017.125-.022.188,0,.011,0,.022,0,.033,0,.059-.005.118,0,.178,0,.015,0,.03,0,.046,0,.055.006.111.012.166,0,.02.006.039.008.059.007.051.015.1.025.151,0,.024.012.048.017.072.011.046.022.091.036.136.009.028.019.055.029.083s.028.081.044.121.029.062.043.094.032.07.05.1.04.069.061.1.034.059.053.088.056.078.086.116c.017.022.031.044.049.066.048.059.1.117.155.172a2.3,2.3,0,0,0,3.251,0l5.69-5.69c.055-.055.107-.113.155-.172.017-.021.032-.044.049-.066.029-.038.059-.077.086-.116s.035-.059.053-.088.042-.068.061-.1.034-.07.05-.1.03-.062.044-.094.03-.08.044-.121.021-.055.029-.083c.014-.045.025-.091.036-.136.006-.024.013-.048.017-.072.01-.05.018-.1.025-.151,0-.02.006-.039.009-.059.006-.055.009-.11.012-.165,0-.015,0-.031,0-.046,0-.059,0-.118,0-.178" transform="translate(-180.335 -409.624)" fill="#1e2d70"/>
    <path id="Tracé_456" data-name="Tracé 456" d="M526.2,491.63c0-.011,0-.022,0-.033,0-.063-.012-.126-.022-.188l0-.021c-.011-.066-.025-.131-.041-.2l0-.012q-.026-.1-.062-.2v0a2.285,2.285,0,0,0-.535-.845l-5.69-5.69a2.3,2.3,0,0,0-3.785.844v0q-.035.1-.062.2l0,.012c-.016.065-.03.13-.041.2,0,.007,0,.014,0,.021-.01.063-.017.125-.022.188,0,.011,0,.022,0,.033,0,.059-.005.119,0,.178,0,.015,0,.03,0,.046,0,.055.006.111.012.166,0,.02.006.039.008.059.007.051.015.1.025.151,0,.024.012.048.017.072.011.046.022.091.036.136.009.028.019.055.029.083s.028.081.044.121.029.062.043.094.032.07.05.1.041.069.061.1.034.059.053.088.056.078.086.117c.017.022.031.044.049.066.048.059.1.116.155.172l5.69,5.69a2.3,2.3,0,0,0,3.251,0c.055-.055.107-.113.155-.172.017-.021.032-.044.049-.066.029-.038.059-.077.086-.116s.035-.059.053-.088.042-.068.061-.1.034-.07.05-.1.03-.062.044-.094.03-.08.044-.121.021-.055.029-.083c.014-.045.025-.091.036-.136.006-.024.013-.048.018-.072.01-.05.018-.1.025-.151,0-.02.006-.039.009-.059.006-.055.009-.11.012-.165,0-.015,0-.031,0-.046,0-.059,0-.118,0-.178" transform="translate(-436.846 -409.625)" fill="#1e2d70"/>
    <path id="Tracé_457" data-name="Tracé 457" d="M213.052,182.549l0,.012c-.016.065-.03.13-.041.2,0,.007,0,.014,0,.021-.01.063-.017.125-.022.188,0,.011,0,.022,0,.033,0,.059-.005.118,0,.178,0,.015,0,.03,0,.046,0,.055.005.111.012.166,0,.02.006.04.009.059.007.05.014.1.025.151,0,.024.012.048.017.072.011.046.022.091.036.136.009.028.019.055.029.083s.028.081.044.121.029.063.044.094.032.07.05.1.04.069.061.1.034.059.053.088.057.078.086.116c.017.022.031.044.049.066a2.3,2.3,0,0,0,.155.172l5.69,5.69a2.3,2.3,0,0,0,3.251,0c.055-.055.107-.113.155-.172.017-.021.032-.044.049-.066.029-.038.059-.077.086-.116s.035-.059.053-.088.042-.068.061-.1.034-.07.05-.1.03-.062.044-.094.03-.08.044-.121.02-.055.029-.083c.014-.045.025-.091.036-.136.006-.024.013-.048.017-.072.01-.05.018-.1.025-.151,0-.02.006-.039.008-.059.006-.055.01-.11.012-.165,0-.015,0-.031,0-.046,0-.059,0-.119,0-.178,0-.011,0-.022,0-.033,0-.063-.012-.126-.022-.188,0-.007,0-.014,0-.021-.011-.066-.025-.131-.041-.2l0-.012c-.017-.067-.038-.133-.061-.2l0,0a2.282,2.282,0,0,0-.534-.843l-5.69-5.69a2.3,2.3,0,0,0-3.785.844v0c-.024.066-.044.132-.062.2" transform="translate(-180.336 -153.114)" fill="#1e2d70"/>
    <path id="Tracé_458" data-name="Tracé 458" d="M298.512,220.932a21.988,21.988,0,1,0-38.622,14.381,23.7,23.7,0,0,1,5.691,15.523v.307h21.884v-.473a23.887,23.887,0,0,1,5.8-15.481,21.9,21.9,0,0,0,5.248-14.258" transform="translate(-215.524 -168.453)" fill="#c7c9cb"/>
    <path id="Tracé_459" data-name="Tracé 459" d="M320.386,220.932c0-12.052-7.565-21.84-16.94-21.987-9.5-.149-17.344,9.749-17.367,21.931a25.8,25.8,0,0,0,4.177,14.437,27.978,27.978,0,0,1,4.44,15.523v.307h17.073v-.473a28.133,28.133,0,0,1,4.523-15.481,25.828,25.828,0,0,0,4.095-14.258" transform="translate(-242.232 -168.453)" fill="#fff"/>
    <path id="Tracé_460" data-name="Tracé 460" d="M376.631,642.274h-.591a3.626,3.626,0,0,1-3.626-3.626v-.591a3.626,3.626,0,0,1,3.626-3.626h.591a3.626,3.626,0,0,1,3.626,3.626v.591a3.626,3.626,0,0,1-3.626,3.626" transform="translate(-315.335 -537.194)" fill="#002d85"/>
    <path id="Tracé_461" data-name="Tracé 461" d="M388.313,642.274h0a1.753,1.753,0,0,1-1.753-1.753v-4.336a1.753,1.753,0,1,1,3.507,0v4.336a1.753,1.753,0,0,1-1.753,1.753" transform="translate(-327.313 -537.194)" fill="#1b3a8f"/>
    <path id="Tracé_462" data-name="Tracé 462" d="M345.044,380.844a1.736,1.736,0,0,1-.361-.038,2.563,2.563,0,0,1-1.7-2.963l3.324-23.431H334.636l3.325,23.431a2.563,2.563,0,0,1-1.7,2.963,2.173,2.173,0,0,1-2.419-2.086l-3.75-26.432a2.989,2.989,0,0,1,.46-2.088,1.963,1.963,0,0,1,1.6-.913h16.642a1.963,1.963,0,0,1,1.6.913,2.99,2.99,0,0,1,.46,2.088L347.1,378.72a2.265,2.265,0,0,1-2.059,2.124" transform="translate(-279.471 -295.753)" fill="#009cdc"/>
    <path id="Tracé_463" data-name="Tracé 463" d="M354.509,392.436h2.09L360.349,366H343.707l3.75,26.432h2.09a3.1,3.1,0,0,0-.029-.439l-3.324-23.431h11.669L354.538,392a3.15,3.15,0,0,0-.029.439" transform="translate(-291.028 -309.908)" fill="#0083b9"/>
    <rect id="Rectangle_157" data-name="Rectangle 157" width="21.895" height="11.506" transform="translate(50.052 82.214)" fill="#002d85"/>
    <rect id="Rectangle_158" data-name="Rectangle 158" width="15.527" height="11.506" transform="translate(53.237 82.214)" fill="#1b3a8f"/>
    <rect id="Rectangle_159" data-name="Rectangle 159" width="21.895" height="5.753" transform="translate(50.052 82.214)" fill="#751f81"/>
    <rect id="Rectangle_160" data-name="Rectangle 160" width="15.527" height="5.753" transform="translate(53.237 82.214)" fill="#833d8f"/>
    <path id="Tracé_464" data-name="Tracé 464" d="M339.386,620.564h-3.737a9.079,9.079,0,0,1-9.079-9.079h21.9a9.079,9.079,0,0,1-9.079,9.079" transform="translate(-276.518 -517.765)" fill="#751f81"/>
    <path id="Tracé_465" data-name="Tracé 465" d="M355.228,620.564h-.235a7.646,7.646,0,0,1-7.646-7.646v-1.434h15.527v1.434a7.646,7.646,0,0,1-7.646,7.646" transform="translate(-294.11 -517.765)" fill="#833d8f"/>
    <path id="Tracé_466" data-name="Tracé 466" d="M385.3,103.044a2.3,2.3,0,0,1-2.3-2.3V92.7a2.3,2.3,0,1,1,4.6,0v8.048a2.3,2.3,0,0,1-2.3,2.3" transform="translate(-324.299 -76.543)" fill="#009cdc"/>
    <path id="Tracé_467" data-name="Tracé 467" d="M385.3,140.2a2.3,2.3,0,0,1-2.3-2.3v3.065a2.3,2.3,0,1,0,4.6,0V137.9a2.3,2.3,0,0,1-2.3,2.3" transform="translate(-324.299 -116.769)" fill="#0083b9"/>
    <path id="Tracé_468" data-name="Tracé 468" d="M581.3,335.462h-8.048a2.3,2.3,0,1,1,0-4.6H581.3a2.3,2.3,0,1,1,0,4.6" transform="translate(-483.449 -280.154)" fill="#009cdc"/>
    <path id="Tracé_469" data-name="Tracé 469" d="M581.3,339.514h-8.048a2.3,2.3,0,0,1-1.989-1.15,2.3,2.3,0,0,0,1.989,3.448H581.3a2.3,2.3,0,0,0,1.989-3.448,2.3,2.3,0,0,1-1.989,1.15" transform="translate(-483.449 -286.504)" fill="#0083b9"/>
    <path id="Tracé_470" data-name="Tracé 470" d="M152.882,335.462h-8.048a2.3,2.3,0,1,1,0-4.6h8.048a2.3,2.3,0,0,1,0,4.6" transform="translate(-120.689 -280.154)" fill="#009cdc"/>
    <path id="Tracé_471" data-name="Tracé 471" d="M152.882,339.514h-8.048a2.3,2.3,0,0,1-1.989-1.15,2.3,2.3,0,0,0,1.989,3.448h8.048a2.3,2.3,0,0,0,1.989-3.448,2.3,2.3,0,0,1-1.989,1.15" transform="translate(-120.689 -286.504)" fill="#0083b9"/>
    <path id="Tracé_472" data-name="Tracé 472" d="M518.205,171.117a2.3,2.3,0,0,1-1.626-3.924l5.69-5.69a2.3,2.3,0,0,1,3.251,3.251l-5.691,5.69a2.291,2.291,0,0,1-1.626.673" transform="translate(-436.835 -136.179)" fill="#009cdc"/>
    <path id="Tracé_473" data-name="Tracé 473" d="M525.529,165.922l-5.69,5.69a2.3,2.3,0,0,1-3.251,0c-.03-.03-.056-.062-.084-.093a2.3,2.3,0,0,0,3.335,3.158l5.69-5.69a2.3,2.3,0,0,0,.084-3.158c-.028.031-.054.063-.084.093" transform="translate(-436.843 -140.413)" fill="#0083b9"/>
    <path id="Tracé_474" data-name="Tracé 474" d="M215.264,474.058a2.3,2.3,0,0,1-1.626-3.925l5.69-5.69a2.3,2.3,0,0,1,3.251,3.251l-5.691,5.69a2.292,2.292,0,0,1-1.626.673" transform="translate(-180.325 -392.689)" fill="#009cdc"/>
    <path id="Tracé_475" data-name="Tracé 475" d="M222.588,468.864l-5.69,5.691a2.3,2.3,0,0,1-3.251,0c-.03-.03-.056-.062-.084-.093a2.3,2.3,0,0,0,3.335,3.158l5.69-5.691a2.3,2.3,0,0,0,.084-3.158c-.028.031-.054.063-.084.093" transform="translate(-180.333 -396.924)" fill="#0083b9"/>
    <path id="Tracé_476" data-name="Tracé 476" d="M523.9,474.059a2.291,2.291,0,0,1-1.625-.673l-5.691-5.69a2.3,2.3,0,0,1,3.251-3.251l5.69,5.69a2.3,2.3,0,0,1-1.626,3.925" transform="translate(-436.835 -392.69)" fill="#009cdc"/>
    <path id="Tracé_477" data-name="Tracé 477" d="M525.529,474.553a2.3,2.3,0,0,1-3.251,0l-5.69-5.69c-.03-.03-.056-.062-.084-.093a2.3,2.3,0,0,0,.084,3.158l5.69,5.69a2.3,2.3,0,0,0,3.335-3.158c-.028.031-.054.063-.084.093" transform="translate(-436.843 -396.923)" fill="#0083b9"/>
    <path id="Tracé_478" data-name="Tracé 478" d="M220.955,171.118a2.291,2.291,0,0,1-1.626-.673l-5.691-5.69a2.3,2.3,0,1,1,3.251-3.251l5.69,5.69a2.3,2.3,0,0,1-1.626,3.924" transform="translate(-180.325 -136.18)" fill="#009cdc"/>
    <path id="Tracé_479" data-name="Tracé 479" d="M222.588,171.612a2.3,2.3,0,0,1-3.251,0l-5.69-5.69c-.03-.03-.056-.062-.084-.093a2.3,2.3,0,0,0,.084,3.158l5.69,5.69a2.3,2.3,0,0,0,3.335-3.158c-.028.031-.054.063-.084.093" transform="translate(-180.333 -140.413)" fill="#0083b9"/>
  </g>
</svg>
