<svg id="icone_whois" data-name="icone whois" xmlns="http://www.w3.org/2000/svg" xmlns:xlink="http://www.w3.org/1999/xlink" width="122" height="122" viewBox="0 0 122 122">
  <defs>
    <clipPath id="clip-path">
      <rect id="Rectangle_155" data-name="Rectangle 155" width="122" height="122" fill="none"/>
    </clipPath>
  </defs>
  <g id="Groupe_68" data-name="Groupe 68" clip-path="url(#clip-path)">
    <path id="Tracé_395" data-name="Tracé 395" d="M122,61A61,61,0,1,1,61,0a61,61,0,0,1,61,61" fill="#1e2d70"/>
    <path id="Tracé_396" data-name="Tracé 396" d="M159.218,106.444A52.774,52.774,0,1,1,106.443,53.67a52.774,52.774,0,0,1,52.774,52.774" transform="translate(-45.443 -45.444)" fill="#0a2449"/>
    <path id="Tracé_397" data-name="Tracé 397" d="M250.429,554.9H229.985a.766.766,0,0,0-.766.766v.069a1.533,1.533,0,0,1-1.533,1.533H214.659a1.533,1.533,0,0,1-1.533-1.533.835.835,0,0,0-.835-.835H191.916a2.751,2.751,0,0,0-2.751,2.751v.688A3.832,3.832,0,0,0,193,562.168h56.351a3.832,3.832,0,0,0,3.832-3.832v-.687h0a2.751,2.751,0,0,0-2.751-2.751" transform="translate(-160.172 -469.851)" fill="#1e2d70"/>
    <path id="Tracé_398" data-name="Tracé 398" d="M253.18,215.656V183.641a3.832,3.832,0,0,0-3.832-3.832h-11.01v-8.191a4.566,4.566,0,0,0-2.6-4.123,33.868,33.868,0,0,0-29.126,0h0a4.567,4.567,0,0,0-2.6,4.123v8.191H193a3.832,3.832,0,0,0-3.832,3.832v32.015h0v1.533A3.831,3.831,0,0,0,193,221.02h56.351a3.832,3.832,0,0,0,3.832-3.832v-1.533Z" transform="translate(-160.173 -139.038)" fill="#1e2d70"/>
    <path id="Tracé_399" data-name="Tracé 399" d="M249.349,557.365H193a3.832,3.832,0,0,1-3.832-3.832v-.688H253.18v.688a3.832,3.832,0,0,1-3.832,3.832" transform="translate(-160.173 -468.113)" fill="#751f81"/>
    <path id="Tracé_400" data-name="Tracé 400" d="M250.429,534.9H229.985a.766.766,0,0,0-.766.766v.069a1.533,1.533,0,0,1-1.533,1.533H214.659a1.533,1.533,0,0,1-1.533-1.533.835.835,0,0,0-.835-.835H191.916a2.751,2.751,0,1,0,0,5.5h58.512a2.751,2.751,0,1,0,0-5.5" transform="translate(-160.172 -452.915)" fill="#833d8f"/>
    <path id="Tracé_401" data-name="Tracé 401" d="M249.349,287.226H193a3.832,3.832,0,0,1-3.832-3.832V249.848A3.832,3.832,0,0,1,193,246.016h56.351a3.832,3.832,0,0,1,3.832,3.832v33.547a3.832,3.832,0,0,1-3.832,3.832" transform="translate(-160.173 -208.31)" fill="#833d8f"/>
    <path id="Tracé_402" data-name="Tracé 402" d="M249.349,483.729H193a3.832,3.832,0,0,1-3.832-3.832v1.533A3.832,3.832,0,0,0,193,485.261h56.351a3.832,3.832,0,0,0,3.832-3.832V479.9a3.832,3.832,0,0,1-3.832,3.832" transform="translate(-160.173 -406.345)" fill="#751f81"/>
    <path id="Tracé_403" data-name="Tracé 403" d="M270.091,294.553h-51.83a1.929,1.929,0,0,1-1.929-1.929V262.93A1.929,1.929,0,0,1,218.262,261h51.83a1.928,1.928,0,0,1,1.929,1.929v29.695a1.929,1.929,0,0,1-1.929,1.929" transform="translate(-183.176 -220.998)" fill="#009cdc"/>
    <path id="Tracé_404" data-name="Tracé 404" d="M270.091,261h-51.83a1.929,1.929,0,0,0-1.929,1.929v1.533a1.929,1.929,0,0,1,1.929-1.929h51.83a1.929,1.929,0,0,1,1.929,1.929v-1.533A1.929,1.929,0,0,0,270.091,261" transform="translate(-183.176 -220.997)" fill="#0083b9"/>
    <path id="Tracé_405" data-name="Tracé 405" d="M226.265,548.495h-5.637a.962.962,0,1,1,0-1.924h5.637a.962.962,0,1,1,0,1.924" transform="translate(-185.999 -462.8)" fill="#fff"/>
    <path id="Tracé_406" data-name="Tracé 406" d="M226.265,550.925h-5.637a.962.962,0,0,1-.882-.579.961.961,0,0,0,.882,1.345h5.637a.961.961,0,0,0,.882-1.345.962.962,0,0,1-.882.579" transform="translate(-185.999 -465.996)" fill="#c7c9cb"/>
    <path id="Tracé_407" data-name="Tracé 407" d="M533.6,548.495h-5.637a.962.962,0,1,1,0-1.924H533.6a.962.962,0,1,1,0,1.924" transform="translate(-446.229 -462.8)" fill="#fff"/>
    <path id="Tracé_408" data-name="Tracé 408" d="M533.6,550.925h-5.637a.962.962,0,0,1-.882-.579.961.961,0,0,0,.882,1.345H533.6a.961.961,0,0,0,.882-1.345.962.962,0,0,1-.882.579" transform="translate(-446.229 -465.996)" fill="#c7c9cb"/>
    <path id="Tracé_409" data-name="Tracé 409" d="M506.557,547.624a.945.945,0,1,1-.945-.945.945.945,0,0,1,.945.945" transform="translate(-427.319 -462.892)" fill="#009cdc"/>
    <path id="Tracé_410" data-name="Tracé 410" d="M505.611,550.908a.945.945,0,0,1-.863-.562.945.945,0,1,0,1.727,0,.945.945,0,0,1-.863.562" transform="translate(-427.318 -465.996)" fill="#0083b9"/>
    <path id="Tracé_411" data-name="Tracé 411" d="M316.827,197.761,305.5,208.908a3.322,3.322,0,0,1-4.66,0L289.5,197.761A11.735,11.735,0,0,1,286,189.4V171.619a4.566,4.566,0,0,1,2.6-4.123,33.868,33.868,0,0,1,29.126,0,4.566,4.566,0,0,1,2.6,4.123V189.4a11.734,11.734,0,0,1-3.505,8.365" transform="translate(-242.166 -139.038)" fill="#0083b9"/>
    <path id="Tracé_412" data-name="Tracé 412" d="M316.827,177.761,305.5,188.908a3.322,3.322,0,0,1-4.66,0L289.5,177.761A11.735,11.735,0,0,1,286,169.4V151.619a4.566,4.566,0,0,1,2.6-4.123,33.868,33.868,0,0,1,29.126,0,4.566,4.566,0,0,1,2.6,4.123V169.4a11.734,11.734,0,0,1-3.505,8.365" transform="translate(-242.166 -122.103)" fill="#fff"/>
    <path id="Tracé_413" data-name="Tracé 413" d="M329,180.949V165.405a3.988,3.988,0,0,0-2.312-3.6,30.527,30.527,0,0,0-25.875,0,3.988,3.988,0,0,0-2.312,3.6v15.543a10.18,10.18,0,0,0,3.114,7.314l10.066,9.747a2.986,2.986,0,0,0,4.14,0l10.066-9.747A10.18,10.18,0,0,0,329,180.949" transform="translate(-252.75 -134.566)" fill="#c7c9cb"/>
    <path id="Tracé_414" data-name="Tracé 414" d="M332.034,195.38l-9.208,9.059a2.7,2.7,0,0,1-3.787,0l-9.208-9.059a9.536,9.536,0,0,1-2.848-6.8V174.135a3.711,3.711,0,0,1,2.115-3.35,27.523,27.523,0,0,1,23.669,0,3.711,3.711,0,0,1,2.115,3.35v14.447a9.536,9.536,0,0,1-2.848,6.8" transform="translate(-259.933 -142.345)" fill="#833d8f"/>
    <path id="Tracé_415" data-name="Tracé 415" d="M332.767,170.785h0a27.523,27.523,0,0,0-23.669,0h0a3.711,3.711,0,0,0-2.115,3.35v1.992a3.711,3.711,0,0,1,2.115-3.35h0a27.523,27.523,0,0,1,23.669,0,3.711,3.711,0,0,1,2.115,3.35v-1.992a3.711,3.711,0,0,0-2.115-3.35" transform="translate(-259.933 -142.345)" fill="#751f81"/>
    <path id="Tracé_416" data-name="Tracé 416" d="M346.994,216.243a.857.857,0,0,1-.939-1.107c.8-4.561,4.159-4.092,4.863-7.513a1.738,1.738,0,0,0-1.643-2.214,2.4,2.4,0,0,0-2.583,2.247c-.1.671-.436.973-1.107.839l-3.823-.839a.985.985,0,0,1-.872-1.107c.2-2.415,1.476-6.909,8.385-6.909,7.513,0,7.781,5.936,7.747,6.943,0,5.567-3.891,6.037-5.1,8.821a1.112,1.112,0,0,1-1.14.839Zm-.1,1.71a.9.9,0,0,0-1.006,1.006v3.756a.918.918,0,0,0,1.006,1.006h3.756a.9.9,0,0,0,1.006-1.006v-3.756a.889.889,0,0,0-1.006-1.006Z" transform="translate(-288.641 -169.043)" fill="#fff"/>
    <path id="Tracé_417" data-name="Tracé 417" d="M348.759,235.374a2.385,2.385,0,0,1,2.481-2.244,1.57,1.57,0,0,0-1.4-.755,2.4,2.4,0,0,0-2.583,2.247c-.1.671-.436.973-1.107.839l-3.117-.684a1.021,1.021,0,0,0,.8.6l3.823.839c.671.134,1.006-.168,1.107-.839" transform="translate(-290.457 -196.76)" fill="#c7c9cb"/>
    <path id="Tracé_418" data-name="Tracé 418" d="M380.04,319.12h-.517a1.614,1.614,0,0,1,.02.255v3.756a.9.9,0,0,1-1.006,1.006H375.3a.9.9,0,0,0,.982.752h3.756a.9.9,0,0,0,1.006-1.006v-3.756a.889.889,0,0,0-1.006-1.006" transform="translate(-317.781 -270.21)" fill="#c7c9cb"/>
    <path id="Tracé_419" data-name="Tracé 419" d="M382.8,203.151a6.771,6.771,0,0,1,2.784,5.653c0,5.567-3.891,6.037-5.1,8.821a1.112,1.112,0,0,1-1.14.839H376.1a.845.845,0,0,0,.96.751h3.79a1.112,1.112,0,0,0,1.14-.838c1.207-2.784,5.1-3.253,5.1-8.821a6.568,6.568,0,0,0-4.287-6.4" transform="translate(-318.457 -172.015)" fill="#c7c9cb"/>
  </g>
</svg>
