<svg id="icone_bureau_virtuel" data-name="icone bureau virtuel" xmlns="http://www.w3.org/2000/svg" xmlns:xlink="http://www.w3.org/1999/xlink" width="122" height="122" viewBox="0 0 122 122">
  <defs>
    <clipPath id="clip-path">
      <rect id="Rectangle_131" data-name="Rectangle 131" width="122" height="122" fill="none"/>
    </clipPath>
  </defs>
  <g id="Groupe_15" data-name="Groupe 15" clip-path="url(#clip-path)">
    <path id="Tracé_262" data-name="Tracé 262" d="M122,61A61,61,0,1,1,61,0a61,61,0,0,1,61,61" fill="#1e2d70"/>
    <path id="Tracé_263" data-name="Tracé 263" d="M159.218,106.444A52.774,52.774,0,1,1,106.443,53.67a52.774,52.774,0,0,1,52.774,52.774" transform="translate(-45.443 -45.444)" fill="#0a2449"/>
    <path id="Tracé_264" data-name="Tracé 264" d="M236.751,223h-61.92A3.832,3.832,0,0,0,171,226.832v39.849a3.832,3.832,0,0,0,3.832,3.832h1.686v.358a.766.766,0,0,0,.766.766h4.956a.766.766,0,0,0,.766-.766v-.358h1.673v.358a.766.766,0,0,0,.766.766h1.712a.766.766,0,0,0,.766-.766v-.358h11.048L195.982,281.7H190.72a1.946,1.946,0,0,0-1.84,1.325h0a1.909,1.909,0,0,0-.052.185l0,.015c-.013.057-.022.116-.029.175,0,.01,0,.021,0,.031a1.994,1.994,0,0,0-.011.209,1.941,1.941,0,0,0,1.941,1.941h30.142a1.941,1.941,0,0,0,1.941-1.941,1.994,1.994,0,0,0-.012-.209c0-.01,0-.021,0-.031-.007-.059-.017-.118-.029-.175l0-.015a1.909,1.909,0,0,0-.052-.185h0a1.941,1.941,0,0,0-1.84-1.325H215.6l-2.989-11.188h24.14a3.832,3.832,0,0,0,3.832-3.832V226.832A3.832,3.832,0,0,0,236.751,223" transform="translate(-144.791 -188.822)" fill="#1e2d70"/>
    <path id="Tracé_265" data-name="Tracé 265" d="M236.751,250.513h-61.92A3.832,3.832,0,0,1,171,246.681V206.832A3.832,3.832,0,0,1,174.832,203h61.92a3.832,3.832,0,0,1,3.832,3.832v39.849a3.832,3.832,0,0,1-3.832,3.832" transform="translate(-144.791 -171.887)" fill="#009cdc"/>
    <path id="Tracé_266" data-name="Tracé 266" d="M353.618,524.188H334L336.989,513h13.64Z" transform="translate(-282.809 -434.374)" fill="#1b3a8f"/>
    <path id="Tracé_267" data-name="Tracé 267" d="M319.084,589.883H288.941a1.941,1.941,0,0,1,0-3.883h30.142a1.941,1.941,0,1,1,0,3.883" transform="translate(-243.013 -496.186)" fill="#009cdc"/>
    <path id="Tracé_268" data-name="Tracé 268" d="M319.084,594.553H288.941a1.94,1.94,0,0,1-1.765-1.137,1.939,1.939,0,0,0,1.765,2.746h30.142a1.938,1.938,0,0,0,1.765-2.746,1.94,1.94,0,0,1-1.765,1.137" transform="translate(-243.013 -502.465)" fill="#0083b9"/>
    <path id="Tracé_269" data-name="Tracé 269" d="M240.583,241.47V206.832A3.832,3.832,0,0,0,236.751,203h-61.92A3.832,3.832,0,0,0,171,206.832V241.47Z" transform="translate(-144.791 -171.887)" fill="#833d8f"/>
    <path id="Tracé_270" data-name="Tracé 270" d="M212.722,514.124h-4.956a.766.766,0,0,1-.766-.766V513h6.488v.358a.766.766,0,0,1-.766.766" transform="translate(-175.274 -434.374)" fill="#833d8f"/>
    <path id="Tracé_271" data-name="Tracé 271" d="M262.728,514.124h-1.712a.766.766,0,0,1-.766-.766V513h3.244v.358a.766.766,0,0,1-.766.766" transform="translate(-220.362 -434.374)" fill="#833d8f"/>
    <path id="Tracé_272" data-name="Tracé 272" d="M371.947,203h-2.81l-38.47,38.47h45.111V206.832A3.832,3.832,0,0,0,371.947,203" transform="translate(-279.987 -171.887)" fill="#751f81"/>
    <path id="Tracé_273" data-name="Tracé 273" d="M362.6,516.755l-1-3.755H347.96l-1,3.755Z" transform="translate(-293.78 -434.374)" fill="#002d85"/>
    <path id="Tracé_274" data-name="Tracé 274" d="M217.984,468.083H207.421a.422.422,0,0,0-.421.421v.421a.422.422,0,0,0,.421.422h10.563a.421.421,0,0,0,.421-.422V468.5a.421.421,0,0,0-.421-.421" transform="translate(-175.274 -396.342)" fill="#002d85"/>
    <path id="Tracé_275" data-name="Tracé 275" d="M218.125,470.461H207.281c-.1,0-.193-.128-.242-.316a1.266,1.266,0,0,0-.039.316c0,.349.126.632.281.632h10.844c.155,0,.281-.283.281-.632a1.266,1.266,0,0,0-.039-.316c-.049.188-.138.316-.242.316" transform="translate(-175.274 -398.088)" fill="#0083b9"/>
    <path id="Tracé_276" data-name="Tracé 276" d="M217.984,486.333H207.421a.422.422,0,0,0-.421.421v.421a.422.422,0,0,0,.421.421h10.563a.421.421,0,0,0,.421-.421v-.421a.421.421,0,0,0-.421-.421" transform="translate(-175.274 -411.795)" fill="#002d85"/>
    <path id="Tracé_277" data-name="Tracé 277" d="M218.125,488.711H207.281c-.1,0-.193-.128-.242-.316a1.267,1.267,0,0,0-.039.316c0,.349.126.632.281.632h10.844c.155,0,.281-.283.281-.632a1.267,1.267,0,0,0-.039-.316c-.049.188-.138.316-.242.316" transform="translate(-175.274 -413.54)" fill="#0083b9"/>
    <path id="Tracé_278" data-name="Tracé 278" d="M414,463.043h28.508a3.832,3.832,0,0,0,3.832-3.832V454h-23.3Z" transform="translate(-350.548 -384.417)" fill="#0083b9"/>
    <path id="Tracé_279" data-name="Tracé 279" d="M559.441,472.261a2.776,2.776,0,1,1-2.776-2.776,2.776,2.776,0,0,1,2.776,2.776" transform="translate(-468.997 -397.529)" fill="#1b3a8f"/>
    <path id="Tracé_280" data-name="Tracé 280" d="M559.441,467.261a2.776,2.776,0,1,1-2.776-2.776,2.776,2.776,0,0,1,2.776,2.776" transform="translate(-468.997 -393.295)" fill="#833d8f"/>
    <path id="Tracé_281" data-name="Tracé 281" d="M560.614,473.271a2.061,2.061,0,1,1,2.061-2.061,2.063,2.063,0,0,1-2.061,2.061m0-3.356a1.295,1.295,0,1,0,1.295,1.294,1.3,1.3,0,0,0-1.295-1.294" transform="translate(-472.946 -397.244)" fill="#751f81"/>
    <path id="Tracé_282" data-name="Tracé 282" d="M569.883,471.594a.383.383,0,0,1-.383-.383v-1.678a.383.383,0,1,1,.766,0v1.678a.383.383,0,0,1-.383.383" transform="translate(-482.215 -397.245)" fill="#751f81"/>
    <path id="Tracé_283" data-name="Tracé 283" d="M284.928,283.261s-11.189,12.261-24.991,12.261-24.991-12.261-24.991-12.261S246.136,271,259.938,271s24.991,12.261,24.991,12.261" transform="translate(-198.938 -229.465)" fill="#751f81"/>
    <path id="Tracé_284" data-name="Tracé 284" d="M284.928,263.261s-11.189,12.261-24.991,12.261-24.991-12.261-24.991-12.261S246.136,251,259.938,251s24.991,12.261,24.991,12.261" transform="translate(-198.938 -212.53)" fill="#fff"/>
    <path id="Tracé_285" data-name="Tracé 285" d="M283.381,321c-3.526,3.289-12.691,10.729-23.443,10.729S240.022,324.289,236.5,321c-1,.933-1.548,1.533-1.548,1.533s11.189,12.261,24.99,12.261,24.991-12.261,24.991-12.261-.547-.6-1.548-1.533" transform="translate(-198.938 -271.802)" fill="#c7c9cb"/>
    <path id="Tracé_286" data-name="Tracé 286" d="M351.538,274.269A10.269,10.269,0,1,1,341.269,264a10.269,10.269,0,0,1,10.269,10.269" transform="translate(-280.269 -223.538)" fill="#009cdc"/>
    <path id="Tracé_287" data-name="Tracé 287" d="M361.868,286.881a7.986,7.986,0,1,1-7.986-7.986,7.986,7.986,0,0,1,7.986,7.986" transform="translate(-292.882 -236.15)" fill="#0083b9"/>
    <path id="Tracé_288" data-name="Tracé 288" d="M368.181,294.59a6.59,6.59,0,1,1-6.59-6.59,6.591,6.591,0,0,1,6.59,6.59" transform="translate(-300.59 -243.859)" fill="#751f81"/>
    <path id="Tracé_289" data-name="Tracé 289" d="M380.5,309.637a3.867,3.867,0,1,1-3.867-3.867,3.867,3.867,0,0,1,3.867,3.867" transform="translate(-315.638 -258.906)" fill="#833d8f"/>
    <path id="Tracé_290" data-name="Tracé 290" d="M408.824,290.912A2.912,2.912,0,1,1,405.912,288a2.912,2.912,0,0,1,2.912,2.912" transform="translate(-341.234 -243.859)" fill="#fff"/>
  </g>
</svg>
