<svg xmlns="http://www.w3.org/2000/svg" xmlns:xlink="http://www.w3.org/1999/xlink" width="122" height="122" viewBox="0 0 122 122">
  <defs>
    <clipPath id="clip-path">
      <rect id="Rectangle_169" data-name="Rectangle 169" width="122" height="122" fill="none"/>
    </clipPath>
  </defs>
  <g id="icone_contact" data-name="icone contact" transform="translate(-135 -263)">
    <g id="Groupe_93" data-name="Groupe 93" transform="translate(135 263)">
      <g id="Groupe_92" data-name="Groupe 92" clip-path="url(#clip-path)">
        <path id="Tracé_528" data-name="Tracé 528" d="M122,61A61,61,0,1,1,61,0a61,61,0,0,1,61,61" fill="#1e2d70"/>
        <path id="Tracé_529" data-name="Tracé 529" d="M159.218,106.444A52.774,52.774,0,1,1,106.443,53.67a52.774,52.774,0,0,1,52.774,52.774" transform="translate(-45.443 -45.444)" fill="#0a2449"/>
        <path id="Tracé_530" data-name="Tracé 530" d="M233.306,219.208q.017-.286.03-.574c.006-.122.01-.245.014-.368.005-.144.011-.287.014-.431.007-.28.011-.56.011-.841h0c0-.242,0-.482-.008-.723,0-.015,0-.03,0-.046s0-.049,0-.073c0-.06,0-.12,0-.18q-.011-.4-.031-.806c0-.05-.006-.1-.008-.151q-.019-.353-.045-.7c0-.058-.008-.117-.013-.175q-.03-.388-.069-.774-.011-.107-.022-.214-.037-.353-.08-.7a36.205,36.205,0,0,0-7.432-17.855h0c-.1-.124-.2-.247-.3-.37-.055-.069-.11-.138-.166-.206l-.059-.073c-.108-.132-.219-.262-.329-.393l-.065-.078-.137-.162c-.124-.144-.249-.286-.375-.429l-.166-.187q-.2-.218-.4-.433l-.154-.165q-.209-.223-.423-.442l-.134-.137q-.225-.229-.454-.455l-.107-.1q-.244-.238-.492-.472l-.069-.064q-.268-.251-.541-.5h0a36.465,36.465,0,0,0-7.326-5.112h0q-.815-.431-1.653-.821l0,0a36.1,36.1,0,0,0-4.025-1.586l-.035-.011q-.869-.283-1.758-.523l-.042-.011q-.411-.111-.826-.211h0q-.492-.12-.989-.226h0a36.374,36.374,0,0,0-5.246-.726l-.179-.011c-.191-.011-.383-.022-.575-.031l-.365-.014c-.145,0-.289-.011-.435-.014-.279-.007-.559-.011-.84-.011h0c-.281,0-.561,0-.84.011-.145,0-.29.009-.434.014l-.365.014c-.192.008-.384.019-.575.031l-.179.011a36.374,36.374,0,0,0-5.246.726h0q-.5.106-.989.226h0q-.415.1-.825.211l-.042.012q-.888.24-1.758.523l-.033.011a36.137,36.137,0,0,0-4.027,1.587h0a36.436,36.436,0,0,0-8.982,5.935h0q-.273.246-.541.5l-.069.064q-.248.233-.491.471l-.108.105q-.229.225-.453.454l-.135.139q-.213.219-.422.441l-.154.166q-.2.215-.4.433l-.166.187c-.126.142-.251.285-.375.429l-.137.162-.065.077c-.11.131-.221.261-.329.393l-.06.073c-.055.068-.109.136-.164.2a36.212,36.212,0,0,0-7.729,18.226q-.044.351-.08.7c-.008.071-.015.143-.022.214q-.038.386-.069.774c0,.058-.008.117-.013.175q-.026.351-.045.7c0,.05-.006.1-.008.151q-.02.4-.031.806,0,.09,0,.18c0,.024,0,.049,0,.073s0,.03,0,.045c0,.241-.008.482-.008.724h0q0,.422.011.841c0,.145.009.289.014.434,0,.122.008.244.014.366q.013.288.031.574c0,.06.008.12.011.181q.022.335.049.669h0a36.177,36.177,0,0,0,2.394,10.276q.326.826.69,1.632a36.366,36.366,0,0,0,4.546,7.49c.108.137.218.271.328.407.049.061.1.123.148.183.119.146.241.29.363.433.056.066.112.133.169.2l.105.125c.089.1.18.2.27.3l.166.187q.2.219.4.434l.153.165q.209.223.422.442l.134.138c.081.083.161.166.242.248s.141.137.212.207l.107.1c.1.1.2.2.306.3.061.059.124.115.186.173l.067.063c.341.319.686.633,1.039.938q.33.286.667.564a36.4,36.4,0,0,0,7.82,4.93h0a36.14,36.14,0,0,0,4.028,1.587l.032.01q.871.283,1.76.523l.04.011q.412.111.827.212h0a36.305,36.305,0,0,0,5.568.9h0q.334.028.669.049l.181.012q.287.017.574.03l.366.014c.145,0,.289.011.434.014q.419.01.841.011h0q.422,0,.841-.011c.145,0,.289-.009.434-.014l.366-.014q.288-.013.574-.03l.181-.012q.335-.022.669-.049h0a36.344,36.344,0,0,0,4.576-.677h0q.5-.106.991-.227h0q.414-.1.825-.211l.043-.011q.888-.24,1.758-.523l.033-.011A36.143,36.143,0,0,0,212.315,250h0q.84-.391,1.656-.822h0a36.456,36.456,0,0,0,6.163-4.108q.337-.278.667-.564c.167-.145.332-.293.5-.44h0q.273-.245.54-.5l.07-.065c.061-.058.124-.114.185-.173.1-.1.2-.2.305-.3l.108-.106c.07-.069.141-.137.211-.206s.161-.166.242-.248l.134-.138q.213-.219.422-.442l.154-.165q.2-.215.4-.433l.166-.187c.09-.1.181-.2.27-.3.036-.041.07-.084.106-.125l.168-.2c.122-.144.243-.288.363-.434.05-.061.1-.123.149-.185.109-.135.219-.269.327-.406l.045-.059h0a36.307,36.307,0,0,0,4.5-7.431q.364-.806.69-1.632a36.177,36.177,0,0,0,2.394-10.276h0c.019-.222.034-.446.049-.669q.006-.09.012-.181" transform="translate(-135.991 -152.927)" fill="#1e2d70"/>
        <path id="Tracé_531" data-name="Tracé 531" d="M233.376,196.992a36.384,36.384,0,1,1-36.384-36.384,36.384,36.384,0,0,1,36.384,36.384" transform="translate(-135.992 -135.992)" fill="#1b3a8f"/>
        <path id="Tracé_532" data-name="Tracé 532" d="M196.992,399.346A36.391,36.391,0,0,1,160.9,367.618a36.384,36.384,0,1,0,72.177,0,36.391,36.391,0,0,1-36.089,31.728" transform="translate(-135.992 -311.275)" fill="#002d85"/>
        <path id="Tracé_533" data-name="Tracé 533" d="M224.524,531.888q1.091,1.167,2.281,2.236c6.329-2.949,15.047-4.65,24.307-4.65s17.978,1.7,24.307,4.65q1.189-1.068,2.281-2.236c-7.144-3.237-16.642-5.1-26.588-5.1s-19.444,1.859-26.588,5.1" transform="translate(-190.112 -446.053)" fill="#0083b9"/>
        <path id="Tracé_534" data-name="Tracé 534" d="M239.613,242.925c-10.061,0-19.663-1.9-26.834-5.21q-.958,1.045-1.835,2.162c7.32,3.862,17.724,6.113,28.669,6.113s21.35-2.251,28.669-6.113q-.875-1.118-1.835-2.162c-7.171,3.307-16.773,5.21-26.834,5.21" transform="translate(-178.613 -201.281)" fill="#0083b9"/>
        <path id="Tracé_535" data-name="Tracé 535" d="M233.247,389.533H160.738q-.063-.762-.1-1.533-.032.762-.033,1.532v0c0,1.032.045,2.054.13,3.065h72.509c.084-1.011.13-2.032.13-3.065v0q0-.77-.033-1.532-.033.77-.1,1.533" transform="translate(-135.992 -328.533)" fill="#0083b9"/>
        <path id="Tracé_536" data-name="Tracé 536" d="M256.806,230.589c-3.66-7.733-5.676-18.083-5.676-29.142s2.016-21.409,5.676-29.142a29.832,29.832,0,0,1,4-6.436,36.127,36.127,0,0,0-9.34,3.394c-.068.14-.137.277-.2.419C247.225,178.218,245,189.5,245,201.447s2.225,23.229,6.265,31.765c.067.141.136.279.2.419a36.12,36.12,0,0,0,9.34,3.394,29.826,29.826,0,0,1-4-6.436" transform="translate(-207.45 -140.447)" fill="#009cdc"/>
        <path id="Tracé_537" data-name="Tracé 537" d="M268.065,201.447c0-11.06,2.016-21.409,5.676-29.142a29.84,29.84,0,0,1,4-6.436,36.077,36.077,0,0,0-3.909,1.069,31.9,31.9,0,0,0-3.159,5.366c-3.66,7.733-5.676,18.083-5.676,29.142s2.016,21.409,5.676,29.142a31.911,31.911,0,0,0,3.159,5.366,36.112,36.112,0,0,0,3.909,1.069,29.84,29.84,0,0,1-4-6.436c-3.66-7.733-5.676-18.083-5.676-29.142" transform="translate(-224.384 -140.447)" fill="#0083b9"/>
        <path id="Tracé_538" data-name="Tracé 538" d="M451.857,172.3c3.66,7.733,5.676,18.083,5.676,29.142s-2.016,21.409-5.676,29.142a29.833,29.833,0,0,1-4,6.436,36.126,36.126,0,0,0,9.34-3.394c.068-.14.137-.277.2-.419,4.04-8.536,6.265-19.817,6.265-31.765s-2.225-23.229-6.265-31.765c-.067-.141-.136-.279-.2-.419a36.127,36.127,0,0,0-9.34-3.394,29.833,29.833,0,0,1,4,6.436" transform="translate(-379.214 -140.446)" fill="#009cdc"/>
        <path id="Tracé_539" data-name="Tracé 539" d="M447.855,237.024a36.11,36.11,0,0,0,3.909-1.069,31.9,31.9,0,0,0,3.159-5.366c3.66-7.733,5.676-18.083,5.676-29.142s-2.016-21.409-5.676-29.142a31.9,31.9,0,0,0-3.159-5.366,36.145,36.145,0,0,0-3.909-1.069,29.833,29.833,0,0,1,4,6.436c3.66,7.733,5.676,18.083,5.676,29.142s-2.016,21.409-5.676,29.142a29.833,29.833,0,0,1-4,6.436" transform="translate(-379.214 -140.446)" fill="#0083b9"/>
        <path id="Tracé_540" data-name="Tracé 540" d="M173.188,378H160.738c-.084,1.011-.13,2.032-.13,3.065v0c0,1.032.045,2.054.13,3.065h10.308A5.668,5.668,0,0,1,173.188,378" transform="translate(-135.992 -320.065)" fill="#009cdc"/>
        <path id="Tracé_541" data-name="Tracé 541" d="M378,317.455v6.878a7.644,7.644,0,0,1,6.131,0v-6.878a5.665,5.665,0,0,1-6.131,0" transform="translate(-320.065 -268.8)" fill="#009cdc"/>
        <path id="Tracé_542" data-name="Tracé 542" d="M439.355,382.6a7.673,7.673,0,0,1-.154,1.533h7.54A5.667,5.667,0,0,1,448.883,378H437.816a7.606,7.606,0,0,1,1.539,4.6" transform="translate(-370.714 -320.065)" fill="#009cdc"/>
        <path id="Tracé_543" data-name="Tracé 543" d="M295.506,382.6a7.606,7.606,0,0,1,1.539-4.6H285.978a5.667,5.667,0,0,1,2.142,6.131h7.54a7.676,7.676,0,0,1-.154-1.533" transform="translate(-242.147 -320.065)" fill="#009cdc"/>
        <path id="Tracé_544" data-name="Tracé 544" d="M381.065,454.31a7.612,7.612,0,0,1-3.065-.642v6.878a5.665,5.665,0,0,1,6.131,0v-6.878a7.612,7.612,0,0,1-3.065.642" transform="translate(-320.065 -384.136)" fill="#009cdc"/>
        <path id="Tracé_545" data-name="Tracé 545" d="M235.382,448.048a73.979,73.979,0,0,0-11.2,1.437,77.876,77.876,0,0,1-1.684-11.755,5.672,5.672,0,0,1-6.114.409,84.051,84.051,0,0,0,1.869,12.9,44.9,44.9,0,0,0-7.313,3.01,36.59,36.59,0,0,0,4.362,4.667,40.252,40.252,0,0,1,4.573-1.782,54.76,54.76,0,0,0,2.55,6.476c.067.141.136.279.2.419a36.129,36.129,0,0,0,9.34,3.394,29.825,29.825,0,0,1-4-6.436,48.421,48.421,0,0,1-2.15-5.394,67.5,67.5,0,0,1,8.665-1.146,5.67,5.67,0,0,1,.9-6.195" transform="translate(-178.614 -370.642)" fill="#009cdc"/>
        <path id="Tracé_546" data-name="Tracé 546" d="M438.491,437.731a77.873,77.873,0,0,1-1.684,11.755,73.98,73.98,0,0,0-11.2-1.437,5.67,5.67,0,0,1,.9,6.195,67.489,67.489,0,0,1,8.665,1.146,48.441,48.441,0,0,1-2.15,5.394,29.827,29.827,0,0,1-4,6.436,36.13,36.13,0,0,0,9.34-3.394c.068-.14.136-.277.2-.419a54.735,54.735,0,0,0,2.55-6.476,40.253,40.253,0,0,1,4.573,1.782,36.6,36.6,0,0,0,4.362-4.667,44.915,44.915,0,0,0-7.313-3.009,84.056,84.056,0,0,0,1.869-12.9,5.672,5.672,0,0,1-6.114-.409" transform="translate(-360.38 -370.642)" fill="#009cdc"/>
        <path id="Tracé_547" data-name="Tracé 547" d="M565.762,378H553.311a5.667,5.667,0,0,1,2.142,6.131h10.308c.084-1.011.13-2.032.13-3.065v0c0-1.032-.045-2.054-.13-3.065" transform="translate(-468.507 -320.065)" fill="#009cdc"/>
        <path id="Tracé_548" data-name="Tracé 548" d="M378,560.788v11.3c1.011.084,2.032.13,3.065.13h0c1.032,0,2.054-.045,3.065-.13v-11.3a5.665,5.665,0,0,1-6.131,0" transform="translate(-320.065 -474.838)" fill="#009cdc"/>
        <path id="Tracé_549" data-name="Tracé 549" d="M285.34,377.627h.1l-.1-.068c0,.023,0,.045,0,.068" transform="translate(-241.607 -319.692)" fill="#002d85"/>
        <path id="Tracé_550" data-name="Tracé 550" d="M228.712,418a5.683,5.683,0,0,0,2.721,3.433q-.118-1.7-.174-3.433Z" transform="translate(-193.658 -353.935)" fill="#002d85"/>
        <path id="Tracé_551" data-name="Tracé 551" d="M421.037,364.733a7.667,7.667,0,0,0-3.037-2.4v2.4Z" transform="translate(-353.935 -306.799)" fill="#002d85"/>
        <path id="Tracé_552" data-name="Tracé 552" d="M418,294.527a5.668,5.668,0,0,0,2.571-4.15c-.852.061-1.708.112-2.571.145Z" transform="translate(-353.935 -245.872)" fill="#002d85"/>
        <path id="Tracé_553" data-name="Tracé 553" d="M510.12,377.627c0-.023,0-.045,0-.068l-.1.068Z" transform="translate(-431.853 -319.692)" fill="#002d85"/>
        <path id="Tracé_554" data-name="Tracé 554" d="M418,423.467A7.653,7.653,0,0,0,422.422,418H418Z" transform="translate(-353.935 -353.935)" fill="#002d85"/>
        <path id="Tracé_555" data-name="Tracé 555" d="M363.8,294.527v-4.005c-.863-.033-1.719-.084-2.571-.145a5.668,5.668,0,0,0,2.571,4.15" transform="translate(-305.861 -245.872)" fill="#002d85"/>
        <path id="Tracé_556" data-name="Tracé 556" d="M361.221,362.332a7.667,7.667,0,0,0-3.037,2.4h3.037Z" transform="translate(-303.286 -306.799)" fill="#002d85"/>
        <path id="Tracé_557" data-name="Tracé 557" d="M349.15,418a7.653,7.653,0,0,0,4.422,5.467V418Z" transform="translate(-295.637 -353.935)" fill="#002d85"/>
        <path id="Tracé_558" data-name="Tracé 558" d="M551.019,376.488q-.2-.146-.415-.274c0,.091.008.182.01.274Z" transform="translate(-466.215 -318.553)" fill="#002d85"/>
        <path id="Tracé_559" data-name="Tracé 559" d="M364.54,544.823a5.694,5.694,0,0,0,2.063,2.348v-2.465c-.693.028-1.38.069-2.063.117" transform="translate(-308.668 -461.222)" fill="#002d85"/>
        <path id="Tracé_560" data-name="Tracé 560" d="M498.129,421.024q.1-1.5.156-3.024h-2.24a5.677,5.677,0,0,0,2.084,3.024" transform="translate(-420.018 -353.935)" fill="#002d85"/>
        <path id="Tracé_561" data-name="Tracé 561" d="M418,547.172a5.694,5.694,0,0,0,2.063-2.348c-.683-.047-1.37-.088-2.063-.117Z" transform="translate(-353.935 -461.222)" fill="#002d85"/>
        <path id="Tracé_562" data-name="Tracé 562" d="M243.1,376.214c-.143.085-.281.177-.415.274h.4c0-.091.007-.182.01-.274" transform="translate(-205.492 -318.553)" fill="#002d85"/>
        <path id="Tracé_563" data-name="Tracé 563" d="M418,498.545v.94c.39.015.778.036,1.167.057a5.7,5.7,0,0,0-1.167-1" transform="translate(-353.935 -422.135)" fill="#002d85"/>
        <path id="Tracé_564" data-name="Tracé 564" d="M370.388,499.543c.388-.021.776-.042,1.167-.057v-.94a5.7,5.7,0,0,0-1.167,1" transform="translate(-313.62 -422.136)" fill="#002d85"/>
        <path id="Tracé_565" data-name="Tracé 565" d="M287.58,418h-2.24q.052,1.524.156,3.024A5.677,5.677,0,0,0,287.58,418" transform="translate(-241.607 -353.935)" fill="#002d85"/>
        <path id="Tracé_566" data-name="Tracé 566" d="M549.534,421.433A5.682,5.682,0,0,0,552.255,418h-2.547q-.055,1.73-.174,3.433" transform="translate(-465.309 -353.935)" fill="#002d85"/>
        <path id="Tracé_567" data-name="Tracé 567" d="M236.38,381.228q-.1-1.5-.156-3.024h2.24a5.667,5.667,0,0,0-2.142-6.131h-.1c0-.023,0-.045,0-.068a5.669,5.669,0,0,0-6.125-.206c0,.091-.008.182-.01.274h-.4a5.668,5.668,0,0,0-2.142,6.131h2.547q.056,1.73.174,3.433a5.672,5.672,0,0,0,6.114-.409" transform="translate(-192.491 -314.138)" fill="#0083b9"/>
        <path id="Tracé_568" data-name="Tracé 568" d="M363.606,259.775a5.665,5.665,0,0,0,6.131,0V255.77c.863-.033,1.719-.084,2.571-.145a5.74,5.74,0,0,0,.034-.62A5.671,5.671,0,0,0,361,255a5.748,5.748,0,0,0,.034.62c.852.061,1.708.112,2.571.145Z" transform="translate(-305.671 -211.119)" fill="#0083b9"/>
        <path id="Tracé_569" data-name="Tracé 569" d="M370.9,494.565c-.388-.021-.776-.042-1.167-.057v-.94a5.665,5.665,0,0,0-6.131,0v.94c-.39.015-.779.036-1.167.057a5.671,5.671,0,0,0-.9,6.195c.683-.047,1.37-.088,2.063-.116v2.465a5.665,5.665,0,0,0,6.131,0v-2.465c.693.028,1.38.069,2.063.116a5.67,5.67,0,0,0-.9-6.195" transform="translate(-305.671 -417.158)" fill="#0083b9"/>
        <path id="Tracé_570" data-name="Tracé 570" d="M352.721,358.787v2.4h-3.037a7.654,7.654,0,0,0-1.385,6.131h4.422v5.467a7.642,7.642,0,0,0,6.131,0v-5.467h4.422a7.654,7.654,0,0,0-1.385-6.131h-3.037v-2.4a7.642,7.642,0,0,0-6.131,0" transform="translate(-294.786 -303.253)" fill="#0083b9"/>
        <path id="Tracé_571" data-name="Tracé 571" d="M503.654,372.073h-.4c0-.091-.007-.182-.01-.274a5.669,5.669,0,0,0-6.125.206c0,.023,0,.045,0,.068h-.1a5.667,5.667,0,0,0-2.142,6.131h2.24q-.052,1.524-.156,3.024a5.671,5.671,0,0,0,6.114.409q.117-1.7.174-3.433H505.8a5.668,5.668,0,0,0-2.142-6.131" transform="translate(-418.85 -314.138)" fill="#0083b9"/>
        <path id="Tracé_572" data-name="Tracé 572" d="M363.428,355.786a7.641,7.641,0,1,1-7.641-7.641,7.641,7.641,0,0,1,7.641,7.641" transform="translate(-294.787 -294.786)" fill="#751f81"/>
        <path id="Tracé_573" data-name="Tracé 573" d="M373.035,367.518A5.518,5.518,0,1,1,367.518,362a5.518,5.518,0,0,1,5.518,5.518" transform="translate(-306.518 -306.518)" fill="#833d8f"/>
        <path id="Tracé_574" data-name="Tracé 574" d="M372.342,245a5.671,5.671,0,1,1-5.671-5.671A5.671,5.671,0,0,1,372.342,245" transform="translate(-305.671 -202.651)" fill="#c7c9cb"/>
        <path id="Tracé_575" data-name="Tracé 575" d="M384.341,259.657a3.019,3.019,0,1,1-3.019-3.019,3.019,3.019,0,0,1,3.019,3.019" transform="translate(-320.323 -217.304)" fill="#fff"/>
        <path id="Tracé_576" data-name="Tracé 576" d="M372.342,488.338a5.671,5.671,0,1,1-5.671-5.671,5.671,5.671,0,0,1,5.671,5.671" transform="translate(-305.671 -408.69)" fill="#c7c9cb"/>
        <path id="Tracé_577" data-name="Tracé 577" d="M500.338,372.342a5.671,5.671,0,1,1,5.671-5.671,5.671,5.671,0,0,1-5.671,5.671" transform="translate(-418.851 -305.671)" fill="#c7c9cb"/>
        <path id="Tracé_578" data-name="Tracé 578" d="M233,372.342a5.671,5.671,0,1,1,5.671-5.671A5.671,5.671,0,0,1,233,372.342" transform="translate(-192.49 -305.671)" fill="#c7c9cb"/>
        <path id="Tracé_579" data-name="Tracé 579" d="M250.675,381.324a3.019,3.019,0,1,1-3.019-3.019,3.019,3.019,0,0,1,3.019,3.019" transform="translate(-207.143 -320.324)" fill="#fff"/>
        <path id="Tracé_580" data-name="Tracé 580" d="M517.341,381.324a3.019,3.019,0,1,1-3.019-3.019,3.019,3.019,0,0,1,3.019,3.019" transform="translate(-432.938 -320.324)" fill="#fff"/>
        <path id="Tracé_581" data-name="Tracé 581" d="M384.341,502.991a3.019,3.019,0,1,1-3.019-3.019,3.019,3.019,0,0,1,3.019,3.019" transform="translate(-320.323 -423.343)" fill="#fff"/>
      </g>
    </g>
  </g>
</svg>
