<svg id="icone_backup_plan" data-name="icone backup plan" xmlns="http://www.w3.org/2000/svg" xmlns:xlink="http://www.w3.org/1999/xlink" width="122" height="122" viewBox="0 0 122 122">
  <defs>
    <clipPath id="clip-path">
      <rect id="Rectangle_134" data-name="Rectangle 134" width="122" height="122" fill="none"/>
    </clipPath>
  </defs>
  <g id="Groupe_20" data-name="Groupe 20" clip-path="url(#clip-path)">
    <path id="Tracé_311" data-name="Tracé 311" d="M122,61A61,61,0,1,1,61,0a61,61,0,0,1,61,61" fill="#1e2d70"/>
    <path id="Tracé_312" data-name="Tracé 312" d="M159.218,106.444A52.774,52.774,0,1,1,106.443,53.67a52.774,52.774,0,0,1,52.774,52.774" transform="translate(-45.443 -45.444)" fill="#0a2449"/>
    <path id="Tracé_313" data-name="Tracé 313" d="M245.565,228.523l-6.008-49.331v0c0-.119,0-.237-.009-.354,0-.037,0-.074-.007-.111q-.007-.123-.019-.245c0-.041-.008-.082-.012-.122-.009-.082-.019-.163-.031-.244,0-.035-.009-.07-.015-.105-.018-.113-.038-.225-.06-.337,0-.02-.009-.039-.013-.058q-.029-.139-.063-.275c-.01-.04-.021-.08-.032-.119q-.029-.107-.06-.212c-.013-.042-.025-.084-.039-.126-.023-.071-.047-.141-.071-.211-.013-.037-.026-.075-.04-.112q-.056-.151-.118-.3c-.016-.037-.033-.074-.049-.111-.028-.064-.057-.128-.087-.192-.022-.046-.044-.091-.067-.137s-.054-.107-.082-.159-.05-.095-.076-.141-.057-.1-.086-.15-.053-.093-.082-.139q-.077-.125-.158-.247c-.035-.052-.071-.1-.107-.154s-.052-.074-.079-.111c-.038-.052-.078-.1-.117-.155l-.076-.1c-.043-.053-.085-.107-.13-.159l-.058-.067q-.244-.283-.516-.542l-.05-.048q-.088-.082-.178-.161l-.048-.041a7.61,7.61,0,0,0-.885-.659l-.02-.013q-.116-.074-.235-.143l-.014-.008a7.552,7.552,0,0,0-1.035-.5l-.012,0a7.567,7.567,0,0,0-2.756-.518H192.323a7.567,7.567,0,0,0-2.756.518l-.011,0a7.552,7.552,0,0,0-1.035.5l-.014.008q-.119.069-.235.143l-.02.013a7.622,7.622,0,0,0-.885.659l-.048.041q-.09.079-.178.161l-.05.048q-.271.258-.516.542l-.058.067c-.044.052-.087.105-.13.159l-.076.1c-.04.051-.079.1-.117.155-.027.036-.053.074-.079.111s-.072.1-.107.154q-.081.122-.158.247c-.028.046-.054.092-.081.139s-.058.1-.086.15-.051.094-.076.141-.055.106-.082.159-.045.091-.067.137c-.03.063-.058.127-.087.192-.016.037-.033.074-.049.111q-.062.148-.118.3c-.014.037-.026.075-.04.112-.025.07-.049.14-.071.211-.013.042-.026.084-.039.126q-.032.106-.06.212c-.011.04-.022.079-.032.119q-.034.137-.063.275c0,.019-.009.039-.013.058-.023.111-.042.224-.06.337-.005.035-.01.07-.015.105-.012.081-.022.162-.031.244q-.006.061-.012.122-.011.122-.019.245c0,.037-.005.074-.007.111-.005.117-.009.235-.009.354v0l-6.008,49.331a7.59,7.59,0,0,0,7.367,9.413H238.2a7.59,7.59,0,0,0,7.367-9.413" transform="translate(-151.145 -145.302)" fill="#1e2d70"/>
    <path id="Tracé_314" data-name="Tracé 314" d="M266.385,166.781H226.74a7.589,7.589,0,0,1-7.589-7.589h0a7.589,7.589,0,0,1,7.589-7.589h39.645a7.589,7.589,0,0,1,7.589,7.589h0a7.589,7.589,0,0,1-7.589,7.589" transform="translate(-185.563 -128.367)" fill="#009cdc"/>
    <path id="Tracé_315" data-name="Tracé 315" d="M239.556,201.118l6.23,51.155H178.5l6.23-51.155Z" transform="translate(-151.145 -170.293)" fill="#009cdc"/>
    <path id="Tracé_316" data-name="Tracé 316" d="M189.809,155.241h0c0-.306.01-.608.027-.907a7.59,7.59,0,0,0-5.1,7.17h0l-6.23,51.155h6.881Z" transform="translate(-151.145 -130.68)" fill="#0083b9"/>
    <path id="Tracé_317" data-name="Tracé 317" d="M543.577,155.241h0L548,212.659h6.881l-6.23-51.155a7.59,7.59,0,0,0-5.1-7.17c.017.3.027.6.027.907" transform="translate(-460.242 -130.68)" fill="#0083b9"/>
    <path id="Tracé_318" data-name="Tracé 318" d="M238.2,500.546H186.092a7.589,7.589,0,1,1,0-15.178H238.2a7.589,7.589,0,1,1,0,15.178" transform="translate(-151.145 -410.977)" fill="#002d85"/>
    <path id="Tracé_319" data-name="Tracé 319" d="M255.574,513.214H204.313a4.789,4.789,0,0,1,0-9.578h51.261a4.789,4.789,0,0,1,0,9.578" transform="translate(-168.944 -426.446)" fill="#1b3a8f"/>
    <path id="Tracé_320" data-name="Tracé 320" d="M255.575,532.621H204.314a4.79,4.79,0,0,1-4.7-3.852,4.8,4.8,0,0,0-.092.937h0a4.789,4.789,0,0,0,4.789,4.789h51.261a4.789,4.789,0,0,0,4.789-4.789h0a4.816,4.816,0,0,0-.092-.937,4.79,4.79,0,0,1-4.7,3.852" transform="translate(-168.945 -447.727)" fill="#0083b9"/>
    <path id="Tracé_321" data-name="Tracé 321" d="M493.55,427.972c-2.1,0-3.81-1.42-3.81-3.165s1.709-3.165,3.81-3.165,3.81,1.42,3.81,3.165-1.709,3.165-3.81,3.165" transform="translate(-414.679 -357.019)" fill="#fff"/>
    <path id="Tracé_322" data-name="Tracé 322" d="M503.966,436.694a1.626,1.626,0,1,1,1.925-1.6,1.787,1.787,0,0,1-1.925,1.6" transform="translate(-425.095 -367.056)" fill="#009cdc"/>
    <path id="Tracé_323" data-name="Tracé 323" d="M493.55,422.58a3.66,3.66,0,0,1,3.764,2.7,2.638,2.638,0,0,0,.047-.469c0-1.745-1.709-3.165-3.81-3.165s-3.81,1.42-3.81,3.165a2.638,2.638,0,0,0,.046.469,3.66,3.66,0,0,1,3.764-2.7" transform="translate(-414.679 -357.019)" fill="#c7c9cb"/>
    <path id="Tracé_324" data-name="Tracé 324" d="M287.8,190.4a24.111,24.111,0,0,0-4.71.465l-4.705-5.089-9.419,13.875v1.874l21.713-2.454V197.2l-4.494-2.986c.534-.042,1.073-.065,1.615-.065,8.932,0,16.2,5.694,16.2,12.694s-7.267,12.694-16.2,12.694-16.2-5.695-16.2-12.694l-.343-1.874h-3.05l-.355,1.874c0,9.066,8.948,16.442,19.947,16.442s19.947-7.376,19.947-16.442S298.8,190.4,287.8,190.4" transform="translate(-226.804 -157.305)" fill="#0083b9"/>
    <path id="Tracé_325" data-name="Tracé 325" d="M287.8,180.4a24.111,24.111,0,0,0-4.71.465l-4.705-5.089-9.419,13.875v1.874l21.713-2.454V187.2l-4.494-2.986c.534-.042,1.073-.065,1.615-.065,8.932,0,16.2,5.694,16.2,12.694s-7.267,12.694-16.2,12.694-16.2-5.695-16.2-12.694l-.343-1.874h-3.05l-.355,1.874c0,9.066,8.948,16.442,19.947,16.442s19.947-7.376,19.947-16.442S298.8,180.4,287.8,180.4" transform="translate(-226.804 -148.838)" fill="#c7c9cb"/>
    <path id="Tracé_326" data-name="Tracé 326" d="M289.688,228.144a21.884,21.884,0,0,1-13.741-4.606,14.724,14.724,0,0,1-5.864-11.494h3.065c0,7.188,7.42,13.035,16.54,13.035s16.54-5.848,16.54-13.035-7.42-13.035-16.54-13.035a19.134,19.134,0,0,0-11.185,3.444l-1.8-2.481a22.218,22.218,0,0,1,12.984-4.028,21.884,21.884,0,0,1,13.741,4.606,14.2,14.2,0,0,1,0,22.989,21.884,21.884,0,0,1-13.741,4.606" transform="translate(-228.688 -165.912)" fill="#fff"/>
    <path id="Tracé_327" data-name="Tracé 327" d="M284.535,163.553l12.294,13.3L275.116,179.3Z" transform="translate(-232.95 -138.486)" fill="#fff"/>
  </g>
</svg>
