<svg xmlns="http://www.w3.org/2000/svg" xmlns:xlink="http://www.w3.org/1999/xlink" width="122" height="122" viewBox="0 0 122 122">
  <defs>
    <clipPath id="clip-path">
      <rect id="Rectangle_3" data-name="Rectangle 3" width="122" height="122" transform="translate(0.203 -0.092)" fill="none"/>
    </clipPath>
  </defs>
  <g id="icone_Serveurs_dediés" data-name="icone Serveurs dediés" transform="translate(-0.202 0.092)">
    <g id="Groupe_4" data-name="Groupe 4" clip-path="url(#clip-path)">
      <path id="Tracé_47" data-name="Tracé 47" d="M122,61A61,61,0,1,1,61,0a61,61,0,0,1,61,61" fill="#1e2d70"/>
      <path id="Tracé_48" data-name="Tracé 48" d="M159.219,106.445A52.775,52.775,0,1,1,106.444,53.67a52.775,52.775,0,0,1,52.775,52.775" transform="translate(-45.443 -45.444)" fill="#0a2449"/>
      <path id="Tracé_49" data-name="Tracé 49" d="M248.513,191.423H193a4.328,4.328,0,0,0-4.328,4.328v57.733A4.328,4.328,0,0,0,193,257.812h55.51a4.328,4.328,0,0,0,4.328-4.328V195.751a4.328,4.328,0,0,0-4.328-4.328" transform="translate(-159.757 -162.084)" fill="#1e2d70"/>
      <path id="Tracé_50" data-name="Tracé 50" d="M248.513,237.813H193a4.328,4.328,0,0,1-4.328-4.328V175.752A4.328,4.328,0,0,1,193,171.424h55.51a4.328,4.328,0,0,1,4.328,4.328v57.734a4.328,4.328,0,0,1-4.328,4.328" transform="translate(-159.757 -145.15)" fill="#833d8f"/>
      <path id="Tracé_51" data-name="Tracé 51" d="M267.579,205.893h-24.47l-.013.013H213.867a1.894,1.894,0,0,0-1.894,1.894v9.241a1.419,1.419,0,0,0,1.419,1.418h54.187A1.419,1.419,0,0,0,269,217.042v-9.73a1.419,1.419,0,0,0-1.419-1.418" transform="translate(-179.484 -174.336)" fill="#751f81"/>
      <path id="Tracé_52" data-name="Tracé 52" d="M267.579,303.937h-24.47l-.013.013H213.867a1.894,1.894,0,0,0-1.894,1.894v9.241a1.419,1.419,0,0,0,1.419,1.419h54.187A1.419,1.419,0,0,0,269,315.086v-9.73a1.419,1.419,0,0,0-1.419-1.419" transform="translate(-179.484 -257.353)" fill="#751f81"/>
      <path id="Tracé_53" data-name="Tracé 53" d="M267.579,401.98h-24.47l-.013.013H213.867a1.894,1.894,0,0,0-1.894,1.894v9.241a1.419,1.419,0,0,0,1.419,1.419h54.187A1.419,1.419,0,0,0,269,413.129V403.4a1.419,1.419,0,0,0-1.419-1.419" transform="translate(-179.484 -340.369)" fill="#751f81"/>
      <path id="Tracé_54" data-name="Tracé 54" d="M267.579,500.024h-24.47l-.013.013H213.867a1.894,1.894,0,0,0-1.894,1.894v9.241a1.419,1.419,0,0,0,1.419,1.419h54.187A1.419,1.419,0,0,0,269,511.173v-9.73a1.419,1.419,0,0,0-1.419-1.419" transform="translate(-179.484 -423.386)" fill="#751f81"/>
      <path id="Tracé_55" data-name="Tracé 55" d="M267.1,206.175H213.867a1.894,1.894,0,0,1-1.894-1.894v-8.766a1.894,1.894,0,0,1,1.894-1.894H267.1A1.894,1.894,0,0,1,269,195.515v8.766a1.894,1.894,0,0,1-1.894,1.894" transform="translate(-179.484 -163.945)" fill="#009cdc"/>
      <path id="Tracé_56" data-name="Tracé 56" d="M333.211,206.088h37.024a1.419,1.419,0,0,0,1.418-1.419v-9.717a1.419,1.419,0,0,0-1.418-1.419h-24.47Z" transform="translate(-282.14 -163.871)" fill="#0083b9"/>
      <path id="Tracé_57" data-name="Tracé 57" d="M267.579,254.734H213.392a1.419,1.419,0,0,1-1.419-1.419V255.3a1.419,1.419,0,0,0,1.419,1.419h54.187A1.419,1.419,0,0,0,269,255.3v-1.986a1.419,1.419,0,0,1-1.419,1.419" transform="translate(-179.484 -214.49)" fill="#1b3a8f"/>
      <path id="Tracé_58" data-name="Tracé 58" d="M245.854,213.51H245.7a.881.881,0,0,1-.881-.881V208.22a.881.881,0,0,1,.881-.881h.153a.881.881,0,0,1,.881.881v4.409a.881.881,0,0,1-.881.881" transform="translate(-207.297 -175.56)" fill="#833d8f"/>
      <path id="Tracé_59" data-name="Tracé 59" d="M245.778,232.592a.958.958,0,0,1-.957-.957v1.489a.958.958,0,0,0,1.915,0v-1.489a.958.958,0,0,1-.958.957" transform="translate(-207.298 -196.133)" fill="#751f81"/>
      <path id="Tracé_60" data-name="Tracé 60" d="M283.8,213.51h-.153a.881.881,0,0,1-.881-.881V208.22a.881.881,0,0,1,.881-.881h.153a.881.881,0,0,1,.881.881v4.409a.881.881,0,0,1-.881.881" transform="translate(-239.429 -175.56)" fill="#833d8f"/>
      <path id="Tracé_61" data-name="Tracé 61" d="M321.75,213.51H321.6a.881.881,0,0,1-.881-.881V208.22a.881.881,0,0,1,.881-.881h.153a.881.881,0,0,1,.881.881v4.409a.881.881,0,0,1-.881.881" transform="translate(-271.56 -175.56)" fill="#833d8f"/>
      <path id="Tracé_62" data-name="Tracé 62" d="M283.727,232.592a.958.958,0,0,1-.957-.957v1.489a.957.957,0,0,0,1.915,0v-1.489a.958.958,0,0,1-.957.957" transform="translate(-239.429 -196.133)" fill="#751f81"/>
      <path id="Tracé_63" data-name="Tracé 63" d="M321.674,232.592a.957.957,0,0,1-.957-.957v1.489a.957.957,0,0,0,1.915,0v-1.489a.957.957,0,0,1-.957.957" transform="translate(-271.561 -196.133)" fill="#751f81"/>
      <path id="Tracé_64" data-name="Tracé 64" d="M419.942,219.964a1.359,1.359,0,1,1-1.359-1.359,1.359,1.359,0,0,1,1.359,1.359" transform="translate(-353.277 -185.1)" fill="#fff"/>
      <path id="Tracé_65" data-name="Tracé 65" d="M418.584,226.119a1.358,1.358,0,0,1-1.309-1,1.359,1.359,0,1,0,2.618,0,1.358,1.358,0,0,1-1.309,1" transform="translate(-353.277 -190.616)" fill="#c7c9cb"/>
      <path id="Tracé_66" data-name="Tracé 66" d="M460.532,219.964a1.359,1.359,0,1,1-1.359-1.359,1.359,1.359,0,0,1,1.359,1.359" transform="translate(-387.646 -185.1)" fill="#fff"/>
      <path id="Tracé_67" data-name="Tracé 67" d="M459.174,226.119a1.358,1.358,0,0,1-1.309-1,1.359,1.359,0,1,0,2.618,0,1.358,1.358,0,0,1-1.309,1" transform="translate(-387.646 -190.616)" fill="#c7c9cb"/>
      <path id="Tracé_68" data-name="Tracé 68" d="M501.122,219.964a1.359,1.359,0,1,1-1.359-1.359,1.359,1.359,0,0,1,1.359,1.359" transform="translate(-422.015 -185.1)" fill="#fff"/>
      <path id="Tracé_69" data-name="Tracé 69" d="M499.764,226.119a1.358,1.358,0,0,1-1.309-1,1.359,1.359,0,1,0,2.618,0,1.358,1.358,0,0,1-1.309,1" transform="translate(-422.015 -190.616)" fill="#c7c9cb"/>
      <path id="Tracé_70" data-name="Tracé 70" d="M541.712,219.964a1.359,1.359,0,1,1-1.359-1.359,1.359,1.359,0,0,1,1.359,1.359" transform="translate(-456.384 -185.1)" fill="#fff"/>
      <path id="Tracé_71" data-name="Tracé 71" d="M540.354,226.119a1.358,1.358,0,0,1-1.309-1,1.359,1.359,0,1,0,2.618,0,1.358,1.358,0,0,1-1.309,1" transform="translate(-456.384 -190.616)" fill="#c7c9cb"/>
      <path id="Tracé_72" data-name="Tracé 72" d="M267.1,304.219H213.867a1.894,1.894,0,0,1-1.894-1.894v-8.766a1.894,1.894,0,0,1,1.894-1.894H267.1A1.894,1.894,0,0,1,269,293.559v8.766a1.894,1.894,0,0,1-1.894,1.894" transform="translate(-179.484 -246.962)" fill="#009cdc"/>
      <path id="Tracé_73" data-name="Tracé 73" d="M333.211,304.132h37.024a1.419,1.419,0,0,0,1.418-1.419V293a1.419,1.419,0,0,0-1.418-1.419h-24.47Z" transform="translate(-282.14 -246.888)" fill="#0083b9"/>
      <path id="Tracé_74" data-name="Tracé 74" d="M267.579,352.778H213.392a1.419,1.419,0,0,1-1.419-1.419v1.986a1.419,1.419,0,0,0,1.419,1.419h54.187A1.419,1.419,0,0,0,269,353.345v-1.986a1.419,1.419,0,0,1-1.419,1.419" transform="translate(-179.484 -297.507)" fill="#1b3a8f"/>
      <path id="Tracé_75" data-name="Tracé 75" d="M245.854,311.553H245.7a.881.881,0,0,1-.881-.881v-4.409a.881.881,0,0,1,.881-.881h.153a.881.881,0,0,1,.881.881v4.409a.881.881,0,0,1-.881.881" transform="translate(-207.297 -258.576)" fill="#833d8f"/>
      <path id="Tracé_76" data-name="Tracé 76" d="M245.778,330.636a.958.958,0,0,1-.957-.957v1.489a.958.958,0,0,0,1.915,0v-1.489a.958.958,0,0,1-.958.957" transform="translate(-207.298 -279.15)" fill="#751f81"/>
      <path id="Tracé_77" data-name="Tracé 77" d="M283.8,311.553h-.153a.881.881,0,0,1-.881-.881v-4.409a.881.881,0,0,1,.881-.881h.153a.881.881,0,0,1,.881.881v4.409a.881.881,0,0,1-.881.881" transform="translate(-239.429 -258.576)" fill="#833d8f"/>
      <path id="Tracé_78" data-name="Tracé 78" d="M321.75,311.553H321.6a.881.881,0,0,1-.881-.881v-4.409a.881.881,0,0,1,.881-.881h.153a.881.881,0,0,1,.881.881v4.409a.881.881,0,0,1-.881.881" transform="translate(-271.56 -258.576)" fill="#833d8f"/>
      <path id="Tracé_79" data-name="Tracé 79" d="M283.727,330.636a.957.957,0,0,1-.957-.957v1.489a.957.957,0,1,0,1.915,0v-1.489a.958.958,0,0,1-.957.957" transform="translate(-239.429 -279.15)" fill="#751f81"/>
      <path id="Tracé_80" data-name="Tracé 80" d="M321.674,330.636a.957.957,0,0,1-.957-.957v1.489a.957.957,0,1,0,1.915,0v-1.489a.957.957,0,0,1-.957.957" transform="translate(-271.561 -279.15)" fill="#751f81"/>
      <path id="Tracé_81" data-name="Tracé 81" d="M419.942,318.007a1.359,1.359,0,1,1-1.359-1.359,1.359,1.359,0,0,1,1.359,1.359" transform="translate(-353.277 -268.116)" fill="#fff"/>
      <path id="Tracé_82" data-name="Tracé 82" d="M418.584,324.162a1.358,1.358,0,0,1-1.309-1,1.359,1.359,0,1,0,2.618,0,1.358,1.358,0,0,1-1.309,1" transform="translate(-353.277 -273.633)" fill="#c7c9cb"/>
      <path id="Tracé_83" data-name="Tracé 83" d="M460.532,318.007a1.359,1.359,0,1,1-1.359-1.359,1.359,1.359,0,0,1,1.359,1.359" transform="translate(-387.646 -268.116)" fill="#fff"/>
      <path id="Tracé_84" data-name="Tracé 84" d="M459.174,324.162a1.358,1.358,0,0,1-1.309-1,1.359,1.359,0,1,0,2.618,0,1.358,1.358,0,0,1-1.309,1" transform="translate(-387.646 -273.633)" fill="#c7c9cb"/>
      <path id="Tracé_85" data-name="Tracé 85" d="M501.122,318.007a1.359,1.359,0,1,1-1.359-1.359,1.359,1.359,0,0,1,1.359,1.359" transform="translate(-422.015 -268.116)" fill="#fff"/>
      <path id="Tracé_86" data-name="Tracé 86" d="M499.764,324.162a1.358,1.358,0,0,1-1.309-1,1.359,1.359,0,1,0,2.618,0,1.358,1.358,0,0,1-1.309,1" transform="translate(-422.015 -273.633)" fill="#c7c9cb"/>
      <path id="Tracé_87" data-name="Tracé 87" d="M541.712,318.007a1.359,1.359,0,1,1-1.359-1.359,1.359,1.359,0,0,1,1.359,1.359" transform="translate(-456.384 -268.116)" fill="#fff"/>
      <path id="Tracé_88" data-name="Tracé 88" d="M540.354,324.162a1.358,1.358,0,0,1-1.309-1,1.359,1.359,0,1,0,2.618,0,1.358,1.358,0,0,1-1.309,1" transform="translate(-456.384 -273.633)" fill="#c7c9cb"/>
      <path id="Tracé_89" data-name="Tracé 89" d="M267.1,402.262H213.867a1.894,1.894,0,0,1-1.894-1.894V391.6a1.894,1.894,0,0,1,1.894-1.894H267.1A1.894,1.894,0,0,1,269,391.6v8.766a1.894,1.894,0,0,1-1.894,1.894" transform="translate(-179.484 -329.978)" fill="#009cdc"/>
      <path id="Tracé_90" data-name="Tracé 90" d="M333.211,402.176h37.024a1.419,1.419,0,0,0,1.418-1.419v-9.717a1.419,1.419,0,0,0-1.418-1.419h-24.47Z" transform="translate(-282.14 -329.905)" fill="#0083b9"/>
      <path id="Tracé_91" data-name="Tracé 91" d="M267.579,450.822H213.392a1.419,1.419,0,0,1-1.419-1.419v1.986a1.419,1.419,0,0,0,1.419,1.419h54.187A1.419,1.419,0,0,0,269,451.389V449.4a1.419,1.419,0,0,1-1.419,1.419" transform="translate(-179.484 -380.524)" fill="#1b3a8f"/>
      <path id="Tracé_92" data-name="Tracé 92" d="M245.854,409.6H245.7a.881.881,0,0,1-.881-.881v-4.409a.881.881,0,0,1,.881-.881h.153a.881.881,0,0,1,.881.881v4.409a.881.881,0,0,1-.881.881" transform="translate(-207.297 -341.593)" fill="#833d8f"/>
      <path id="Tracé_93" data-name="Tracé 93" d="M245.778,428.68a.958.958,0,0,1-.957-.957v1.489a.958.958,0,0,0,1.915,0v-1.489a.958.958,0,0,1-.958.957" transform="translate(-207.298 -362.166)" fill="#751f81"/>
      <path id="Tracé_94" data-name="Tracé 94" d="M283.8,409.6h-.153a.881.881,0,0,1-.881-.881v-4.409a.881.881,0,0,1,.881-.881h.153a.881.881,0,0,1,.881.881v4.409a.881.881,0,0,1-.881.881" transform="translate(-239.429 -341.593)" fill="#833d8f"/>
      <path id="Tracé_95" data-name="Tracé 95" d="M321.75,409.6H321.6a.881.881,0,0,1-.881-.881v-4.409a.881.881,0,0,1,.881-.881h.153a.881.881,0,0,1,.881.881v4.409a.881.881,0,0,1-.881.881" transform="translate(-271.56 -341.593)" fill="#833d8f"/>
      <path id="Tracé_96" data-name="Tracé 96" d="M283.727,428.68a.958.958,0,0,1-.957-.957v1.489a.957.957,0,0,0,1.915,0v-1.489a.958.958,0,0,1-.957.957" transform="translate(-239.429 -362.166)" fill="#751f81"/>
      <path id="Tracé_97" data-name="Tracé 97" d="M321.674,428.68a.957.957,0,0,1-.957-.957v1.489a.957.957,0,1,0,1.915,0v-1.489a.957.957,0,0,1-.957.957" transform="translate(-271.561 -362.166)" fill="#751f81"/>
      <path id="Tracé_98" data-name="Tracé 98" d="M419.942,416.051a1.359,1.359,0,1,1-1.359-1.359,1.359,1.359,0,0,1,1.359,1.359" transform="translate(-353.277 -351.133)" fill="#fff"/>
      <path id="Tracé_99" data-name="Tracé 99" d="M418.584,422.206a1.358,1.358,0,0,1-1.309-1,1.359,1.359,0,1,0,2.618,0,1.358,1.358,0,0,1-1.309,1" transform="translate(-353.277 -356.649)" fill="#c7c9cb"/>
      <path id="Tracé_100" data-name="Tracé 100" d="M460.532,416.051a1.359,1.359,0,1,1-1.359-1.359,1.359,1.359,0,0,1,1.359,1.359" transform="translate(-387.646 -351.133)" fill="#fff"/>
      <path id="Tracé_101" data-name="Tracé 101" d="M459.174,422.206a1.358,1.358,0,0,1-1.309-1,1.359,1.359,0,1,0,2.618,0,1.358,1.358,0,0,1-1.309,1" transform="translate(-387.646 -356.649)" fill="#c7c9cb"/>
      <path id="Tracé_102" data-name="Tracé 102" d="M501.122,416.051a1.359,1.359,0,1,1-1.359-1.359,1.359,1.359,0,0,1,1.359,1.359" transform="translate(-422.015 -351.133)" fill="#fff"/>
      <path id="Tracé_103" data-name="Tracé 103" d="M499.764,422.206a1.358,1.358,0,0,1-1.309-1,1.359,1.359,0,1,0,2.618,0,1.358,1.358,0,0,1-1.309,1" transform="translate(-422.015 -356.649)" fill="#c7c9cb"/>
      <path id="Tracé_104" data-name="Tracé 104" d="M541.712,416.051a1.359,1.359,0,1,1-1.359-1.359,1.359,1.359,0,0,1,1.359,1.359" transform="translate(-456.384 -351.133)" fill="#fff"/>
      <path id="Tracé_105" data-name="Tracé 105" d="M540.354,422.206a1.358,1.358,0,0,1-1.309-1,1.359,1.359,0,1,0,2.618,0,1.358,1.358,0,0,1-1.309,1" transform="translate(-456.384 -356.649)" fill="#c7c9cb"/>
      <path id="Tracé_106" data-name="Tracé 106" d="M267.1,500.306H213.867a1.894,1.894,0,0,1-1.894-1.894v-8.766a1.894,1.894,0,0,1,1.894-1.894H267.1A1.894,1.894,0,0,1,269,489.646v8.766a1.894,1.894,0,0,1-1.894,1.894" transform="translate(-179.484 -412.995)" fill="#009cdc"/>
      <path id="Tracé_107" data-name="Tracé 107" d="M333.211,500.219h37.024a1.419,1.419,0,0,0,1.418-1.419v-9.717a1.419,1.419,0,0,0-1.418-1.419h-24.47Z" transform="translate(-282.14 -412.921)" fill="#0083b9"/>
      <path id="Tracé_108" data-name="Tracé 108" d="M267.579,548.865H213.392a1.419,1.419,0,0,1-1.419-1.419v1.986a1.419,1.419,0,0,0,1.419,1.419h54.187A1.419,1.419,0,0,0,269,549.432v-1.986a1.419,1.419,0,0,1-1.419,1.419" transform="translate(-179.484 -463.54)" fill="#1b3a8f"/>
      <path id="Tracé_109" data-name="Tracé 109" d="M245.854,507.641H245.7a.881.881,0,0,1-.881-.881v-4.409a.881.881,0,0,1,.881-.881h.153a.881.881,0,0,1,.881.881v4.409a.881.881,0,0,1-.881.881" transform="translate(-207.297 -424.61)" fill="#833d8f"/>
      <path id="Tracé_110" data-name="Tracé 110" d="M245.778,526.724a.958.958,0,0,1-.957-.958v1.49a.958.958,0,0,0,1.915,0v-1.49a.958.958,0,0,1-.958.958" transform="translate(-207.298 -445.183)" fill="#751f81"/>
      <path id="Tracé_111" data-name="Tracé 111" d="M283.8,507.641h-.153a.881.881,0,0,1-.881-.881v-4.409a.881.881,0,0,1,.881-.881h.153a.881.881,0,0,1,.881.881v4.409a.881.881,0,0,1-.881.881" transform="translate(-239.429 -424.61)" fill="#833d8f"/>
      <path id="Tracé_112" data-name="Tracé 112" d="M321.75,507.641H321.6a.881.881,0,0,1-.881-.881v-4.409a.881.881,0,0,1,.881-.881h.153a.881.881,0,0,1,.881.881v4.409a.881.881,0,0,1-.881.881" transform="translate(-271.56 -424.61)" fill="#833d8f"/>
      <path id="Tracé_113" data-name="Tracé 113" d="M283.727,526.724a.958.958,0,0,1-.957-.958v1.49a.957.957,0,0,0,1.915,0v-1.49a.958.958,0,0,1-.957.958" transform="translate(-239.429 -445.183)" fill="#751f81"/>
      <path id="Tracé_114" data-name="Tracé 114" d="M321.674,526.724a.958.958,0,0,1-.957-.958v1.49a.957.957,0,0,0,1.915,0v-1.49a.958.958,0,0,1-.957.958" transform="translate(-271.561 -445.183)" fill="#751f81"/>
      <path id="Tracé_115" data-name="Tracé 115" d="M419.942,514.095a1.359,1.359,0,1,1-1.359-1.359,1.359,1.359,0,0,1,1.359,1.359" transform="translate(-353.277 -434.15)" fill="#fff"/>
      <path id="Tracé_116" data-name="Tracé 116" d="M418.584,520.25a1.358,1.358,0,0,1-1.309-1,1.359,1.359,0,1,0,2.618,0,1.358,1.358,0,0,1-1.309,1" transform="translate(-353.277 -439.666)" fill="#c7c9cb"/>
      <path id="Tracé_117" data-name="Tracé 117" d="M460.532,514.095a1.359,1.359,0,1,1-1.359-1.359,1.359,1.359,0,0,1,1.359,1.359" transform="translate(-387.646 -434.15)" fill="#fff"/>
      <path id="Tracé_118" data-name="Tracé 118" d="M459.174,520.25a1.358,1.358,0,0,1-1.309-1,1.359,1.359,0,1,0,2.618,0,1.358,1.358,0,0,1-1.309,1" transform="translate(-387.646 -439.666)" fill="#c7c9cb"/>
      <path id="Tracé_119" data-name="Tracé 119" d="M501.122,514.095a1.359,1.359,0,1,1-1.359-1.359,1.359,1.359,0,0,1,1.359,1.359" transform="translate(-422.015 -434.15)" fill="#fff"/>
      <path id="Tracé_120" data-name="Tracé 120" d="M499.764,520.25a1.358,1.358,0,0,1-1.309-1,1.359,1.359,0,1,0,2.618,0,1.358,1.358,0,0,1-1.309,1" transform="translate(-422.015 -439.666)" fill="#c7c9cb"/>
      <path id="Tracé_121" data-name="Tracé 121" d="M541.712,514.095a1.359,1.359,0,1,1-1.359-1.359,1.359,1.359,0,0,1,1.359,1.359" transform="translate(-456.384 -434.15)" fill="#fff"/>
      <path id="Tracé_122" data-name="Tracé 122" d="M540.354,520.25a1.358,1.358,0,0,1-1.309-1,1.359,1.359,0,1,0,2.618,0,1.358,1.358,0,0,1-1.309,1" transform="translate(-456.384 -439.666)" fill="#c7c9cb"/>
    </g>
  </g>
</svg>
