<svg id="icone_espace_client" data-name="icone espace client" xmlns="http://www.w3.org/2000/svg" xmlns:xlink="http://www.w3.org/1999/xlink" width="122" height="122" viewBox="0 0 122 122">
  <defs>
    <clipPath id="clip-path">
      <rect id="Rectangle_168" data-name="Rectangle 168" width="122" height="122" fill="none"/>
    </clipPath>
  </defs>
  <g id="Groupe_90" data-name="Groupe 90" clip-path="url(#clip-path)">
    <path id="Tracé_505" data-name="Tracé 505" d="M122,61A61,61,0,1,1,61,0a61,61,0,0,1,61,61" fill="#1e2d70"/>
    <path id="Tracé_506" data-name="Tracé 506" d="M159.218,106.444A52.774,52.774,0,1,1,106.443,53.67a52.774,52.774,0,0,1,52.774,52.774" transform="translate(-45.443 -45.444)" fill="#0a2449"/>
    <path id="Tracé_507" data-name="Tracé 507" d="M272.317,449.061l-.123-1.149-1.7-15.841A4.072,4.072,0,0,0,268,428.492l-10.4-3.351c-.694-.223-1.4.3-1.6,1.191a41.532,41.532,0,0,1-7.19,15.914l-2.041-10.183.406-.553,1.532-2.087c.035-.042.068-.086.1-.13l.03-.045c.02-.031.04-.062.059-.094s.021-.038.032-.058.031-.059.046-.089l.03-.065c.013-.029.025-.058.037-.088s.019-.046.027-.07.02-.058.029-.087.016-.05.024-.076.014-.054.02-.081q.023-.095.04-.191c0-.015.006-.03.008-.045.006-.038.01-.076.013-.114,0-.017,0-.034.005-.051,0-.039.005-.079.007-.118,0-.015,0-.031,0-.047,0-.041,0-.082,0-.124,0-.013,0-.025,0-.038,0-.044,0-.089-.008-.133l0-.015a2.511,2.511,0,0,0-.134-.606h0a2.241,2.241,0,0,0-.174-.379l-1.712-2.406a1.5,1.5,0,0,0-1.262-.811h-2.7a1.5,1.5,0,0,0-1.262.811l-1.712,2.406a2.4,2.4,0,0,0-.308.985l0,.015c0,.044-.007.089-.008.133,0,.013,0,.025,0,.037,0,.041,0,.082,0,.124,0,.016,0,.031,0,.047,0,.04,0,.079.007.118,0,.017,0,.034.005.051,0,.039.008.077.014.115,0,.015.005.029.008.043q.016.1.04.193c.007.027.013.055.02.081s.015.05.023.076.019.058.029.087.018.047.027.07.024.059.037.088l.03.065c.015.03.03.06.046.089s.021.039.032.058.039.063.059.094l.03.045c.032.045.064.089.1.13l1.938,2.64-2.041,10.183a41.532,41.532,0,0,1-7.19-15.914c-.2-.888-.9-1.414-1.6-1.191l-10.4,3.351a4.072,4.072,0,0,0-2.488,3.58l-1.824,16.99c-.007.067-.012.133-.017.2,0,.021,0,.041,0,.062a4.6,4.6,0,0,0,1.909,4.227q.08.048.162.091a2.779,2.779,0,0,0,.511.206,2.622,2.622,0,0,0,.732.1h48.9a2.632,2.632,0,0,0,.906-.161,2.811,2.811,0,0,0,.336-.149q.082-.043.162-.091a4.493,4.493,0,0,0,1.918-3.771,5.588,5.588,0,0,0-.031-.718" transform="translate(-183.578 -358.56)" fill="#1e2d70"/>
    <path id="Tracé_508" data-name="Tracé 508" d="M282.97,193.969l1.056,5.6a2.6,2.6,0,0,0,3.035,2.072l.814-.153a2.6,2.6,0,0,0,1.9-1.515c.029.07.059.139.089.208q.159.366.33.725.164.344.34.681.082.157.166.312.1.186.205.368.17.3.348.587.226.366.465.72l.131.191q.261.375.538.733.157.2.319.4a15.793,15.793,0,0,0,1.166,1.275h0a9.693,9.693,0,0,0,6.687,3.083c2.877,0,5.525-1.635,7.629-4.091l.069-.082a20.025,20.025,0,0,0,3.132-5.219,2.592,2.592,0,0,0,1.856,1.425l.814.153a2.6,2.6,0,0,0,3.035-2.072l1.056-5.6a2.59,2.59,0,0,0-.421-1.964c-.125-10.057-7.779-18.2-17.171-18.2-9.454,0-17.148,8.248-17.173,18.4a2.59,2.59,0,0,0-.418,1.961m17.592-18.281c7.886,0,14.378,6.591,15.04,14.959l-.334-.063a2.6,2.6,0,0,0-2.317.715c-.334-7.238-5.752-12.876-12.388-12.876-6.654,0-12.084,5.795-12.391,13.07a2.6,2.6,0,0,0-2.314-.713l-.35.066c.574-8.463,7.107-15.158,15.055-15.158" transform="translate(-239.562 -147.002)" fill="#1e2d70"/>
    <path id="Tracé_509" data-name="Tracé 509" d="M376.461,409.423,373.4,413.6a1.334,1.334,0,0,1-2.149,0l-3.064-4.174A2.5,2.5,0,0,1,368,406.68l1.712-2.406a1.5,1.5,0,0,1,1.262-.811h2.7a1.5,1.5,0,0,1,1.263.811l1.712,2.406a2.5,2.5,0,0,1-.188,2.743" transform="translate(-311.323 -341.626)" fill="#fff"/>
    <path id="Tracé_510" data-name="Tracé 510" d="M376.466,427.569l-3.064,4.174a1.334,1.334,0,0,1-2.149,0l-3.064-4.174a2.108,2.108,0,0,1-.362-.645,2.494,2.494,0,0,0,.362,2.365l3.064,4.174a1.334,1.334,0,0,0,2.149,0l3.064-4.174a2.494,2.494,0,0,0,.362-2.365,2.108,2.108,0,0,1-.362.645" transform="translate(-311.328 -361.491)" fill="#c7c9cb"/>
    <path id="Tracé_511" data-name="Tracé 511" d="M305.548,277.467c.418,2.022-.312,3.985-1.63,4.385s-2.725-.916-3.143-2.938.312-3.986,1.63-4.385,2.725.916,3.143,2.938" transform="translate(-254.576 -232.392)" fill="#fff"/>
    <path id="Tracé_512" data-name="Tracé 512" d="M303.919,295.195c-1.318.4-2.725-.916-3.143-2.938-.032-.158-.057-.315-.076-.471a5.524,5.524,0,0,0,.076,1.8c.418,2.022,1.825,3.338,3.143,2.938,1.215-.368,1.929-2.066,1.706-3.914a2.908,2.908,0,0,1-1.706,2.584" transform="translate(-254.578 -247.064)" fill="#c7c9cb"/>
    <path id="Tracé_513" data-name="Tracé 513" d="M462.782,277.467c-.418,2.022.312,3.985,1.63,4.385s2.725-.916,3.143-2.938-.312-3.986-1.63-4.385-2.725.916-3.143,2.938" transform="translate(-391.754 -232.392)" fill="#fff"/>
    <path id="Tracé_514" data-name="Tracé 514" d="M467.56,292.256c-.418,2.022-1.825,3.338-3.143,2.938a2.908,2.908,0,0,1-1.706-2.584c-.223,1.847.491,3.545,1.706,3.914,1.318.4,2.725-.916,3.143-2.938a5.525,5.525,0,0,0,.076-1.8c-.019.156-.044.314-.076.471" transform="translate(-391.758 -247.064)" fill="#c7c9cb"/>
    <path id="Tracé_515" data-name="Tracé 515" d="M320.294,172.06h-2.078c0-9.027-6.772-16.37-15.1-16.37s-15.1,7.344-15.1,16.37h-2.077c0-10.172,7.7-18.448,17.174-18.448s17.174,8.275,17.174,18.448" transform="translate(-242.12 -130.068)" fill="#fff"/>
    <path id="Tracé_516" data-name="Tracé 516" d="M341.863,200.477c0,7.578-5.555,16.849-12.407,16.849s-12.407-9.27-12.407-16.849,5.555-13.722,12.407-13.722,12.407,6.144,12.407,13.722" transform="translate(-268.456 -158.132)" fill="#fff"/>
    <path id="Tracé_517" data-name="Tracé 517" d="M329.456,283.217c-6.452,0-11.752-8.218-12.35-15.5-.037.433-.057.871-.057,1.314,0,7.578,5.555,16.849,12.407,16.849s12.407-9.27,12.407-16.849c0-.443-.02-.881-.057-1.314-.6,7.286-5.9,15.5-12.35,15.5" transform="translate(-268.456 -226.682)" fill="#c7c9cb"/>
    <path id="Tracé_518" data-name="Tracé 518" d="M371.538,460.451h-11.7l4.277-21.339h3.144Z" transform="translate(-304.689 -371.811)" fill="#fff"/>
    <path id="Tracé_519" data-name="Tracé 519" d="M371.537,518.93l-2.155-10.754q-.455.571-.93,1.119l-1.88,2.162a1.115,1.115,0,0,1-1.766,0l-1.88-2.162q-.476-.547-.93-1.119L359.84,518.93Z" transform="translate(-304.689 -430.29)" fill="#c7c9cb"/>
    <path id="Tracé_520" data-name="Tracé 520" d="M326.038,192.455s1.733,3.23,6.7,4.884a41.149,41.149,0,0,0,9.135,1.4c.073-7.645-5.509-13.734-12.4-13.734-6.851,0-12.406,6.143-12.406,13.72a15.2,15.2,0,0,0,5.2-2.033,12.291,12.291,0,0,0,3.781-4.243" transform="translate(-268.464 -156.654)" fill="#833d8f"/>
    <rect id="Rectangle_167" data-name="Rectangle 167" width="4.401" height="1.542" transform="translate(58.799 68.895)" fill="#c7c9cb"/>
    <path id="Tracé_521" data-name="Tracé 521" d="M270.49,421.062A4.072,4.072,0,0,0,268,417.483l-10.4-3.351c-.694-.223-1.4.3-1.6,1.191a40.625,40.625,0,0,1-8.668,17.738l-1.88,2.162a1.115,1.115,0,0,1-1.766,0l-1.88-2.162a40.625,40.625,0,0,1-8.668-17.738c-.2-.888-.9-1.414-1.6-1.191l-10.4,3.351a4.072,4.072,0,0,0-2.488,3.579l-1.824,16.99c-.277,2.584,1.274,4.89,3.292,4.89h48.895c2.017,0,3.569-2.305,3.292-4.89Z" transform="translate(-183.575 -350.616)" fill="#009cdc"/>
    <path id="Tracé_522" data-name="Tracé 522" d="M272.161,561.151a3.512,3.512,0,0,1-3.138,2.882H220.129a3.512,3.512,0,0,1-3.138-2.882l-.154,1.431c-.277,2.584,1.274,4.89,3.292,4.89h48.895c2.017,0,3.569-2.305,3.292-4.89Z" transform="translate(-183.576 -475.145)" fill="#0083b9"/>
    <path id="Tracé_523" data-name="Tracé 523" d="M398.509,310.678c-1.457,2.149-5.341,3.786-9.9,4.021a2.007,2.007,0,1,0,.257,1.513,18.035,18.035,0,0,0,8.456-2.406,21.815,21.815,0,0,0,1.191-3.128" transform="translate(-325.905 -263.062)" fill="#c7c9cb"/>
    <path id="Tracé_524" data-name="Tracé 524" d="M388.913,325.994a2.008,2.008,0,1,1-2.008-2.008,2.008,2.008,0,0,1,2.008,2.008" transform="translate(-325.905 -274.33)" fill="#009cdc"/>
    <path id="Tracé_525" data-name="Tracé 525" d="M397.485,295.009a.761.761,0,0,1,0-1.523c6.317,0,11.654-2.705,11.654-5.908a.761.761,0,1,1,1.523,0c0,4.166-5.788,7.43-13.177,7.43" transform="translate(-335.92 -242.858)" fill="#009cdc"/>
    <path id="Tracé_526" data-name="Tracé 526" d="M469.89,274.968l-.814-.153A2.6,2.6,0,0,1,467,271.78l1.056-5.6A2.6,2.6,0,0,1,471.1,264.1l.814.153a2.6,2.6,0,0,1,2.072,3.035l-1.056,5.6a2.6,2.6,0,0,1-3.035,2.072" transform="translate(-395.39 -223.587)" fill="#009cdc"/>
    <path id="Tracé_527" data-name="Tracé 527" d="M287.061,276.251l.814-.153a2.6,2.6,0,0,0,2.072-3.035l-1.056-5.6a2.6,2.6,0,0,0-3.035-2.072l-.814.153a2.6,2.6,0,0,0-2.072,3.035l1.056,5.6a2.6,2.6,0,0,0,3.035,2.072" transform="translate(-239.562 -224.674)" fill="#009cdc"/>
  </g>
</svg>
