<svg xmlns="http://www.w3.org/2000/svg" xmlns:xlink="http://www.w3.org/1999/xlink" width="122" height="122" viewBox="0 0 122 122">
  <defs>
    <clipPath id="clip-path">
      <rect id="Rectangle_2" data-name="Rectangle 2" width="122" height="122" transform="translate(0.5 -0.092)" fill="none"/>
    </clipPath>
  </defs>
  <g id="ICONE_VPS_SSD" data-name="ICONE VPS SSD" transform="translate(-0.5 0.092)">
    <g id="Groupe_2" data-name="Groupe 2" clip-path="url(#clip-path)">
      <path id="Tracé_1" data-name="Tracé 1" d="M122,61A61,61,0,1,1,61,0a61,61,0,0,1,61,61" fill="#1e2d70"/>
      <path id="Tracé_2" data-name="Tracé 2" d="M159.219,106.445A52.775,52.775,0,1,1,106.444,53.67a52.775,52.775,0,0,1,52.775,52.775" transform="translate(-45.443 -45.444)" fill="#0a2449"/>
      <path id="Tracé_3" data-name="Tracé 3" d="M255.2,189.4a31.561,31.561,0,0,0-63.123,0c0,.464.012.925.032,1.384-.02.459-.032.92-.032,1.384a31.525,31.525,0,0,0,13.678,26.007,18.118,18.118,0,1,0,35.766,0A31.524,31.524,0,0,0,255.2,192.167c0-.464-.012-.925-.032-1.384.02-.459.032-.92.032-1.384" transform="translate(-162.638 -133.646)" fill="#1e2d70"/>
      <path id="Tracé_4" data-name="Tracé 4" d="M255.2,187.461A31.561,31.561,0,1,1,223.639,155.9,31.561,31.561,0,0,1,255.2,187.461" transform="translate(-162.638 -132.005)" fill="#c7c9cb"/>
      <path id="Tracé_5" data-name="Tracé 5" d="M255.2,169.4a31.561,31.561,0,1,1-31.561-31.561A31.561,31.561,0,0,1,255.2,169.4" transform="translate(-162.638 -116.711)" fill="#fff"/>
      <path id="Tracé_6" data-name="Tracé 6" d="M276.472,195.37a26.86,26.86,0,1,1-26.86-26.86,26.86,26.86,0,0,1,26.86,26.86" transform="translate(-188.611 -142.683)" fill="#c7c9cb"/>
      <path id="Tracé_7" data-name="Tracé 7" d="M286.934,208.146A24.548,24.548,0,1,1,262.386,183.6a24.548,24.548,0,0,1,24.548,24.548" transform="translate(-201.385 -155.458)" fill="#1b3a8f"/>
      <path id="Tracé_8" data-name="Tracé 8" d="M262.387,186.365a24.548,24.548,0,0,1,24.508,23.163c.025-.458.04-.92.04-1.384a24.548,24.548,0,0,0-49.1,0c0,.465.014.926.04,1.384a24.548,24.548,0,0,1,24.508-23.163" transform="translate(-201.386 -155.457)" fill="#002d85"/>
      <path id="Tracé_9" data-name="Tracé 9" d="M277.419,242.267c-5.068,3.558-7.756,10.338-7.756,17h2.109a15.71,15.71,0,0,1,.4-3.117,15.473,15.473,0,0,1,.591-1.954q.178-.474.386-.932a15.285,15.285,0,0,1,4.557-5.781q.389-.3.8-.576.612-.413,1.265-.764Z" transform="translate(-228.332 -205.135)" fill="#002d85"/>
      <path id="Tracé_10" data-name="Tracé 10" d="M453.766,242.267l-2.537,4.2-1.439,2.492a15.314,15.314,0,0,1,1.046,1.215q.267.343.514.7.161.234.314.473.225.353.43.719.341.606.629,1.247a15.539,15.539,0,0,1,1.357,5.949h7.442c0-6.662-2.688-13.443-7.756-17" transform="translate(-380.851 -205.135)" fill="#002d85"/>
      <path id="Tracé_11" data-name="Tracé 11" d="M352.3,232.237l.2-.349,2.2-3.808,1.192-2.194c-2.653-1.333-6.136-1.11-9.308-1.11s-6.655-.223-9.307,1.11l1.193,2.2,1.228,2.128c.12-.036.241-.069.362-.1q.615-.169,1.25-.286.455-.083.919-.137a14.563,14.563,0,0,1,3.974.08q.559.089,1.1.219c.321.077.637.166.949.264l.257.083a14.71,14.71,0,0,1,3.786,1.907" transform="translate(-285.58 -190.313)" fill="#002d85"/>
      <path id="Tracé_12" data-name="Tracé 12" d="M271.375,242.267a20.734,20.734,0,0,0-8.85,17h2.226a16.193,16.193,0,0,1,8.441-13.854Z" transform="translate(-222.288 -205.135)" fill="#009cdc"/>
      <path id="Tracé_13" data-name="Tracé 13" d="M456.2,242.267l-3.535,6.123a16.306,16.306,0,0,1,4.529,10.878h7.855a20.734,20.734,0,0,0-8.85-17" transform="translate(-383.29 -205.135)" fill="#009cdc"/>
      <path id="Tracé_14" data-name="Tracé 14" d="M355.888,219.92a20.755,20.755,0,0,0-18.615,0l2.039,3.531a15.377,15.377,0,0,1,13.3,2.14Z" transform="translate(-285.58 -184.347)" fill="#009cdc"/>
      <path id="Tracé_15" data-name="Tracé 15" d="M463.508,266.374a19.231,19.231,0,0,0-8.046-15.715L452.67,255.5a16.3,16.3,0,0,1,4.529,10.878Z" transform="translate(-383.29 -212.241)" fill="#0083b9"/>
      <path id="Tracé_16" data-name="Tracé 16" d="M359.248,229.343a19.215,19.215,0,0,0-17.132,0l1.3,2.246a15.378,15.378,0,0,1,13.3,2.14Z" transform="translate(-289.68 -192.487)" fill="#0083b9"/>
      <path id="Tracé_17" data-name="Tracé 17" d="M281.753,252.557l-1.07-1.854a19.193,19.193,0,0,0-8.047,15.708h.677a16.192,16.192,0,0,1,8.44-13.854" transform="translate(-230.85 -212.278)" fill="#0083b9"/>
      <path id="Tracé_18" data-name="Tracé 18" d="M465.578,298.679l.124.2-.124-.2" transform="translate(-394.219 -252.901)" fill="#009cdc"/>
      <path id="Tracé_19" data-name="Tracé 19" d="M480.953,340.282h0a16.611,16.611,0,0,0-.229-2.336,16.611,16.611,0,0,1,.229,2.336" transform="translate(-407.044 -286.149)" fill="#009cdc"/>
      <path id="Tracé_20" data-name="Tracé 20" d="M468.542,248.444l1.2-.583a1.02,1.02,0,0,1,.178-.066,20.9,20.9,0,0,0-5.388-5.528l-2.029,3.514,1.286-2.227a19.163,19.163,0,0,1,4.757,4.891" transform="translate(-391.612 -205.135)" fill="#009cdc"/>
      <path id="Tracé_21" data-name="Tracé 21" d="M512.855,290.925c0,.012,0,.021,0,.026a.955.955,0,0,1-.308.791l-.681.6a19.1,19.1,0,0,1,1.765,8.123h1.547a20.652,20.652,0,0,0-2.323-9.543" transform="translate(-433.414 -246.335)" fill="#009cdc"/>
      <path id="Tracé_22" data-name="Tracé 22" d="M454.176,265.19,452.67,267.8a16.2,16.2,0,0,1,1.979,2.523,16.188,16.188,0,0,0-1.979-2.523Z" transform="translate(-383.29 -224.545)" fill="#0083b9"/>
      <path id="Tracé_23" data-name="Tracé 23" d="M478.878,304.664c.11.431.207.869.283,1.314a16.606,16.606,0,0,1,.229,2.336H485.7a19.1,19.1,0,0,0-1.765-8.123c-1.563,1.386-3.31,2.933-5.056,4.473" transform="translate(-405.481 -254.181)" fill="#0083b9"/>
      <path id="Tracé_24" data-name="Tracé 24" d="M460.22,255.55a19.163,19.163,0,0,0-4.757-4.891l-1.286,2.227L452.67,255.5a16.183,16.183,0,0,1,1.978,2.524c.042.065.083.131.124.2,1.87-.919,3.741-1.833,5.447-2.666" transform="translate(-383.29 -212.241)" fill="#0083b9"/>
      <path id="Tracé_25" data-name="Tracé 25" d="M512.037,279.017h0a.92.92,0,0,0-1.143-.864,20.765,20.765,0,0,1,1.138,1.93c0-.173.008-1.066.008-1.066" transform="translate(-432.588 -235.493)" fill="#751f81"/>
      <path id="Tracé_26" data-name="Tracé 26" d="M390.187,303.315q-.152-.45-.328-.888-.267-.663-.589-1.295-.156-.307-.324-.606t-.33-.561c-5.846,2.871-11.688,5.777-12.483,6.309a4.1,4.1,0,0,0,4,7.156c.784-.525,5.577-4.708,10.394-8.957-.016-.061-.028-.123-.045-.184-.089-.33-.19-.653-.3-.974" transform="translate(-317.133 -253.99)" fill="#002d85"/>
      <path id="Tracé_27" data-name="Tracé 27" d="M466.387,299.965h0q.171.277.33.562-.16-.284-.33-.562" transform="translate(-394.904 -253.99)" fill="#751f81"/>
      <path id="Tracé_28" data-name="Tracé 28" d="M476.638,321.82c.108.321.21.644.3.974-.089-.33-.19-.653-.3-.974" transform="translate(-403.584 -272.495)" fill="#751f81"/>
      <path id="Tracé_29" data-name="Tracé 29" d="M501.927,278.984c.014.02.028.039.042.059a19.364,19.364,0,0,1,1.482,2.642l.681-.6a.954.954,0,0,0,.308-.791s0-.013,0-.026a20.727,20.727,0,0,0-1.138-1.93,1.016,1.016,0,0,0-.178.066l-1.2.583" transform="translate(-424.997 -235.675)" fill="#0083b9"/>
      <path id="Tracé_30" data-name="Tracé 30" d="M470.657,307.58q.321.632.589,1.295-.267-.663-.589-1.295" transform="translate(-398.52 -260.438)" fill="#751f81"/>
      <path id="Tracé_31" data-name="Tracé 31" d="M474.5,316.028q.176.438.328.888-.152-.45-.328-.888" transform="translate(-401.771 -267.591)" fill="#751f81"/>
      <path id="Tracé_32" data-name="Tracé 32" d="M468.542,303.629q.168.3.324.606-.156-.307-.324-.606" transform="translate(-396.729 -257.092)" fill="#751f81"/>
      <path id="Tracé_33" data-name="Tracé 33" d="M471.876,282.629c-.013-.02-.028-.039-.042-.059-1.706.833-3.577,1.748-5.447,2.666q.171.277.33.562t.324.606q.321.632.589,1.295.176.438.328.888c.108.321.21.644.3.974.016.061.029.123.045.184,1.746-1.54,3.493-3.087,5.056-4.473a19.35,19.35,0,0,0-1.482-2.642" transform="translate(-394.904 -239.261)" fill="#1b3a8f"/>
      <path id="Tracé_34" data-name="Tracé 34" d="M380.118,292.433a3.6,3.6,0,0,1-4-5.982c1.11-.743,12.065-6.116,19.126-9.558a4.928,4.928,0,0,1,1.323-.375s-.009,1.022-.007,1.091a.954.954,0,0,1-.307.791c-5.876,5.215-15.021,13.291-16.132,14.034" transform="translate(-317.115 -234.136)" fill="#c7c9cb"/>
      <path id="Tracé_35" data-name="Tracé 35" d="M380.118,286.294a3.6,3.6,0,0,1-4-5.982c1.11-.743,12.065-6.116,19.126-9.558a.915.915,0,0,1,1.008,1.507c-5.876,5.215-15.021,13.291-16.132,14.034" transform="translate(-317.115 -229.17)" fill="#fff"/>
      <path id="Tracé_36" data-name="Tracé 36" d="M376.754,343.517a4.276,4.276,0,1,1,1.176-5.932,4.277,4.277,0,0,1-1.176,5.932" transform="translate(-313.374 -284.236)" fill="#751f81"/>
      <rect id="Rectangle_1" data-name="Rectangle 1" width="8.549" height="1.703" transform="translate(56.725 54.024)" fill="#751f81"/>
      <path id="Tracé_37" data-name="Tracé 37" d="M376.754,332.606a4.276,4.276,0,1,1,1.176-5.932,4.276,4.276,0,0,1-1.176,5.932" transform="translate(-313.374 -274.997)" fill="#833d8f"/>
      <path id="Tracé_38" data-name="Tracé 38" d="M316.026,450.431a18.118,18.118,0,1,1-18.118-18.118,18.118,18.118,0,0,1,18.118,18.118" transform="translate(-236.907 -366.053)" fill="#fff"/>
      <path id="Tracé_39" data-name="Tracé 39" d="M328.236,465.339a15.419,15.419,0,1,1-15.419-15.419,15.419,15.419,0,0,1,15.419,15.419" transform="translate(-251.816 -380.961)" fill="#c7c9cb"/>
      <path id="Tracé_40" data-name="Tracé 40" d="M334.243,472.673a14.092,14.092,0,1,1-14.092-14.092,14.092,14.092,0,0,1,14.092,14.092" transform="translate(-259.151 -388.295)" fill="#833d8f"/>
      <path id="Tracé_41" data-name="Tracé 41" d="M320.151,460.17a14.092,14.092,0,0,1,14.069,13.3c.015-.263.023-.528.023-.795a14.092,14.092,0,0,0-28.183,0c0,.267.008.532.023.795a14.092,14.092,0,0,1,14.069-13.3" transform="translate(-259.15 -388.295)" fill="#751f81"/>
      <path id="Tracé_42" data-name="Tracé 42" d="M352.788,502.73a.444.444,0,0,0-.13-.258l-1.015-1-1.015-1a.444.444,0,0,1-.126-.233.445.445,0,0,1-.007-.091,7.8,7.8,0,0,0,0-2.948.441.441,0,0,1,.007-.085.433.433,0,0,1,.014-.058.452.452,0,0,1,.076-.141.455.455,0,0,1,.036-.04l2.03-1.991a.446.446,0,0,0,.074-.542l-1.215-2.1a.447.447,0,0,0-.506-.207l-2.74.763a.449.449,0,0,1-.214.007.44.44,0,0,1-.138-.056,7.826,7.826,0,0,0-2.536-1.468.442.442,0,0,1-.228-.282l-.709-2.753a.447.447,0,0,0-.432-.335h-2.43a.444.444,0,0,0-.213.054.435.435,0,0,0-.061.04.445.445,0,0,0-.159.242L340.444,491a.487.487,0,0,1-.171.25.423.423,0,0,1-.057.033,7.826,7.826,0,0,0-2.536,1.468l-.016.009a.448.448,0,0,1-.228.056.41.41,0,0,1-.054,0,.458.458,0,0,1-.053-.011l-2.74-.763a.447.447,0,0,0-.506.207l-1.215,2.1a.446.446,0,0,0,.074.542l2.03,1.991a.482.482,0,0,1,.037.04.444.444,0,0,1,.056.091.451.451,0,0,1,.02.05.442.442,0,0,1,.021.143,7.8,7.8,0,0,0,0,2.948c0,.013,0,.026,0,.038a.456.456,0,0,1-.133.286l-1.015,1-1.015,1a.444.444,0,0,0-.13.258.457.457,0,0,0,0,.072.445.445,0,0,0,.06.211l1.215,2.1a.447.447,0,0,0,.506.207l2.74-.763a.449.449,0,0,1,.214-.007.443.443,0,0,1,.1.035l.037.021a7.825,7.825,0,0,0,2.536,1.469.439.439,0,0,1,.189.181.456.456,0,0,1,.039.1l.709,2.753a.481.481,0,0,0,.1.181l.01.012a.446.446,0,0,0,.327.142h2.43a.443.443,0,0,0,.176-.038.46.46,0,0,0,.147-.1l0,0,.009-.012a.481.481,0,0,0,.1-.181l.709-2.753a.384.384,0,0,1,.228-.282,7.825,7.825,0,0,0,2.536-1.469.438.438,0,0,1,.138-.056.449.449,0,0,1,.214.007l2.74.763a.447.447,0,0,0,.506-.207l1.215-2.1a.445.445,0,0,0,.06-.211.44.44,0,0,0,0-.072m-5.836-3.831a4.1,4.1,0,0,1-.363,1.491q-.039.086-.082.17a4.155,4.155,0,0,1-7.575-.353,4.129,4.129,0,0,1-.263-1.06,4.2,4.2,0,0,1-.026-.451q0-.114.005-.23a4.1,4.1,0,0,1,.363-1.491q.078-.172.172-.336t.2-.318q.107-.154.228-.3a4.218,4.218,0,0,1,.827-.757,4.148,4.148,0,0,1,5.836,1.134q.059.089.113.181a4.138,4.138,0,0,1,.57,2.088q0,.114-.006.23" transform="translate(-281.8 -413.133)" fill="#751f81"/>
      <path id="Tracé_43" data-name="Tracé 43" d="M350.628,491.04a7.851,7.851,0,0,0-.127-1.4.442.442,0,0,1,.127-.394l2.03-1.991a.446.446,0,0,0,.074-.542l-1.215-2.1a.446.446,0,0,0-.507-.207l-2.74.763a.443.443,0,0,1-.405-.087,7.821,7.821,0,0,0-2.431-1.4.442.442,0,0,1-.278-.307l-.709-2.753a.447.447,0,0,0-.433-.335h-2.429a.446.446,0,0,0-.432.335l-.709,2.753a.443.443,0,0,1-.278.307,7.82,7.82,0,0,0-2.431,1.4.443.443,0,0,1-.405.087l-2.74-.763a.446.446,0,0,0-.506.207l-1.215,2.1a.447.447,0,0,0,.074.542l2.03,1.991a.443.443,0,0,1,.127.394,7.842,7.842,0,0,0,0,2.809.443.443,0,0,1-.127.395l-2.03,1.99a.447.447,0,0,0-.074.542l1.215,2.1a.446.446,0,0,0,.506.207l2.74-.763a.443.443,0,0,1,.405.087,7.82,7.82,0,0,0,2.431,1.4.443.443,0,0,1,.278.307l.709,2.753a.447.447,0,0,0,.432.335h2.429a.447.447,0,0,0,.433-.335l.709-2.753a.442.442,0,0,1,.278-.307,7.821,7.821,0,0,0,2.431-1.4.444.444,0,0,1,.405-.087l2.74.763a.446.446,0,0,0,.507-.207l1.215-2.1a.446.446,0,0,0-.074-.542l-2.03-1.99a.443.443,0,0,1-.127-.395,7.851,7.851,0,0,0,.127-1.4m-7.612,4.151a4.157,4.157,0,1,1,3.935-3.935,4.157,4.157,0,0,1-3.935,3.935" transform="translate(-281.799 -406.662)" fill="#fff"/>
      <path id="Tracé_44" data-name="Tracé 44" d="M370.837,518.746a4.871,4.871,0,0,0,.258,9.736q.123,0,.247-.006a4.871,4.871,0,0,0-.5-9.73m4.4,5.081a4.157,4.157,0,1,1-4.368-4.367,4.172,4.172,0,0,1,4.368,4.367" transform="translate(-310.088 -439.233)" fill="#c7c9cb"/>
      <path id="Tracé_45" data-name="Tracé 45" d="M352.658,494.828l-2.03-1.991a.443.443,0,0,1-.127-.395,7.851,7.851,0,0,0,0-2.809.443.443,0,0,1,.127-.394l2.03-1.991a.446.446,0,0,0,.074-.542l-1.215-2.1a.447.447,0,0,0-.507-.207l-2.74.763a.442.442,0,0,1-.405-.087,7.815,7.815,0,0,0-2.431-1.4.443.443,0,0,1-.278-.307l-.709-2.753a.447.447,0,0,0-.433-.335h-2.429a.447.447,0,0,0-.432.335l-.709,2.753a.443.443,0,0,1-.278.307,7.818,7.818,0,0,0-2.431,1.4.442.442,0,0,1-.405.087l-2.74-.763a.447.447,0,0,0-.506.207l-1.215,2.1a.446.446,0,0,0,.074.542l2.03,1.991a.443.443,0,0,1,.127.394,7.842,7.842,0,0,0,0,2.809.443.443,0,0,1-.127.395l-2.03,1.991a.447.447,0,0,0-.074.542l1.215,2.1a.446.446,0,0,0,.506.207l2.74-.763a.443.443,0,0,1,.405.087,7.818,7.818,0,0,0,2.431,1.4.443.443,0,0,1,.278.307l.709,2.753a.446.446,0,0,0,.432.335h2.429a.447.447,0,0,0,.433-.335l.709-2.753a.442.442,0,0,1,.278-.307,7.819,7.819,0,0,0,2.431-1.4.443.443,0,0,1,.405-.087l2.74.763a.447.447,0,0,0,.507-.207l1.215-2.1a.447.447,0,0,0-.074-.542M351,496.938l-2.54-.707a1.155,1.155,0,0,0-1.06.231,7.08,7.08,0,0,1-2.209,1.276,1.155,1.155,0,0,0-.729.8l-.657,2.552h-2.014l-.657-2.552a1.155,1.155,0,0,0-.73-.8,7.081,7.081,0,0,1-2.209-1.276,1.155,1.155,0,0,0-1.06-.231l-2.54.707-1.007-1.744,1.882-1.845a1.155,1.155,0,0,0,.33-1.032,7.128,7.128,0,0,1,0-2.553,1.156,1.156,0,0,0-.33-1.032l-1.881-1.845,1.007-1.744,2.54.707a1.156,1.156,0,0,0,1.06-.231,7.08,7.08,0,0,1,2.209-1.276,1.156,1.156,0,0,0,.73-.8l.657-2.552h2.014l.657,2.552a1.155,1.155,0,0,0,.729.8,7.076,7.076,0,0,1,2.209,1.276,1.156,1.156,0,0,0,1.06.231l2.54-.707,1.007,1.744-1.882,1.845a1.156,1.156,0,0,0-.33,1.032,7.126,7.126,0,0,1,0,2.553,1.156,1.156,0,0,0,.33,1.032l1.881,1.845Z" transform="translate(-281.799 -406.661)" fill="#c7c9cb"/>
      <path id="Tracé_46" data-name="Tracé 46" d="M354.713,499.4a7.835,7.835,0,1,0,7.835,7.835,7.835,7.835,0,0,0-7.835-7.835m0,13.6a5.768,5.768,0,1,1,5.767-5.767A5.768,5.768,0,0,1,354.713,513" transform="translate(-293.712 -422.858)" fill="#c7c9cb"/>
    </g>
  </g>
</svg>
